%TF.GenerationSoftware,KiCad,Pcbnew,5.1.5*%
%TF.CreationDate,2020-03-19T15:27:56+01:00*%
%TF.ProjectId,PCIe-Adapter,50434965-2d41-4646-9170-7465722e6b69,rev?*%
%TF.SameCoordinates,Original*%
%TF.FileFunction,Copper,L1,Top*%
%TF.FilePolarity,Positive*%
%FSLAX46Y46*%
G04 Gerber Fmt 4.6, Leading zero omitted, Abs format (unit mm)*
G04 Created by KiCad (PCBNEW 5.1.5) date 2020-03-19 15:27:56*
%MOMM*%
%LPD*%
G04 APERTURE LIST*
%ADD10C,0.300000*%
%ADD11R,0.700000X4.300000*%
%ADD12R,0.700000X3.200000*%
%ADD13C,2.250000*%
%ADD14C,2.050000*%
%ADD15O,1.700000X1.700000*%
%ADD16R,1.700000X1.700000*%
%ADD17C,0.500000*%
%ADD18C,0.100000*%
%ADD19R,1.500000X1.500000*%
%ADD20R,4.200000X1.350000*%
%ADD21C,0.800000*%
%ADD22C,1.800000*%
%ADD23C,0.700000*%
%ADD24C,0.500000*%
%ADD25C,0.254000*%
%ADD26C,0.190000*%
%ADD27C,1.800000*%
%ADD28C,0.264461*%
G04 APERTURE END LIST*
D10*
X121161071Y-49941071D02*
X120303928Y-49941071D01*
X120732500Y-49941071D02*
X120732500Y-48441071D01*
X120589642Y-48655357D01*
X120446785Y-48798214D01*
X120303928Y-48869642D01*
D11*
X146000000Y-128460000D03*
X145000000Y-128460000D03*
X151000000Y-128460000D03*
X150000000Y-128460000D03*
X149000000Y-128460000D03*
X148000000Y-128460000D03*
X147000000Y-128460000D03*
X142000000Y-128460000D03*
X141000000Y-128460000D03*
X140000000Y-128460000D03*
X139000000Y-128460000D03*
X138000000Y-128460000D03*
X137000000Y-128460000D03*
X136000000Y-128460000D03*
X135000000Y-128460000D03*
X134000000Y-128460000D03*
X133000000Y-128460000D03*
X132000000Y-128460000D03*
X152000000Y-128460000D03*
X153000000Y-128460000D03*
X154000000Y-128460000D03*
X155000000Y-128460000D03*
X156000000Y-128460000D03*
X157000000Y-128460000D03*
X158000000Y-128460000D03*
X159000000Y-128460000D03*
X160000000Y-128460000D03*
X161000000Y-128460000D03*
X162000000Y-128460000D03*
X163000000Y-128460000D03*
D12*
X164000000Y-127910000D03*
D11*
X165000000Y-128460000D03*
D13*
X132080000Y-96520000D03*
X137160000Y-91440000D03*
X144780000Y-91440000D03*
X144780000Y-109220000D03*
X132080000Y-104140000D03*
X170180000Y-96520000D03*
X157480000Y-96520000D03*
X162560000Y-91440000D03*
X144780000Y-96520000D03*
D14*
X172720000Y-106680000D03*
D13*
X137160000Y-104140000D03*
D14*
X147320000Y-106680000D03*
D13*
X162560000Y-104140000D03*
X132080000Y-91440000D03*
D14*
X134620000Y-106680000D03*
D13*
X144780000Y-104140000D03*
X137160000Y-96520000D03*
X157480000Y-104140000D03*
D14*
X160020000Y-93980000D03*
D13*
X170180000Y-109220000D03*
X149860000Y-96520000D03*
X157480000Y-109220000D03*
X149860000Y-91440000D03*
X137160000Y-109220000D03*
X149860000Y-109220000D03*
X157480000Y-91440000D03*
X175260000Y-104140000D03*
X175260000Y-91440000D03*
X162560000Y-96520000D03*
X175260000Y-96520000D03*
D14*
X172720000Y-93980000D03*
D13*
X175260000Y-109220000D03*
X162560000Y-109220000D03*
X170180000Y-104140000D03*
D14*
X134620000Y-93980000D03*
D13*
X149860000Y-104140000D03*
X132080000Y-109220000D03*
X170180000Y-91440000D03*
D14*
X160020000Y-106680000D03*
X147320000Y-93980000D03*
X210820000Y-106680000D03*
D13*
X200660000Y-104140000D03*
X195580000Y-104140000D03*
X208280000Y-109220000D03*
X195580000Y-109220000D03*
X213360000Y-104140000D03*
X213360000Y-109220000D03*
X200660000Y-109220000D03*
X208280000Y-104140000D03*
D14*
X198120000Y-106680000D03*
X210820000Y-93980000D03*
D13*
X200660000Y-91440000D03*
X195580000Y-91440000D03*
X208280000Y-96520000D03*
X195580000Y-96520000D03*
X213360000Y-91440000D03*
X213360000Y-96520000D03*
X200660000Y-96520000D03*
X208280000Y-91440000D03*
D14*
X198120000Y-93980000D03*
X223520000Y-81280000D03*
D13*
X213360000Y-78740000D03*
X208280000Y-78740000D03*
X220980000Y-83820000D03*
X208280000Y-83820000D03*
X226060000Y-78740000D03*
X226060000Y-83820000D03*
X213360000Y-83820000D03*
X220980000Y-78740000D03*
D14*
X210820000Y-81280000D03*
D13*
X226060000Y-91440000D03*
X220980000Y-91440000D03*
X220980000Y-96520000D03*
X226060000Y-96520000D03*
D14*
X223520000Y-93980000D03*
D13*
X226060000Y-104140000D03*
X220980000Y-109220000D03*
D14*
X223520000Y-106680000D03*
D13*
X220980000Y-104140000D03*
X226060000Y-109220000D03*
X182880000Y-109220000D03*
X182880000Y-91440000D03*
X182880000Y-96520000D03*
X187960000Y-104140000D03*
D14*
X185420000Y-106680000D03*
D13*
X182880000Y-104140000D03*
D14*
X185420000Y-93980000D03*
D13*
X187960000Y-109220000D03*
X187960000Y-91440000D03*
X187960000Y-96520000D03*
D15*
X133350000Y-51435000D03*
X152400000Y-48895000D03*
X130810000Y-48895000D03*
X149860000Y-48895000D03*
X135890000Y-48895000D03*
X152400000Y-51435000D03*
X149860000Y-51435000D03*
X147320000Y-51435000D03*
X144780000Y-51435000D03*
D16*
X135890000Y-51435000D03*
D15*
X142240000Y-51435000D03*
X142240000Y-48895000D03*
X154940000Y-48895000D03*
X147320000Y-48895000D03*
D16*
X154940000Y-51435000D03*
D15*
X144780000Y-48895000D03*
X130810000Y-51435000D03*
X133350000Y-48895000D03*
X128270000Y-51435000D03*
X128270000Y-48895000D03*
D16*
X200660000Y-53340000D03*
D15*
X200660000Y-55880000D03*
X198120000Y-53340000D03*
X198120000Y-55880000D03*
X195580000Y-53340000D03*
X195580000Y-55880000D03*
D16*
X170180000Y-72390000D03*
D15*
X170180000Y-69850000D03*
X170180000Y-60960000D03*
X170180000Y-63500000D03*
D16*
X170180000Y-66040000D03*
X181610000Y-64770000D03*
D15*
X181610000Y-62230000D03*
X181610000Y-59690000D03*
D17*
X182400000Y-74660000D03*
X182400000Y-73660000D03*
X182400000Y-72660000D03*
X181400000Y-74660000D03*
X181400000Y-73660000D03*
X181400000Y-72660000D03*
X180400000Y-74660000D03*
X180400000Y-73660000D03*
X180400000Y-72660000D03*
%TA.AperFunction,Conductor*%
D18*
G36*
X182424504Y-72411204D02*
G01*
X182448773Y-72414804D01*
X182472571Y-72420765D01*
X182495671Y-72429030D01*
X182517849Y-72439520D01*
X182538893Y-72452133D01*
X182558598Y-72466747D01*
X182576777Y-72483223D01*
X182593253Y-72501402D01*
X182607867Y-72521107D01*
X182620480Y-72542151D01*
X182630970Y-72564329D01*
X182639235Y-72587429D01*
X182645196Y-72611227D01*
X182648796Y-72635496D01*
X182650000Y-72660000D01*
X182650000Y-74660000D01*
X182648796Y-74684504D01*
X182645196Y-74708773D01*
X182639235Y-74732571D01*
X182630970Y-74755671D01*
X182620480Y-74777849D01*
X182607867Y-74798893D01*
X182593253Y-74818598D01*
X182576777Y-74836777D01*
X182558598Y-74853253D01*
X182538893Y-74867867D01*
X182517849Y-74880480D01*
X182495671Y-74890970D01*
X182472571Y-74899235D01*
X182448773Y-74905196D01*
X182424504Y-74908796D01*
X182400000Y-74910000D01*
X180400000Y-74910000D01*
X180375496Y-74908796D01*
X180351227Y-74905196D01*
X180327429Y-74899235D01*
X180304329Y-74890970D01*
X180282151Y-74880480D01*
X180261107Y-74867867D01*
X180241402Y-74853253D01*
X180223223Y-74836777D01*
X180206747Y-74818598D01*
X180192133Y-74798893D01*
X180179520Y-74777849D01*
X180169030Y-74755671D01*
X180160765Y-74732571D01*
X180154804Y-74708773D01*
X180151204Y-74684504D01*
X180150000Y-74660000D01*
X180150000Y-72660000D01*
X180151204Y-72635496D01*
X180154804Y-72611227D01*
X180160765Y-72587429D01*
X180169030Y-72564329D01*
X180179520Y-72542151D01*
X180192133Y-72521107D01*
X180206747Y-72501402D01*
X180223223Y-72483223D01*
X180241402Y-72466747D01*
X180261107Y-72452133D01*
X180282151Y-72439520D01*
X180304329Y-72429030D01*
X180327429Y-72420765D01*
X180351227Y-72414804D01*
X180375496Y-72411204D01*
X180400000Y-72410000D01*
X182400000Y-72410000D01*
X182424504Y-72411204D01*
G37*
%TD.AperFunction*%
D16*
X208280000Y-60960000D03*
D15*
X205740000Y-60960000D03*
X208280000Y-63500000D03*
X205740000Y-63500000D03*
X208280000Y-66040000D03*
X205740000Y-66040000D03*
D19*
X170180000Y-116840000D03*
X140970000Y-118110000D03*
X149860000Y-116840000D03*
D20*
X121920000Y-57435000D03*
X121920000Y-51785000D03*
D21*
X123507500Y-57150000D03*
X121920000Y-57150000D03*
X120332500Y-57150000D03*
X121920000Y-52070000D03*
X120332500Y-52070000D03*
X123507500Y-52070000D03*
D17*
X178752500Y-78422500D03*
X180022500Y-78740000D03*
X181292500Y-80010000D03*
X175260000Y-73342500D03*
X187642500Y-73660000D03*
X178752500Y-80010000D03*
X183515000Y-80010000D03*
X184467500Y-79057500D03*
X184467500Y-78105000D03*
X182562500Y-79057500D03*
D21*
X138112500Y-125095000D03*
X134937500Y-125730000D03*
D17*
X136842500Y-120650000D03*
X195580000Y-69532500D03*
X201295000Y-71755000D03*
X202565000Y-70485000D03*
X203517500Y-69532500D03*
X199707500Y-69850000D03*
X201930000Y-68262500D03*
X202565000Y-66675000D03*
X203517500Y-63500000D03*
X194310000Y-66675000D03*
X194627500Y-63182500D03*
X203200000Y-60325000D03*
X191770000Y-63500000D03*
D21*
X207010000Y-52705000D03*
D17*
X140017500Y-120650000D03*
D21*
X141922500Y-120967500D03*
X137477500Y-119697500D03*
X132080000Y-74295000D03*
X141605000Y-74295000D03*
X151130000Y-74295000D03*
D17*
X165100000Y-73025000D03*
X151130000Y-73025000D03*
X141605000Y-73025000D03*
X132080000Y-73025000D03*
X176212500Y-80010000D03*
X176212500Y-77470000D03*
D22*
X211772500Y-51752500D03*
D17*
X210820000Y-64770000D03*
X193675000Y-58737500D03*
X192087500Y-59690000D03*
D22*
X121602500Y-75247500D03*
D21*
X172402500Y-73660000D03*
X172402500Y-74930000D03*
X172402500Y-70167500D03*
D17*
X121602500Y-73025000D03*
D21*
X124777500Y-53657500D03*
X125730000Y-53657500D03*
X125730000Y-55562500D03*
X124777500Y-55562500D03*
X126682500Y-53657500D03*
X126682500Y-55562500D03*
D17*
X153500000Y-124250000D03*
X155500000Y-124250000D03*
X157500000Y-124250000D03*
X159500000Y-124250000D03*
X161500000Y-124250000D03*
X165000000Y-125969998D03*
X151000000Y-126250000D03*
X145000000Y-125750000D03*
X148500000Y-124250000D03*
X163500000Y-124250000D03*
X150500000Y-124250000D03*
X151500000Y-124250000D03*
D22*
X133350000Y-124460000D03*
D21*
X133985000Y-74295000D03*
D17*
X201930000Y-58102500D03*
D22*
X117475000Y-79375000D03*
D17*
X191135000Y-63817500D03*
X202733000Y-65405000D03*
D22*
X203200000Y-55562500D03*
D21*
X143510000Y-74295000D03*
D17*
X194627500Y-67945000D03*
X140970000Y-123190000D03*
X132397500Y-122237500D03*
X118427500Y-117475000D03*
X167640000Y-63817500D03*
X179070000Y-64770000D03*
D22*
X139700000Y-124460000D03*
D21*
X137160000Y-121920000D03*
D17*
X193357500Y-67310000D03*
X179705000Y-62230000D03*
X132397500Y-120967500D03*
X141922500Y-123190000D03*
X167640000Y-62865000D03*
X117792500Y-116840000D03*
X172402500Y-63817500D03*
X141922500Y-122237500D03*
X118427500Y-118427500D03*
X167005000Y-60960000D03*
X171767500Y-60325000D03*
X211455000Y-68580000D03*
D21*
X116240000Y-81915000D03*
D17*
X124142500Y-73660000D03*
X199072500Y-70802500D03*
X198437500Y-70802500D03*
X167005000Y-62230000D03*
X173355000Y-63817500D03*
X183515000Y-66675000D03*
X182562500Y-66675000D03*
X185420000Y-66357500D03*
X187960000Y-77470000D03*
X200660000Y-60642500D03*
X201612500Y-66992500D03*
X202565000Y-67627500D03*
X210185000Y-61595000D03*
X194627500Y-67310000D03*
X194310000Y-77470000D03*
X186372500Y-77470000D03*
X196215000Y-62547500D03*
X185420000Y-77470000D03*
X196850000Y-62547500D03*
X182245000Y-77787500D03*
X180022500Y-69532500D03*
X190182500Y-72390000D03*
X197485000Y-61912500D03*
X190817500Y-66675000D03*
X194627500Y-64770000D03*
X191452500Y-66040000D03*
X197802500Y-70167500D03*
X192722500Y-64335000D03*
X192722500Y-66357500D03*
X192722500Y-61595000D03*
X203517500Y-61277500D03*
X198755000Y-62547500D03*
X184318000Y-66675000D03*
X180632062Y-69557938D03*
X203835000Y-68262500D03*
X201930000Y-63500000D03*
X180644781Y-68910219D03*
X183515000Y-68897500D03*
X190500000Y-68897500D03*
X193357500Y-62547500D03*
X198120000Y-60642500D03*
X199707500Y-61912500D03*
X177482500Y-73342500D03*
X177482500Y-75247500D03*
X185420000Y-73660000D03*
X181292500Y-77787500D03*
D23*
X138000000Y-128460000D02*
X138000000Y-125207500D01*
X138000000Y-125207500D02*
X138112500Y-125095000D01*
X135000000Y-125792500D02*
X134937500Y-125730000D01*
X135000000Y-128460000D02*
X135000000Y-125792500D01*
D24*
X154000000Y-124750000D02*
X154000000Y-128460000D01*
X153500000Y-124250000D02*
X154000000Y-124750000D01*
X155000000Y-128460000D02*
X155000000Y-124750000D01*
X155000000Y-124750000D02*
X155500000Y-124250000D01*
X158000000Y-124750000D02*
X158000000Y-128460000D01*
X157500000Y-124250000D02*
X158000000Y-124750000D01*
X159000000Y-128460000D02*
X159000000Y-124750000D01*
X159000000Y-124750000D02*
X159500000Y-124250000D01*
X162000000Y-124750000D02*
X162000000Y-128460000D01*
X161500000Y-124250000D02*
X162000000Y-124750000D01*
X165000000Y-128460000D02*
X165000000Y-125969998D01*
X151000000Y-128460000D02*
X151000000Y-126250000D01*
X145402002Y-125750000D02*
X145000000Y-125750000D01*
X146000000Y-128460000D02*
X146000000Y-126347998D01*
X146000000Y-126347998D02*
X145402002Y-125750000D01*
X149000000Y-124750000D02*
X149000000Y-128460000D01*
X148500000Y-124250000D02*
X149000000Y-124750000D01*
X151000000Y-126250000D02*
X151000000Y-124750000D01*
X151000000Y-124750000D02*
X151500000Y-124250000D01*
D23*
X132000000Y-125810000D02*
X133350000Y-124460000D01*
X132000000Y-128460000D02*
X132000000Y-125810000D01*
X133000000Y-124810000D02*
X133350000Y-124460000D01*
X133000000Y-128460000D02*
X133000000Y-124810000D01*
X134000000Y-125110000D02*
X133350000Y-124460000D01*
X134000000Y-128460000D02*
X134000000Y-125110000D01*
D25*
X191135000Y-63817500D02*
X191135000Y-62491338D01*
X191135000Y-62491338D02*
X191135000Y-61912500D01*
X191135000Y-61912500D02*
X192405000Y-60642500D01*
X192405000Y-60642500D02*
X197167500Y-60642500D01*
X197167500Y-60642500D02*
X198120000Y-61595000D01*
X198120000Y-61595000D02*
X198120000Y-64135000D01*
X198120000Y-64135000D02*
X199390000Y-65405000D01*
X199390000Y-65405000D02*
X202733000Y-65405000D01*
D23*
X197167500Y-60007500D02*
X197167500Y-60642500D01*
X197802500Y-59372500D02*
X197167500Y-60007500D01*
X202247500Y-59372500D02*
X197802500Y-59372500D01*
X203200000Y-55562500D02*
X203200000Y-58420000D01*
X203200000Y-58420000D02*
X202247500Y-59372500D01*
D25*
X185420000Y-67945000D02*
X194627500Y-67945000D01*
X185420000Y-67945000D02*
X184150000Y-67945000D01*
X179070000Y-64939002D02*
X179070000Y-64770000D01*
X184150000Y-67945000D02*
X182075998Y-67945000D01*
X182075998Y-67945000D02*
X179070000Y-64939002D01*
D26*
X130810000Y-48895000D02*
X129540000Y-50165000D01*
X129540000Y-50165000D02*
X129540000Y-53975000D01*
X129540000Y-53975000D02*
X131762500Y-56197500D01*
X131762500Y-56197500D02*
X155575000Y-56197500D01*
X155575000Y-56197500D02*
X156527500Y-57150000D01*
X156527500Y-57150000D02*
X178435000Y-57150000D01*
X179070000Y-57785000D02*
X179070000Y-64770000D01*
X178435000Y-57150000D02*
X179070000Y-57785000D01*
D23*
X139000000Y-125160000D02*
X139700000Y-124460000D01*
X139000000Y-128460000D02*
X139000000Y-125160000D01*
D27*
X118110000Y-113030000D02*
X118110000Y-83820000D01*
X167640000Y-67310000D02*
X168910000Y-66040000D01*
X138747500Y-123507500D02*
X136690298Y-123507500D01*
X168910000Y-66040000D02*
X170180000Y-66040000D01*
X124460000Y-77470000D02*
X166370000Y-77470000D01*
X135255000Y-122072202D02*
X135255000Y-120015000D01*
X132080000Y-116840000D02*
X121920000Y-116840000D01*
X166370000Y-77470000D02*
X167640000Y-76200000D01*
X136690298Y-123507500D02*
X135255000Y-122072202D01*
X139700000Y-124460000D02*
X138747500Y-123507500D01*
X118110000Y-83820000D02*
X124460000Y-77470000D01*
X121920000Y-116840000D02*
X118110000Y-113030000D01*
X135255000Y-120015000D02*
X132080000Y-116840000D01*
X167640000Y-76200000D02*
X167640000Y-67310000D01*
D23*
X137160000Y-121920000D02*
X140970000Y-118110000D01*
X150000000Y-116980000D02*
X149860000Y-116840000D01*
D24*
X149750000Y-116950000D02*
X149860000Y-116840000D01*
X149750000Y-125560000D02*
X149750000Y-116950000D01*
X150000000Y-128460000D02*
X150000000Y-125810000D01*
X150000000Y-125810000D02*
X149750000Y-125560000D01*
D25*
X179705000Y-65087500D02*
X179705000Y-62230000D01*
X193357500Y-67310000D02*
X181927500Y-67310000D01*
X181927500Y-67310000D02*
X179705000Y-65087500D01*
X142000000Y-123267500D02*
X141922500Y-123190000D01*
X142000000Y-128460000D02*
X142000000Y-123267500D01*
X141437001Y-122722999D02*
X141922500Y-122237500D01*
X141437001Y-123414161D02*
X141437001Y-122722999D01*
X141000000Y-128460000D02*
X141000000Y-123851162D01*
X141000000Y-123851162D02*
X141437001Y-123414161D01*
X167005000Y-60960000D02*
X167640000Y-60960000D01*
X167640000Y-60960000D02*
X167957500Y-60960000D01*
X167957500Y-60960000D02*
X169227500Y-62230000D01*
X169227500Y-62230000D02*
X170489162Y-62230000D01*
X170489162Y-62230000D02*
X171132500Y-62230000D01*
X171132500Y-62230000D02*
X171767500Y-61595000D01*
X171767500Y-61595000D02*
X171767500Y-60325000D01*
X137000000Y-125570000D02*
X137000000Y-126056000D01*
X133985000Y-122555000D02*
X137000000Y-125570000D01*
X133985000Y-120650000D02*
X133985000Y-122555000D01*
X131445000Y-118110000D02*
X133985000Y-120650000D01*
X121285000Y-118110000D02*
X131445000Y-118110000D01*
X172402500Y-64770000D02*
X167640000Y-64770000D01*
X116840000Y-113665000D02*
X121285000Y-118110000D01*
X173469501Y-65837001D02*
X172402500Y-64770000D01*
X137000000Y-126056000D02*
X137000000Y-128460000D01*
X165735000Y-76200000D02*
X123825000Y-76200000D01*
X166370000Y-75565000D02*
X165735000Y-76200000D01*
X123825000Y-76200000D02*
X116840000Y-83185000D01*
X178232001Y-65837001D02*
X173469501Y-65837001D01*
X116840000Y-83185000D02*
X116840000Y-113665000D01*
X182245000Y-69850000D02*
X178232001Y-65837001D01*
X167640000Y-64770000D02*
X166370000Y-66040000D01*
X166370000Y-66040000D02*
X166370000Y-75565000D01*
X182245000Y-69850000D02*
X190500000Y-69850000D01*
X190500000Y-69850000D02*
X191887501Y-71237501D01*
X191887501Y-71237501D02*
X192087500Y-71437500D01*
X192087500Y-71437500D02*
X198755000Y-71437500D01*
X198755000Y-71437500D02*
X199072500Y-71120000D01*
X199072500Y-71120000D02*
X199072500Y-70802500D01*
X165100000Y-75565000D02*
X165735000Y-74930000D01*
X120676510Y-118454010D02*
X116205000Y-113982500D01*
X165735000Y-74930000D02*
X165735000Y-63500000D01*
X116205000Y-113982500D02*
X116205000Y-82867500D01*
X116205000Y-82867500D02*
X123507500Y-75565000D01*
X133350000Y-122555000D02*
X133350000Y-120967500D01*
X130836510Y-118454010D02*
X120676510Y-118454010D01*
X136000000Y-125205000D02*
X133350000Y-122555000D01*
X123507500Y-75565000D02*
X165100000Y-75565000D01*
X133350000Y-120967500D02*
X130836510Y-118454010D01*
X165735000Y-63500000D02*
X167005000Y-62230000D01*
X136000000Y-128460000D02*
X136000000Y-125205000D01*
X192087500Y-70802500D02*
X198437500Y-70802500D01*
X173355000Y-62547500D02*
X173672500Y-62230000D01*
X173355000Y-63817500D02*
X173355000Y-62547500D01*
X190668000Y-69383000D02*
X192087500Y-70802500D01*
X173672500Y-62230000D02*
X175409500Y-62230000D01*
X182562500Y-69383000D02*
X190668000Y-69383000D01*
X175409500Y-62230000D02*
X182562500Y-69383000D01*
D23*
X170180000Y-116840000D02*
X165100000Y-116840000D01*
X164000000Y-125610000D02*
X164610000Y-125000000D01*
X164000000Y-127910000D02*
X164000000Y-125610000D01*
X164610000Y-117330000D02*
X165100000Y-116840000D01*
X164610000Y-125000000D02*
X164610000Y-117330000D01*
D25*
X185420000Y-66040000D02*
X185420000Y-66357500D01*
X181610000Y-62230000D02*
X185420000Y-66040000D01*
D26*
X193675000Y-76835000D02*
X187007500Y-76835000D01*
X194310000Y-77470000D02*
X193675000Y-76835000D01*
X187007500Y-76835000D02*
X186372500Y-77470000D01*
D25*
X180022500Y-69886053D02*
X181891447Y-71755000D01*
X180022500Y-69532500D02*
X180022500Y-69886053D01*
X181891447Y-71755000D02*
X189547500Y-71755000D01*
X189547500Y-71755000D02*
X190182500Y-72390000D01*
D26*
X130810000Y-51435000D02*
X130810000Y-52637081D01*
X130810000Y-52637081D02*
X130810000Y-53975000D01*
X130810000Y-53975000D02*
X132080000Y-55245000D01*
X132080000Y-55245000D02*
X156210000Y-55245000D01*
X156210000Y-55245000D02*
X157162500Y-56197500D01*
X157162500Y-56197500D02*
X185420000Y-56197500D01*
X185420000Y-56197500D02*
X187325000Y-58102500D01*
X187325000Y-58102500D02*
X187325000Y-63817500D01*
X190182500Y-66675000D02*
X187325000Y-63817500D01*
X190817500Y-66675000D02*
X190182500Y-66675000D01*
X189547500Y-63182500D02*
X191135000Y-64770000D01*
X189547500Y-56832500D02*
X189547500Y-63182500D01*
X186690000Y-53975000D02*
X189547500Y-56832500D01*
X158115000Y-53975000D02*
X186690000Y-53975000D01*
X138747500Y-48895000D02*
X139382500Y-49530000D01*
X135890000Y-48895000D02*
X138747500Y-48895000D01*
X157162500Y-53022500D02*
X158115000Y-53975000D01*
X140017500Y-53022500D02*
X157162500Y-53022500D01*
X191135000Y-64770000D02*
X194627500Y-64770000D01*
X139382500Y-49530000D02*
X139382500Y-52387500D01*
X139382500Y-52387500D02*
X140017500Y-53022500D01*
X135005419Y-54292500D02*
X133350000Y-52637081D01*
X156527500Y-54292500D02*
X135005419Y-54292500D01*
X157480000Y-55245000D02*
X156527500Y-54292500D01*
X133350000Y-52637081D02*
X133350000Y-51435000D01*
X185737500Y-55245000D02*
X157480000Y-55245000D01*
X188277500Y-63500000D02*
X188277500Y-57785000D01*
X188277500Y-57785000D02*
X185737500Y-55245000D01*
X190817500Y-66040000D02*
X188277500Y-63500000D01*
X191452500Y-66040000D02*
X190817500Y-66040000D01*
X133350000Y-48895000D02*
X134620000Y-50165000D01*
X134620000Y-50165000D02*
X138112500Y-50165000D01*
X138112500Y-50165000D02*
X138747500Y-50800000D01*
X138747500Y-50800000D02*
X138747500Y-52387500D01*
X138747500Y-52387500D02*
X139700000Y-53340000D01*
X139700000Y-53340000D02*
X156845000Y-53340000D01*
X187642500Y-55562500D02*
X189230000Y-57150000D01*
X189230000Y-63260993D02*
X191056507Y-65087500D01*
X189230000Y-57150000D02*
X189230000Y-63260993D01*
X194301198Y-65087500D02*
X196523698Y-67310000D01*
X191056507Y-65087500D02*
X194301198Y-65087500D01*
X196523698Y-67310000D02*
X196532500Y-67310000D01*
X197802500Y-68588802D02*
X196523698Y-67310000D01*
X197802500Y-70167500D02*
X197802500Y-68588802D01*
X156845000Y-53340000D02*
X157797500Y-54292500D01*
X157797500Y-54292500D02*
X186372500Y-54292500D01*
X186372500Y-54292500D02*
X187642500Y-55562500D01*
X192722500Y-66357500D02*
X192722500Y-65087500D01*
D25*
X192722500Y-64335000D02*
X192722500Y-61595000D01*
X180632062Y-69557938D02*
X182194124Y-71120000D01*
X182194124Y-71120000D02*
X188595000Y-71120000D01*
X188595000Y-71120000D02*
X189865000Y-71120000D01*
X189865000Y-71120000D02*
X190500000Y-71755000D01*
X190500000Y-71755000D02*
X191452500Y-72707500D01*
X191452500Y-72707500D02*
X199390000Y-72707500D01*
X199390000Y-72707500D02*
X203835000Y-68262500D01*
X203200000Y-64770000D02*
X201930000Y-63500000D01*
X203200000Y-67945000D02*
X203200000Y-64770000D01*
X182219562Y-70485000D02*
X190182500Y-70485000D01*
X180644781Y-68910219D02*
X182219562Y-70485000D01*
X190182500Y-70485000D02*
X191770000Y-72072500D01*
X199072500Y-72072500D02*
X203200000Y-67945000D01*
X191770000Y-72072500D02*
X199072500Y-72072500D01*
X203200000Y-62230000D02*
X201930000Y-63500000D01*
X208280000Y-60960000D02*
X207010000Y-62230000D01*
X207010000Y-62230000D02*
X203200000Y-62230000D01*
X183515000Y-68897500D02*
X190500000Y-68897500D01*
X198120000Y-60642500D02*
X198437500Y-60642500D01*
X198437500Y-60642500D02*
X199707500Y-61912500D01*
D28*
X216944939Y-92935061D02*
X215900000Y-93980000D01*
X214536777Y-87855061D02*
X216944939Y-90263223D01*
X196297892Y-82840511D02*
X196354773Y-82804770D01*
X196250389Y-82888014D02*
X196297892Y-82840511D01*
X196214648Y-82944895D02*
X196250389Y-82888014D01*
X216944939Y-90263223D02*
X216944939Y-92935061D01*
X196184939Y-83075061D02*
X196192460Y-83008304D01*
X196184939Y-83107463D02*
X196184939Y-83075061D01*
X196119488Y-83294509D02*
X196155229Y-83237628D01*
X196071985Y-83342012D02*
X196119488Y-83294509D01*
X196015104Y-83377753D02*
X196071985Y-83342012D01*
X196177417Y-83174219D02*
X196184939Y-83107463D01*
X195884939Y-83407463D02*
X195951695Y-83399941D01*
X195754773Y-83377753D02*
X195818182Y-83399941D01*
X196354773Y-82804770D02*
X196418182Y-82782582D01*
X195697892Y-83342012D02*
X195754773Y-83377753D01*
X195650389Y-83294509D02*
X195697892Y-83342012D01*
X195614648Y-83237628D02*
X195650389Y-83294509D01*
X195592460Y-83174219D02*
X195614648Y-83237628D01*
X200566777Y-82775061D02*
X205646777Y-87855061D01*
X195584939Y-83107463D02*
X195592460Y-83174219D01*
X196155229Y-83237628D02*
X196177417Y-83174219D01*
X194450389Y-83294509D02*
X194497892Y-83342012D01*
X195951695Y-83399941D02*
X196015104Y-83377753D01*
X194084939Y-82775061D02*
X194151695Y-82782582D01*
X195097892Y-82840511D02*
X195154773Y-82804770D01*
X194151695Y-82782582D02*
X194215104Y-82804770D01*
X194384939Y-83107463D02*
X194392460Y-83174219D01*
X194384939Y-83075061D02*
X194384939Y-83107463D01*
X194271985Y-82840511D02*
X194319488Y-82888014D01*
X194355229Y-82944895D02*
X194377417Y-83008304D01*
X147725060Y-124960059D02*
X147725060Y-116926776D01*
X194319488Y-82888014D02*
X194355229Y-82944895D01*
X194977417Y-83174219D02*
X194984939Y-83107463D01*
X194377417Y-83008304D02*
X194384939Y-83075061D01*
X123415061Y-110396777D02*
X123415061Y-86453223D01*
X194215104Y-82804770D02*
X194271985Y-82840511D01*
X127093223Y-114074939D02*
X123415061Y-110396777D01*
X144873223Y-114074939D02*
X127093223Y-114074939D01*
X194751695Y-83399941D02*
X194815104Y-83377753D01*
X194554773Y-83377753D02*
X194618182Y-83399941D01*
X194984939Y-83075061D02*
X194992460Y-83008304D01*
X147725060Y-116926776D02*
X144873223Y-114074939D01*
X194919488Y-83294509D02*
X194955229Y-83237628D01*
X196192460Y-83008304D02*
X196214648Y-82944895D01*
X195351695Y-82782582D02*
X195415104Y-82804770D01*
X148000000Y-125234999D02*
X147725060Y-124960059D01*
X194992460Y-83008304D02*
X195014648Y-82944895D01*
X194984939Y-83107463D02*
X194984939Y-83075061D01*
X194392460Y-83174219D02*
X194414648Y-83237628D01*
X194618182Y-83399941D02*
X194684939Y-83407463D01*
X194497892Y-83342012D02*
X194554773Y-83377753D01*
X196418182Y-82782582D02*
X196484939Y-82775061D01*
X123415061Y-86453223D02*
X127093223Y-82775061D01*
X127093223Y-82775061D02*
X194084939Y-82775061D01*
X194871985Y-83342012D02*
X194919488Y-83294509D01*
X194684939Y-83407463D02*
X194751695Y-83399941D01*
X205646777Y-87855061D02*
X214536777Y-87855061D01*
X195519488Y-82888014D02*
X195555229Y-82944895D01*
X215900000Y-93980000D02*
X210820000Y-93980000D01*
X196484939Y-82775061D02*
X200566777Y-82775061D01*
X194815104Y-83377753D02*
X194871985Y-83342012D01*
X195154773Y-82804770D02*
X195218182Y-82782582D01*
X195218182Y-82782582D02*
X195284939Y-82775061D01*
X194955229Y-83237628D02*
X194977417Y-83174219D01*
X195014648Y-82944895D02*
X195050389Y-82888014D01*
X195818182Y-83399941D02*
X195884939Y-83407463D01*
X195284939Y-82775061D02*
X195351695Y-82782582D01*
X195415104Y-82804770D02*
X195471985Y-82840511D01*
X195471985Y-82840511D02*
X195519488Y-82888014D01*
X195555229Y-82944895D02*
X195577417Y-83008304D01*
X195050389Y-82888014D02*
X195097892Y-82840511D01*
X194414648Y-83237628D02*
X194450389Y-83294509D01*
X195577417Y-83008304D02*
X195584939Y-83075061D01*
X195584939Y-83075061D02*
X195584939Y-83107463D01*
X148000000Y-126000000D02*
X148000000Y-125234999D01*
D23*
X148000000Y-127250000D02*
X148000000Y-126250000D01*
X148000000Y-128460000D02*
X148000000Y-127250000D01*
D24*
X148000000Y-126250000D02*
X148000000Y-126000000D01*
D28*
X122964939Y-86266777D02*
X126906777Y-82324939D01*
X122964939Y-110583223D02*
X122964939Y-86266777D01*
X200753223Y-82324939D02*
X205833223Y-87404939D01*
X144686777Y-114525061D02*
X126906777Y-114525061D01*
X126906777Y-114525061D02*
X122964939Y-110583223D01*
X147274940Y-117113224D02*
X144686777Y-114525061D01*
X218440000Y-93980000D02*
X223520000Y-93980000D01*
X126906777Y-82324939D02*
X200753223Y-82324939D01*
X214723223Y-87404939D02*
X217395061Y-90076777D01*
X205833223Y-87404939D02*
X214723223Y-87404939D01*
X217395061Y-90076777D02*
X217395061Y-92935061D01*
X217395061Y-92935061D02*
X218440000Y-93980000D01*
X147000000Y-125234999D02*
X147274940Y-124960059D01*
X147274940Y-124960059D02*
X147274940Y-117113224D01*
X147000000Y-126000000D02*
X147000000Y-125234999D01*
D23*
X147000000Y-128000000D02*
X147000000Y-126250000D01*
X147000000Y-128460000D02*
X147000000Y-128000000D01*
D24*
X147000000Y-126250000D02*
X147000000Y-126000000D01*
D28*
X217395061Y-105635061D02*
X218440000Y-106680000D01*
X214723223Y-100104939D02*
X217395061Y-102776777D01*
X207103223Y-100104939D02*
X214723223Y-100104939D01*
X204695061Y-90076777D02*
X204695061Y-97696777D01*
X202023223Y-87404939D02*
X204695061Y-90076777D01*
X217395061Y-102776777D02*
X217395061Y-105635061D01*
X152274940Y-114493224D02*
X149766777Y-111985061D01*
X152000000Y-125234999D02*
X152274940Y-124960059D01*
X152274940Y-124960059D02*
X152274940Y-114493224D01*
X128176777Y-111985061D02*
X125504939Y-109313223D01*
X125504939Y-109313223D02*
X125504939Y-87536777D01*
X204695061Y-97696777D02*
X207103223Y-100104939D01*
X125504939Y-87536777D02*
X128176777Y-84864939D01*
X128176777Y-84864939D02*
X189323223Y-84864939D01*
X218440000Y-106680000D02*
X223520000Y-106680000D01*
X149766777Y-111985061D02*
X128176777Y-111985061D01*
X189323223Y-84864939D02*
X191863223Y-87404939D01*
X191863223Y-87404939D02*
X202023223Y-87404939D01*
X152000000Y-126000000D02*
X152000000Y-125234999D01*
D23*
X152000000Y-128000000D02*
X152000000Y-126250000D01*
X152000000Y-128460000D02*
X152000000Y-128000000D01*
D24*
X152000000Y-126250000D02*
X152000000Y-126000000D01*
D28*
X215900000Y-106680000D02*
X210820000Y-106680000D01*
X216944939Y-105635061D02*
X215900000Y-106680000D01*
X216944939Y-102963223D02*
X216944939Y-105635061D01*
X204244939Y-97883223D02*
X206916777Y-100555061D01*
X191676777Y-87855061D02*
X201836777Y-87855061D01*
X178638182Y-85322582D02*
X178704939Y-85315061D01*
X178574773Y-85344770D02*
X178638182Y-85322582D01*
X178517892Y-85380511D02*
X178574773Y-85344770D01*
X178470389Y-85428014D02*
X178517892Y-85380511D01*
X214536777Y-100555061D02*
X216944939Y-102963223D01*
X178434648Y-85484895D02*
X178470389Y-85428014D01*
X178412460Y-85548304D02*
X178434648Y-85484895D01*
X178397417Y-85714219D02*
X178404939Y-85647463D01*
X178339488Y-85834509D02*
X178375229Y-85777628D01*
X178291985Y-85882012D02*
X178339488Y-85834509D01*
X178235104Y-85917753D02*
X178291985Y-85882012D01*
X178404939Y-85615061D02*
X178412460Y-85548304D01*
X178038182Y-85939941D02*
X178104939Y-85947463D01*
X177974773Y-85917753D02*
X178038182Y-85939941D01*
X177870389Y-85834509D02*
X177917892Y-85882012D01*
X177834648Y-85777628D02*
X177870389Y-85834509D01*
X177812460Y-85714219D02*
X177834648Y-85777628D01*
X177804939Y-85647463D02*
X177812460Y-85714219D01*
X178404939Y-85647463D02*
X178404939Y-85615061D01*
X176597417Y-85548304D02*
X176604939Y-85615061D01*
X176604939Y-85647463D02*
X176612460Y-85714219D01*
X201836777Y-87855061D02*
X204244939Y-90263223D01*
X177091985Y-85882012D02*
X177139488Y-85834509D01*
X206916777Y-100555061D02*
X214536777Y-100555061D01*
X177175229Y-85777628D02*
X177197417Y-85714219D01*
X176491985Y-85380511D02*
X176539488Y-85428014D01*
X176634648Y-85777628D02*
X176670389Y-85834509D01*
X149953223Y-111534939D02*
X128363223Y-111534939D01*
X176612460Y-85714219D02*
X176634648Y-85777628D01*
X189136777Y-85315061D02*
X191676777Y-87855061D01*
X152725060Y-124960059D02*
X152725060Y-114306776D01*
X176435104Y-85344770D02*
X176491985Y-85380511D01*
X177234648Y-85484895D02*
X177270389Y-85428014D01*
X177917892Y-85882012D02*
X177974773Y-85917753D01*
X177212460Y-85548304D02*
X177234648Y-85484895D01*
X128363223Y-85315061D02*
X176304939Y-85315061D01*
X176604939Y-85615061D02*
X176604939Y-85647463D01*
X178171695Y-85939941D02*
X178235104Y-85917753D01*
X176539488Y-85428014D02*
X176575229Y-85484895D01*
X176670389Y-85834509D02*
X176717892Y-85882012D01*
X178704939Y-85315061D02*
X189136777Y-85315061D01*
X176838182Y-85939941D02*
X176904939Y-85947463D01*
X153000000Y-125234999D02*
X152725060Y-124960059D01*
X176371695Y-85322582D02*
X176435104Y-85344770D01*
X125955061Y-87723223D02*
X128363223Y-85315061D01*
X178375229Y-85777628D02*
X178397417Y-85714219D01*
X177571695Y-85322582D02*
X177635104Y-85344770D01*
X128363223Y-111534939D02*
X125955061Y-109126777D01*
X176774773Y-85917753D02*
X176838182Y-85939941D01*
X125955061Y-109126777D02*
X125955061Y-87723223D01*
X176904939Y-85947463D02*
X176971695Y-85939941D01*
X177438182Y-85322582D02*
X177504939Y-85315061D01*
X177504939Y-85315061D02*
X177571695Y-85322582D01*
X177035104Y-85917753D02*
X177091985Y-85882012D01*
X204244939Y-90263223D02*
X204244939Y-97883223D01*
X176717892Y-85882012D02*
X176774773Y-85917753D01*
X152725060Y-114306776D02*
X149953223Y-111534939D01*
X176971695Y-85939941D02*
X177035104Y-85917753D01*
X177139488Y-85834509D02*
X177175229Y-85777628D01*
X177197417Y-85714219D02*
X177204939Y-85647463D01*
X177204939Y-85647463D02*
X177204939Y-85615061D01*
X177270389Y-85428014D02*
X177317892Y-85380511D01*
X177317892Y-85380511D02*
X177374773Y-85344770D01*
X176575229Y-85484895D02*
X176597417Y-85548304D01*
X177204939Y-85615061D02*
X177212460Y-85548304D01*
X177374773Y-85344770D02*
X177438182Y-85322582D01*
X177797417Y-85548304D02*
X177804939Y-85615061D01*
X177635104Y-85344770D02*
X177691985Y-85380511D01*
X177691985Y-85380511D02*
X177739488Y-85428014D01*
X177775229Y-85484895D02*
X177797417Y-85548304D01*
X177739488Y-85428014D02*
X177775229Y-85484895D01*
X178104939Y-85947463D02*
X178171695Y-85939941D01*
X176304939Y-85315061D02*
X176371695Y-85322582D01*
X177804939Y-85615061D02*
X177804939Y-85647463D01*
X153000000Y-126000000D02*
X153000000Y-125234999D01*
D23*
X153000000Y-128460000D02*
X153000000Y-126250000D01*
D24*
X153000000Y-126250000D02*
X153000000Y-126000000D01*
D28*
X160020000Y-101600000D02*
X160020000Y-106680000D01*
X161064939Y-100555061D02*
X160020000Y-101600000D01*
X162466777Y-100555061D02*
X161064939Y-100555061D01*
X164874939Y-110396777D02*
X164874939Y-102963223D01*
X163736777Y-111534939D02*
X164874939Y-110396777D01*
X158656777Y-111534939D02*
X163736777Y-111534939D01*
X156274940Y-116974940D02*
X156274940Y-113916776D01*
X156209490Y-117161986D02*
X156245231Y-117105105D01*
X156105106Y-117245230D02*
X156161987Y-117209489D01*
X156041697Y-117267418D02*
X156105106Y-117245230D01*
X155974940Y-117274940D02*
X156041697Y-117267418D01*
X155942539Y-117274940D02*
X155974940Y-117274940D01*
X155875783Y-117282461D02*
X155942539Y-117274940D01*
X156267419Y-117041696D02*
X156274940Y-116974940D01*
X156161987Y-117940390D02*
X156105106Y-117904649D01*
X164874939Y-102963223D02*
X162466777Y-100555061D01*
X156267419Y-118108183D02*
X156245231Y-118044774D01*
X156274940Y-118174940D02*
X156267419Y-118108183D01*
X156274940Y-113916776D02*
X158656777Y-111534939D01*
X155755493Y-117809489D02*
X155707990Y-117761986D01*
X156209490Y-117987893D02*
X156161987Y-117940390D01*
X155974940Y-117874940D02*
X155942539Y-117874940D01*
X155707990Y-117761986D02*
X155672249Y-117705105D01*
X155642539Y-117574940D02*
X155650061Y-117508183D01*
X155672249Y-117444774D02*
X155707990Y-117387893D01*
X155812374Y-117304649D02*
X155875783Y-117282461D01*
X156161987Y-117209489D02*
X156209490Y-117161986D01*
X155942539Y-117874940D02*
X155875783Y-117867418D01*
X156245231Y-118044774D02*
X156209490Y-117987893D01*
X155875783Y-117867418D02*
X155812374Y-117845230D01*
X156041697Y-117882461D02*
X155974940Y-117874940D01*
X155812374Y-117845230D02*
X155755493Y-117809489D01*
X156105106Y-117904649D02*
X156041697Y-117882461D01*
X155672249Y-117705105D02*
X155650061Y-117641696D01*
X155650061Y-117641696D02*
X155642539Y-117574940D01*
X156000000Y-125234999D02*
X156274940Y-124960059D01*
X155650061Y-117508183D02*
X155672249Y-117444774D01*
X156245231Y-117105105D02*
X156267419Y-117041696D01*
X155707990Y-117387893D02*
X155755493Y-117340390D01*
X156274940Y-124960059D02*
X156274940Y-118174940D01*
X155755493Y-117340390D02*
X155812374Y-117304649D01*
X156000000Y-126000000D02*
X156000000Y-125234999D01*
D23*
X156000000Y-127000000D02*
X156000000Y-126250000D01*
X156000000Y-128460000D02*
X156000000Y-127000000D01*
D24*
X156000000Y-126250000D02*
X156000000Y-126000000D01*
D28*
X165325061Y-110583223D02*
X165325061Y-102776777D01*
X160020000Y-99060000D02*
X160020000Y-93980000D01*
X161064939Y-100104939D02*
X160020000Y-99060000D01*
X163923223Y-111985061D02*
X165325061Y-110583223D01*
X165325061Y-102776777D02*
X162653223Y-100104939D01*
X157000000Y-125234999D02*
X156725060Y-124960059D01*
X156725060Y-114103224D02*
X158843223Y-111985061D01*
X156725060Y-124960059D02*
X156725060Y-114103224D01*
X162653223Y-100104939D02*
X161064939Y-100104939D01*
X158843223Y-111985061D02*
X163923223Y-111985061D01*
D24*
X157000000Y-126347998D02*
X157000000Y-126000000D01*
D28*
X157000000Y-126000000D02*
X157000000Y-125234999D01*
D23*
X157000000Y-127000000D02*
X157000000Y-126347998D01*
X157000000Y-128460000D02*
X157000000Y-127000000D01*
D28*
X147320000Y-101600000D02*
X147320000Y-106680000D01*
X148364939Y-100555061D02*
X147320000Y-101600000D01*
X153895061Y-97883223D02*
X151223223Y-100555061D01*
X153895061Y-90263223D02*
X153895061Y-97883223D01*
X167414939Y-90263223D02*
X165006777Y-87855061D01*
X167407418Y-95611817D02*
X167414939Y-95545061D01*
X167385230Y-95675226D02*
X167407418Y-95611817D01*
X167301986Y-95779610D02*
X167349489Y-95732107D01*
X167181696Y-95837539D02*
X167245105Y-95815351D01*
X167114939Y-95845061D02*
X167181696Y-95837539D01*
X167082537Y-95845061D02*
X167114939Y-95845061D01*
X151223223Y-100555061D02*
X148364939Y-100555061D01*
X166952372Y-95874770D02*
X167015781Y-95852582D01*
X166895491Y-95910511D02*
X166952372Y-95874770D01*
X166847988Y-95958014D02*
X166895491Y-95910511D01*
X166812247Y-96014895D02*
X166847988Y-95958014D01*
X167349489Y-95732107D02*
X167385230Y-95675226D01*
X166790059Y-96078304D02*
X166812247Y-96014895D01*
X167015781Y-95852582D02*
X167082537Y-95845061D01*
X167349489Y-96558014D02*
X167301986Y-96510511D01*
X167114939Y-96445061D02*
X167082537Y-96445061D01*
X167385230Y-96614895D02*
X167349489Y-96558014D01*
X165006777Y-87855061D02*
X156303223Y-87855061D01*
X160274940Y-124960059D02*
X160274940Y-116266776D01*
X165006777Y-114074939D02*
X167414939Y-111666777D01*
X167407418Y-96678304D02*
X167385230Y-96614895D01*
X156303223Y-87855061D02*
X153895061Y-90263223D01*
X160000000Y-125234999D02*
X160274940Y-124960059D01*
X160274940Y-116266776D02*
X162466777Y-114074939D01*
X167414939Y-96745061D02*
X167407418Y-96678304D01*
X166790059Y-96211817D02*
X166782537Y-96145061D01*
X166782537Y-96145061D02*
X166790059Y-96078304D01*
X166812247Y-96275226D02*
X166790059Y-96211817D01*
X167414939Y-111666777D02*
X167414939Y-96745061D01*
X167245105Y-95815351D02*
X167301986Y-95779610D01*
X167301986Y-96510511D02*
X167245105Y-96474770D01*
X167414939Y-95545061D02*
X167414939Y-90263223D01*
X167082537Y-96445061D02*
X167015781Y-96437539D01*
X167245105Y-96474770D02*
X167181696Y-96452582D01*
X167181696Y-96452582D02*
X167114939Y-96445061D01*
X167015781Y-96437539D02*
X166952372Y-96415351D01*
X166952372Y-96415351D02*
X166895491Y-96379610D01*
X162466777Y-114074939D02*
X165006777Y-114074939D01*
X166895491Y-96379610D02*
X166847988Y-96332107D01*
X166847988Y-96332107D02*
X166812247Y-96275226D01*
X160000000Y-126000000D02*
X160000000Y-125234999D01*
D23*
X160000000Y-128460000D02*
X160000000Y-126250000D01*
D24*
X160000000Y-126250000D02*
X160000000Y-126000000D01*
D28*
X147320000Y-99060000D02*
X147320000Y-93980000D01*
X151036777Y-100104939D02*
X148364939Y-100104939D01*
X148364939Y-100104939D02*
X147320000Y-99060000D01*
X153444939Y-97696777D02*
X151036777Y-100104939D01*
X165193223Y-114525061D02*
X167865061Y-111853223D01*
X160725060Y-116453224D02*
X162653223Y-114525061D01*
X160725060Y-124960059D02*
X160725060Y-116453224D01*
X167865061Y-90076777D02*
X165193223Y-87404939D01*
X165193223Y-87404939D02*
X156116777Y-87404939D01*
X162653223Y-114525061D02*
X165193223Y-114525061D01*
X161000000Y-125234999D02*
X160725060Y-124960059D01*
X167865061Y-111853223D02*
X167865061Y-90076777D01*
X156116777Y-87404939D02*
X153444939Y-90076777D01*
X153444939Y-90076777D02*
X153444939Y-97696777D01*
X161000000Y-126000000D02*
X161000000Y-125234999D01*
D23*
X161000000Y-127000000D02*
X161000000Y-126250000D01*
X161000000Y-128460000D02*
X161000000Y-127000000D01*
D24*
X161000000Y-126250000D02*
X161000000Y-126000000D01*
M02*
