M48
; DRILL file {KiCad 5.1.5} date Thu 19 Mar 2020 03:28:04 PM CET
; FORMAT={-:-/ absolute / inch / decimal}
; #@! TF.CreationDate,2020-03-19T15:28:04+01:00
; #@! TF.GenerationSoftware,Kicad,Pcbnew,5.1.5
; #@! TF.FileFunction,Plated,1,4,PTH
FMAT,2
INCH
T1C0.0079
T2C0.0098
T3C0.0157
T4C0.0394
T5C0.0591
T6C0.0669
%
G90
G05
T1
X7.1024Y-2.8606
X7.1024Y-2.9
X7.1024Y-2.9394
X7.1417Y-2.8606
X7.1417Y-2.9
X7.1417Y-2.9394
X7.1811Y-2.8606
X7.1811Y-2.9
X7.1811Y-2.9394
T2
X4.6375Y-4.6
X4.6625Y-4.625
X4.6625Y-4.6625
X4.7875Y-2.875
X4.8875Y-2.9
X5.2Y-2.875
X5.2125Y-4.7625
X5.2125Y-4.8125
X5.3875Y-4.75
X5.5125Y-4.75
X5.55Y-4.85
X5.575Y-2.875
X5.5875Y-4.8125
X5.5875Y-4.85
X5.7087Y-4.9508
X5.8465Y-4.8917
X5.9252Y-4.8917
X5.9449Y-4.9705
X5.95Y-2.875
X5.9646Y-4.8917
X6.0433Y-4.8917
X6.122Y-4.8917
X6.2008Y-4.8917
X6.2795Y-4.8917
X6.3583Y-4.8917
X6.437Y-4.8917
X6.4961Y-4.9594
X6.5Y-2.875
X6.575Y-2.4
X6.575Y-2.45
X6.6Y-2.475
X6.6Y-2.5125
X6.7625Y-2.375
X6.7875Y-2.5125
X6.825Y-2.5125
X6.9Y-2.8875
X6.9375Y-3.05
X6.9375Y-3.15
X6.9875Y-2.8875
X6.9875Y-2.9625
X7.0375Y-3.0875
X7.0375Y-3.15
X7.05Y-2.55
X7.075Y-2.45
X7.0875Y-2.7375
X7.0875Y-3.1
X7.1115Y-2.7385
X7.112Y-2.713
X7.1375Y-3.0625
X7.1375Y-3.15
X7.175Y-3.0625
X7.1875Y-2.625
X7.1875Y-3.1125
X7.225Y-2.625
X7.225Y-2.7125
X7.225Y-3.15
X7.2566Y-2.625
X7.2625Y-3.075
X7.2625Y-3.1125
X7.3Y-2.6125
X7.3Y-2.9
X7.3Y-3.05
X7.3375Y-3.05
X7.3875Y-2.9
X7.4Y-3.05
X7.4875Y-2.85
X7.5Y-2.7125
X7.5125Y-2.625
X7.525Y-2.5125
X7.5375Y-2.6
X7.55Y-2.5
X7.5625Y-2.35
X7.5875Y-2.425
X7.5875Y-2.5329
X7.5875Y-2.6125
X7.6125Y-2.4625
X7.6125Y-2.65
X7.625Y-2.3125
X7.65Y-2.625
X7.65Y-3.05
X7.6625Y-2.4875
X7.6625Y-2.55
X7.6625Y-2.65
X7.6625Y-2.675
X7.7Y-2.7375
X7.725Y-2.4625
X7.75Y-2.4625
X7.775Y-2.4375
X7.7875Y-2.7625
X7.8Y-2.3875
X7.8125Y-2.7875
X7.825Y-2.4625
X7.8375Y-2.7875
X7.8625Y-2.4375
X7.8625Y-2.75
X7.9Y-2.3875
X7.925Y-2.825
X7.9375Y-2.6375
X7.95Y-2.2875
X7.95Y-2.5
X7.95Y-2.6875
X7.975Y-2.625
X7.975Y-2.6625
X7.975Y-2.775
X7.9816Y-2.575
X8.0Y-2.375
X8.0125Y-2.4125
X8.0125Y-2.5
X8.0125Y-2.7375
X8.025Y-2.6875
X8.275Y-2.425
X8.3Y-2.55
X8.325Y-2.7
T3
X4.5764Y-3.225
X4.7375Y-2.05
X4.7375Y-2.25
X4.8Y-2.05
X4.8Y-2.25
X4.8625Y-2.05
X4.8625Y-2.25
X4.9125Y-2.1125
X4.9125Y-2.1875
X4.95Y-2.1125
X4.95Y-2.1875
X4.9875Y-2.1125
X4.9875Y-2.1875
X5.2Y-2.925
X5.275Y-2.925
X5.3125Y-4.95
X5.4Y-4.8
X5.4125Y-4.7125
X5.4375Y-4.925
X5.575Y-2.925
X5.5875Y-4.7625
X5.65Y-2.925
X5.95Y-2.925
X6.7875Y-2.7625
X6.7875Y-2.9
X6.7875Y-2.95
X8.15Y-2.075
T4
X4.625Y-3.125
X4.7875Y-2.9625
X5.25Y-4.9
X5.5Y-4.9
X8.0Y-2.1875
X8.3375Y-2.0375
X7.15Y-2.35
X7.15Y-2.45
X7.15Y-2.55
X8.1Y-2.4
X8.1Y-2.5
X8.1Y-2.6
X8.2Y-2.4
X8.2Y-2.5
X8.2Y-2.6
X6.7Y-2.75
X6.7Y-2.85
X6.7Y-2.4
X6.7Y-2.5
X6.7Y-2.6
X7.7Y-2.1
X7.7Y-2.2
X7.8Y-2.1
X7.8Y-2.2
X7.9Y-2.1
X7.9Y-2.2
X5.05Y-1.925
X5.05Y-2.025
X5.15Y-1.925
X5.15Y-2.025
X5.25Y-1.925
X5.25Y-2.025
X5.35Y-1.925
X5.35Y-2.025
X5.6Y-1.925
X5.6Y-2.025
X5.7Y-1.925
X5.7Y-2.025
X5.8Y-1.925
X5.8Y-2.025
X5.9Y-1.925
X5.9Y-2.025
X6.0Y-1.925
X6.0Y-2.025
X6.1Y-1.925
X6.1Y-2.025
T5
X5.3Y-3.7
X5.3Y-4.2
X5.8Y-3.7
X5.8Y-4.2
X6.3Y-3.7
X6.3Y-4.2
X6.8Y-3.7
X6.8Y-4.2
X7.3Y-3.7
X7.3Y-4.2
X7.8Y-3.7
X7.8Y-4.2
X8.3Y-3.2
X8.3Y-3.7
X8.3Y-4.2
X8.8Y-3.2
X8.8Y-3.7
X8.8Y-4.2
T6
X5.2Y-3.6
X5.2Y-3.8
X5.2Y-4.1
X5.2Y-4.3
X5.4Y-3.6
X5.4Y-3.8
X5.4Y-4.1
X5.4Y-4.3
X5.7Y-3.6
X5.7Y-3.8
X5.7Y-4.1
X5.7Y-4.3
X5.9Y-3.6
X5.9Y-3.8
X5.9Y-4.1
X5.9Y-4.3
X6.2Y-3.6
X6.2Y-3.8
X6.2Y-4.1
X6.2Y-4.3
X6.4Y-3.6
X6.4Y-3.8
X6.4Y-4.1
X6.4Y-4.3
X6.7Y-3.6
X6.7Y-3.8
X6.7Y-4.1
X6.7Y-4.3
X6.9Y-3.6
X6.9Y-3.8
X6.9Y-4.1
X6.9Y-4.3
X7.2Y-3.6
X7.2Y-3.8
X7.2Y-4.1
X7.2Y-4.3
X7.4Y-3.6
X7.4Y-3.8
X7.4Y-4.1
X7.4Y-4.3
X7.7Y-3.6
X7.7Y-3.8
X7.7Y-4.1
X7.7Y-4.3
X7.9Y-3.6
X7.9Y-3.8
X7.9Y-4.1
X7.9Y-4.3
X8.2Y-3.1
X8.2Y-3.3
X8.2Y-3.6
X8.2Y-3.8
X8.2Y-4.1
X8.2Y-4.3
X8.4Y-3.1
X8.4Y-3.3
X8.4Y-3.6
X8.4Y-3.8
X8.4Y-4.1
X8.4Y-4.3
X8.7Y-3.1
X8.7Y-3.3
X8.7Y-3.6
X8.7Y-3.8
X8.7Y-4.1
X8.7Y-4.3
X8.9Y-3.1
X8.9Y-3.3
X8.9Y-3.6
X8.9Y-3.8
X8.9Y-4.1
X8.9Y-4.3
T0
M30
