  0
SECTION
  2
HEADER
  9
$ANGBASE
  50
0.0
  9
$ANGDIR
  70
1
  9
$MEASUREMENT
  70
0
  0
ENDSEC
  0
SECTION
  2
TABLES
  0
TABLE
  2
LTYPE
  70
4
  0
LTYPE
  5
40F
  2
CONTINUOUS
  70
0
  3
Solid line
  72
65
  73
0
  40
0.0
  0
LTYPE
  5
410
  2
DASHDOT
 70
0
  3
Dash Dot ____ _ ____ _
 72
65
 73
4
 40
2.0
 49
1.25
 49
-0.25
 49
0.25
 49
-0.25
  0
LTYPE
  5
411
  2
DASHED
 70
0
  3
Dashed __ __ __ __ __
 72
65
 73
2
 40
0.75
 49
0.5
 49
-0.25
  0
LTYPE
  5
43B
  2
DOTTED
 70
0
  3
Dotted .  .  .  .
 72
65
 73
2
 40
0.2
 49
0.0
 49
-0.2
  0
ENDTAB
  0
TABLE
  2
STYLE
  70
4
  0
STYLE
  2
KICAD
  70
0
  40
0
  41
1
  42
1
  50
0
  71
0
  3
isocp.shx
  0
STYLE
  2
KICADB
  70
0
  40
0
  41
1
  42
1
  50
0
  71
0
  3
isocp.shx
  0
STYLE
  2
KICADI
  70
0
  40
0
  41
1
  42
1
  50
15
  71
0
  3
isocp.shx
  0
STYLE
  2
KICADBI
  70
0
  40
0
  41
1
  42
1
  50
15
  71
0
  3
isocp.shx
  0
ENDTAB
  0
TABLE
  2
LAYER
  70
1
  0
LAYER
  2
BLACK
  70
0
  62
7
  6
CONTINUOUS
  0
ENDTAB
  0
ENDSEC
  0
SECTION
  2
ENTITIES
0
LINE
8
BLACK
6
CONTINUOUS
10
6.52363
20
-5.17362
11
6.52362
21
-5.17372
0
LINE
8
BLACK
6
CONTINUOUS
10
6.52362
20
-5.17372
11
6.52362
21
-5.17372
0
LINE
8
BLACK
6
CONTINUOUS
10
6.52362
20
-5.17372
11
6.52359
21
-5.17401
0
LINE
8
BLACK
6
CONTINUOUS
10
6.52359
20
-5.17401
11
6.52348
21
-5.17438
0
LINE
8
BLACK
6
CONTINUOUS
10
6.52348
20
-5.17438
11
6.52348
21
-5.17438
0
LINE
8
BLACK
6
CONTINUOUS
10
6.52348
20
-5.17438
11
6.5233
21
-5.17472
0
LINE
8
BLACK
6
CONTINUOUS
10
6.5233
20
-5.17472
11
6.52311
21
-5.17495
0
LINE
8
BLACK
6
CONTINUOUS
10
6.52311
20
-5.17495
11
6.52305
21
-5.17502
0
LINE
8
BLACK
6
CONTINUOUS
10
6.52305
20
-5.17502
11
6.52298
21
-5.17508
0
LINE
8
BLACK
6
CONTINUOUS
10
6.52298
20
-5.17508
11
6.50343
21
-5.19463
0
LINE
8
BLACK
6
CONTINUOUS
10
6.50343
20
-5.19463
11
6.50337
21
-5.19471
0
LINE
8
BLACK
6
CONTINUOUS
10
6.50337
20
-5.19471
11
6.50307
21
-5.19495
0
LINE
8
BLACK
6
CONTINUOUS
10
6.50307
20
-5.19495
11
6.50273
21
-5.19513
0
LINE
8
BLACK
6
CONTINUOUS
10
6.50273
20
-5.19513
11
6.50235
21
-5.19525
0
LINE
8
BLACK
6
CONTINUOUS
10
6.50235
20
-5.19525
11
6.50206
21
-5.19528
0
LINE
8
BLACK
6
CONTINUOUS
10
6.50206
20
-5.19528
11
6.50206
21
-5.19528
0
LINE
8
BLACK
6
CONTINUOUS
10
6.50206
20
-5.19528
11
6.50197
21
-5.19529
0
LINE
8
BLACK
6
CONTINUOUS
10
6.50197
20
-5.19529
11
6.50187
21
-5.19528
0
LINE
8
BLACK
6
CONTINUOUS
10
6.50187
20
-5.19528
11
5.70679
21
-5.19528
0
LINE
8
BLACK
6
CONTINUOUS
10
5.70679
20
-5.19528
11
5.70669
21
-5.19529
0
LINE
8
BLACK
6
CONTINUOUS
10
5.70669
20
-5.19529
11
5.7066
21
-5.19528
0
LINE
8
BLACK
6
CONTINUOUS
10
5.7066
20
-5.19528
11
5.7066
21
-5.19528
0
LINE
8
BLACK
6
CONTINUOUS
10
5.7066
20
-5.19528
11
5.70631
21
-5.19525
0
LINE
8
BLACK
6
CONTINUOUS
10
5.70631
20
-5.19525
11
5.70594
21
-5.19513
0
LINE
8
BLACK
6
CONTINUOUS
10
5.70594
20
-5.19513
11
5.70578
21
-5.19505
0
LINE
8
BLACK
6
CONTINUOUS
10
5.70578
20
-5.19505
11
5.70559
21
-5.19495
0
LINE
8
BLACK
6
CONTINUOUS
10
5.70559
20
-5.19495
11
5.70537
21
-5.19477
0
LINE
8
BLACK
6
CONTINUOUS
10
5.70537
20
-5.19477
11
5.70529
21
-5.19471
0
LINE
8
BLACK
6
CONTINUOUS
10
5.70529
20
-5.19471
11
5.70523
21
-5.19463
0
LINE
8
BLACK
6
CONTINUOUS
10
5.70523
20
-5.19463
11
5.68568
21
-5.17508
0
LINE
8
BLACK
6
CONTINUOUS
10
5.68568
20
-5.17508
11
5.68561
21
-5.17502
0
LINE
8
BLACK
6
CONTINUOUS
10
5.68561
20
-5.17502
11
5.68555
21
-5.17495
0
LINE
8
BLACK
6
CONTINUOUS
10
5.68555
20
-5.17495
11
5.68536
21
-5.17472
0
LINE
8
BLACK
6
CONTINUOUS
10
5.68536
20
-5.17472
11
5.68518
21
-5.17438
0
LINE
8
BLACK
6
CONTINUOUS
10
5.68518
20
-5.17438
11
5.68507
21
-5.17401
0
LINE
8
BLACK
6
CONTINUOUS
10
5.68507
20
-5.17401
11
5.68503
21
-5.17362
0
LINE
8
BLACK
6
CONTINUOUS
10
5.68503
20
-5.17362
11
5.68504
21
-5.17353
0
LINE
8
BLACK
6
CONTINUOUS
10
5.68504
20
-5.17353
11
5.68504
21
-4.90001
0
LINE
8
BLACK
6
CONTINUOUS
10
5.68504
20
-4.90001
11
5.68504
21
-4.89959
0
LINE
8
BLACK
6
CONTINUOUS
10
5.68504
20
-4.89959
11
5.68426
21
-4.89264
0
LINE
8
BLACK
6
CONTINUOUS
10
5.68426
20
-4.89264
11
5.68217
21
-4.88605
0
LINE
8
BLACK
6
CONTINUOUS
10
5.68217
20
-4.88605
11
5.67883
21
-4.87999
0
LINE
8
BLACK
6
CONTINUOUS
10
5.67883
20
-4.87999
11
5.67439
21
-4.87469
0
LINE
8
BLACK
6
CONTINUOUS
10
5.67439
20
-4.87469
11
5.669
21
-4.87036
0
LINE
8
BLACK
6
CONTINUOUS
10
5.669
20
-4.87036
11
5.66288
21
-4.86716
0
LINE
8
BLACK
6
CONTINUOUS
10
5.66288
20
-4.86716
11
5.65624
21
-4.8652
0
LINE
8
BLACK
6
CONTINUOUS
10
5.65624
20
-4.8652
11
5.64936
21
-4.86458
0
LINE
8
BLACK
6
CONTINUOUS
10
5.64936
20
-4.86458
11
5.64248
21
-4.8653
0
LINE
8
BLACK
6
CONTINUOUS
10
5.64248
20
-4.8653
11
5.63588
21
-4.86734
0
LINE
8
BLACK
6
CONTINUOUS
10
5.63588
20
-4.86734
11
5.6298
21
-4.87063
0
LINE
8
BLACK
6
CONTINUOUS
10
5.6298
20
-4.87063
11
5.62447
21
-4.87504
0
LINE
8
BLACK
6
CONTINUOUS
10
5.62447
20
-4.87504
11
5.6201
21
-4.8804
0
LINE
8
BLACK
6
CONTINUOUS
10
5.6201
20
-4.8804
11
5.61686
21
-4.8865
0
LINE
8
BLACK
6
CONTINUOUS
10
5.61686
20
-4.8865
11
5.61486
21
-4.89312
0
LINE
8
BLACK
6
CONTINUOUS
10
5.61486
20
-4.89312
11
5.61417
21
-4.9001
0
LINE
8
BLACK
6
CONTINUOUS
10
5.61417
20
-4.9001
11
5.61417
21
-5.17353
0
LINE
8
BLACK
6
CONTINUOUS
10
5.61417
20
-5.17353
11
5.61418
21
-5.17362
0
LINE
8
BLACK
6
CONTINUOUS
10
5.61418
20
-5.17362
11
5.61417
21
-5.17372
0
LINE
8
BLACK
6
CONTINUOUS
10
5.61417
20
-5.17372
11
5.61417
21
-5.17372
0
LINE
8
BLACK
6
CONTINUOUS
10
5.61417
20
-5.17372
11
5.61414
21
-5.17401
0
LINE
8
BLACK
6
CONTINUOUS
10
5.61414
20
-5.17401
11
5.61403
21
-5.17438
0
LINE
8
BLACK
6
CONTINUOUS
10
5.61403
20
-5.17438
11
5.61403
21
-5.17438
0
LINE
8
BLACK
6
CONTINUOUS
10
5.61403
20
-5.17438
11
5.61385
21
-5.17472
0
LINE
8
BLACK
6
CONTINUOUS
10
5.61385
20
-5.17472
11
5.61366
21
-5.17495
0
LINE
8
BLACK
6
CONTINUOUS
10
5.61366
20
-5.17495
11
5.6136
21
-5.17502
0
LINE
8
BLACK
6
CONTINUOUS
10
5.6136
20
-5.17502
11
5.61353
21
-5.17508
0
LINE
8
BLACK
6
CONTINUOUS
10
5.61353
20
-5.17508
11
5.59398
21
-5.19463
0
LINE
8
BLACK
6
CONTINUOUS
10
5.59398
20
-5.19463
11
5.59392
21
-5.19471
0
LINE
8
BLACK
6
CONTINUOUS
10
5.59392
20
-5.19471
11
5.59362
21
-5.19495
0
LINE
8
BLACK
6
CONTINUOUS
10
5.59362
20
-5.19495
11
5.59328
21
-5.19513
0
LINE
8
BLACK
6
CONTINUOUS
10
5.59328
20
-5.19513
11
5.59291
21
-5.19525
0
LINE
8
BLACK
6
CONTINUOUS
10
5.59291
20
-5.19525
11
5.59262
21
-5.19528
0
LINE
8
BLACK
6
CONTINUOUS
10
5.59262
20
-5.19528
11
5.59262
21
-5.19528
0
LINE
8
BLACK
6
CONTINUOUS
10
5.59262
20
-5.19528
11
5.59252
21
-5.19529
0
LINE
8
BLACK
6
CONTINUOUS
10
5.59252
20
-5.19529
11
5.59242
21
-5.19528
0
LINE
8
BLACK
6
CONTINUOUS
10
5.59242
20
-5.19528
11
5.19104
21
-5.19528
0
LINE
8
BLACK
6
CONTINUOUS
10
5.19104
20
-5.19528
11
5.19094
21
-5.19529
0
LINE
8
BLACK
6
CONTINUOUS
10
5.19094
20
-5.19529
11
5.19085
21
-5.19528
0
LINE
8
BLACK
6
CONTINUOUS
10
5.19085
20
-5.19528
11
5.19085
21
-5.19528
0
LINE
8
BLACK
6
CONTINUOUS
10
5.19085
20
-5.19528
11
5.19056
21
-5.19525
0
LINE
8
BLACK
6
CONTINUOUS
10
5.19056
20
-5.19525
11
5.19019
21
-5.19513
0
LINE
8
BLACK
6
CONTINUOUS
10
5.19019
20
-5.19513
11
5.19003
21
-5.19505
0
LINE
8
BLACK
6
CONTINUOUS
10
5.19003
20
-5.19505
11
5.18985
21
-5.19495
0
LINE
8
BLACK
6
CONTINUOUS
10
5.18985
20
-5.19495
11
5.18962
21
-5.19477
0
LINE
8
BLACK
6
CONTINUOUS
10
5.18962
20
-5.19477
11
5.18955
21
-5.19471
0
LINE
8
BLACK
6
CONTINUOUS
10
5.18955
20
-5.19471
11
5.18948
21
-5.19463
0
LINE
8
BLACK
6
CONTINUOUS
10
5.18948
20
-5.19463
11
5.16994
21
-5.17508
0
LINE
8
BLACK
6
CONTINUOUS
10
5.16994
20
-5.17508
11
5.16986
21
-5.17502
0
LINE
8
BLACK
6
CONTINUOUS
10
5.16986
20
-5.17502
11
5.1698
21
-5.17495
0
LINE
8
BLACK
6
CONTINUOUS
10
5.1698
20
-5.17495
11
5.16962
21
-5.17472
0
LINE
8
BLACK
6
CONTINUOUS
10
5.16962
20
-5.17472
11
5.16943
21
-5.17438
0
LINE
8
BLACK
6
CONTINUOUS
10
5.16943
20
-5.17438
11
5.16932
21
-5.17401
0
LINE
8
BLACK
6
CONTINUOUS
10
5.16932
20
-5.17401
11
5.16928
21
-5.17362
0
LINE
8
BLACK
6
CONTINUOUS
10
5.16928
20
-5.17362
11
5.16929
21
-5.17353
0
LINE
8
BLACK
6
CONTINUOUS
10
5.16929
20
-5.17353
11
5.16929
21
-4.8625
0
LINE
8
BLACK
6
CONTINUOUS
10
5.16929
20
-4.8625
11
5.16929
21
-4.8625
0
LINE
8
BLACK
6
CONTINUOUS
10
5.16929
20
-4.8625
11
5.16929
21
-4.76281
0
LINE
8
BLACK
6
CONTINUOUS
10
5.16929
20
-4.76281
11
5.16929
21
-4.76191
0
LINE
8
BLACK
6
CONTINUOUS
10
5.16929
20
-4.76191
11
5.16776
21
-4.74827
0
LINE
8
BLACK
6
CONTINUOUS
10
5.16776
20
-4.74827
11
5.16363
21
-4.73527
0
LINE
8
BLACK
6
CONTINUOUS
10
5.16363
20
-4.73527
11
5.15706
21
-4.72332
0
LINE
8
BLACK
6
CONTINUOUS
10
5.15706
20
-4.72332
11
5.1483
21
-4.71287
0
LINE
8
BLACK
6
CONTINUOUS
10
5.1483
20
-4.71287
11
5.13767
21
-4.70433
0
LINE
8
BLACK
6
CONTINUOUS
10
5.13767
20
-4.70433
11
5.12558
21
-4.69801
0
LINE
8
BLACK
6
CONTINUOUS
10
5.12558
20
-4.69801
11
5.1125
21
-4.69416
0
LINE
8
BLACK
6
CONTINUOUS
10
5.1125
20
-4.69416
11
5.09892
21
-4.69292
0
LINE
8
BLACK
6
CONTINUOUS
10
5.09892
20
-4.69292
11
5.08536
21
-4.69435
0
LINE
8
BLACK
6
CONTINUOUS
10
5.08536
20
-4.69435
11
5.07233
21
-4.69838
0
LINE
8
BLACK
6
CONTINUOUS
10
5.07233
20
-4.69838
11
5.06034
21
-4.70487
0
LINE
8
BLACK
6
CONTINUOUS
10
5.06034
20
-4.70487
11
5.04983
21
-4.71356
0
LINE
8
BLACK
6
CONTINUOUS
10
5.04983
20
-4.71356
11
5.04121
21
-4.72413
0
LINE
8
BLACK
6
CONTINUOUS
10
5.04121
20
-4.72413
11
5.03481
21
-4.73617
0
LINE
8
BLACK
6
CONTINUOUS
10
5.03481
20
-4.73617
11
5.03087
21
-4.74922
0
LINE
8
BLACK
6
CONTINUOUS
10
5.03087
20
-4.74922
11
5.02953
21
-4.76289
0
LINE
8
BLACK
6
CONTINUOUS
10
5.02953
20
-4.76289
11
5.02953
21
-5.01565
0
LINE
8
BLACK
6
CONTINUOUS
10
5.02953
20
-5.01565
11
5.02954
21
-5.01575
0
LINE
8
BLACK
6
CONTINUOUS
10
5.02954
20
-5.01575
11
5.02953
21
-5.01584
0
LINE
8
BLACK
6
CONTINUOUS
10
5.02953
20
-5.01584
11
5.02953
21
-5.01584
0
LINE
8
BLACK
6
CONTINUOUS
10
5.02953
20
-5.01584
11
5.0295
21
-5.01613
0
LINE
8
BLACK
6
CONTINUOUS
10
5.0295
20
-5.01613
11
5.02939
21
-5.0165
0
LINE
8
BLACK
6
CONTINUOUS
10
5.02939
20
-5.0165
11
5.0292
21
-5.01685
0
LINE
8
BLACK
6
CONTINUOUS
10
5.0292
20
-5.01685
11
5.02896
21
-5.01715
0
LINE
8
BLACK
6
CONTINUOUS
10
5.02896
20
-5.01715
11
5.02866
21
-5.01739
0
LINE
8
BLACK
6
CONTINUOUS
10
5.02866
20
-5.01739
11
5.02832
21
-5.01758
0
LINE
8
BLACK
6
CONTINUOUS
10
5.02832
20
-5.01758
11
5.02794
21
-5.01769
0
LINE
8
BLACK
6
CONTINUOUS
10
5.02794
20
-5.01769
11
5.02756
21
-5.01773
0
LINE
8
BLACK
6
CONTINUOUS
10
5.02756
20
-5.01773
11
5.02746
21
-5.01772
0
LINE
8
BLACK
6
CONTINUOUS
10
5.02746
20
-5.01772
11
4.71269
21
-5.01772
0
LINE
8
BLACK
6
CONTINUOUS
10
4.71269
20
-5.01772
11
4.7126
21
-5.01773
0
LINE
8
BLACK
6
CONTINUOUS
10
4.7126
20
-5.01773
11
4.71221
21
-5.01769
0
LINE
8
BLACK
6
CONTINUOUS
10
4.71221
20
-5.01769
11
4.71184
21
-5.01758
0
LINE
8
BLACK
6
CONTINUOUS
10
4.71184
20
-5.01758
11
4.7115
21
-5.01739
0
LINE
8
BLACK
6
CONTINUOUS
10
4.7115
20
-5.01739
11
4.7112
21
-5.01715
0
LINE
8
BLACK
6
CONTINUOUS
10
4.7112
20
-5.01715
11
4.71095
21
-5.01685
0
LINE
8
BLACK
6
CONTINUOUS
10
4.71095
20
-5.01685
11
4.71077
21
-5.0165
0
LINE
8
BLACK
6
CONTINUOUS
10
4.71077
20
-5.0165
11
4.71066
21
-5.01613
0
LINE
8
BLACK
6
CONTINUOUS
10
4.71066
20
-5.01613
11
4.71062
21
-5.01575
0
LINE
8
BLACK
6
CONTINUOUS
10
4.71062
20
-5.01575
11
4.71063
21
-5.01565
0
LINE
8
BLACK
6
CONTINUOUS
10
4.71063
20
-5.01565
11
4.71063
21
-4.69291
0
LINE
8
BLACK
6
CONTINUOUS
10
4.71063
20
-4.69291
11
4.55521
21
-4.69291
0
LINE
8
BLACK
6
CONTINUOUS
10
4.55521
20
-4.69291
11
4.55512
21
-4.69292
0
LINE
8
BLACK
6
CONTINUOUS
10
4.55512
20
-4.69292
11
4.55496
21
-4.69291
0
LINE
8
BLACK
6
CONTINUOUS
10
4.55496
20
-4.69291
11
4.55473
21
-4.69288
0
LINE
8
BLACK
6
CONTINUOUS
10
4.55473
20
-4.69288
11
4.55436
21
-4.69277
0
LINE
8
BLACK
6
CONTINUOUS
10
4.55436
20
-4.69277
11
4.55402
21
-4.69259
0
LINE
8
BLACK
6
CONTINUOUS
10
4.55402
20
-4.69259
11
4.55372
21
-4.69234
0
LINE
8
BLACK
6
CONTINUOUS
10
4.55372
20
-4.69234
11
4.55347
21
-4.69204
0
LINE
8
BLACK
6
CONTINUOUS
10
4.55347
20
-4.69204
11
4.55329
21
-4.6917
0
LINE
8
BLACK
6
CONTINUOUS
10
4.55329
20
-4.6917
11
4.55318
21
-4.69133
0
LINE
8
BLACK
6
CONTINUOUS
10
4.55318
20
-4.69133
11
4.55314
21
-4.69094
0
LINE
8
BLACK
6
CONTINUOUS
10
4.55314
20
-4.69094
11
4.55315
21
-4.69085
0
LINE
8
BLACK
6
CONTINUOUS
10
4.55315
20
-4.69085
11
4.55315
21
-3.0375
0
LINE
8
BLACK
6
CONTINUOUS
10
4.55315
20
-3.0375
11
4.55315
21
-3.0375
0
LINE
8
BLACK
6
CONTINUOUS
10
4.55315
20
-3.0375
11
4.55315
21
-3.03553
0
LINE
8
BLACK
6
CONTINUOUS
10
4.55315
20
-3.03553
11
4.55314
21
-3.03543
0
LINE
8
BLACK
6
CONTINUOUS
10
4.55314
20
-3.03543
11
4.55315
21
-3.03534
0
LINE
8
BLACK
6
CONTINUOUS
10
4.55315
20
-3.03534
11
4.55318
21
-3.03505
0
LINE
8
BLACK
6
CONTINUOUS
10
4.55318
20
-3.03505
11
4.55329
21
-3.03468
0
LINE
8
BLACK
6
CONTINUOUS
10
4.55329
20
-3.03468
11
4.55338
21
-3.03452
0
LINE
8
BLACK
6
CONTINUOUS
10
4.55338
20
-3.03452
11
4.55347
21
-3.03433
0
LINE
8
BLACK
6
CONTINUOUS
10
4.55347
20
-3.03433
11
4.55358
21
-3.0342
0
LINE
8
BLACK
6
CONTINUOUS
10
4.55358
20
-3.0342
11
4.55372
21
-3.03403
0
LINE
8
BLACK
6
CONTINUOUS
10
4.55372
20
-3.03403
11
4.55379
21
-3.03397
0
LINE
8
BLACK
6
CONTINUOUS
10
4.55379
20
-3.03397
11
4.74854
21
-2.83923
0
LINE
8
BLACK
6
CONTINUOUS
10
4.74854
20
-2.83923
11
4.7486
21
-2.83915
0
LINE
8
BLACK
6
CONTINUOUS
10
4.7486
20
-2.83915
11
4.74868
21
-2.83909
0
LINE
8
BLACK
6
CONTINUOUS
10
4.74868
20
-2.83909
11
4.7489
21
-2.83891
0
LINE
8
BLACK
6
CONTINUOUS
10
4.7489
20
-2.83891
11
4.74924
21
-2.83872
0
LINE
8
BLACK
6
CONTINUOUS
10
4.74924
20
-2.83872
11
4.74924
21
-2.83872
0
LINE
8
BLACK
6
CONTINUOUS
10
4.74924
20
-2.83872
11
4.74961
21
-2.83861
0
LINE
8
BLACK
6
CONTINUOUS
10
4.74961
20
-2.83861
11
4.7499
21
-2.83858
0
LINE
8
BLACK
6
CONTINUOUS
10
4.7499
20
-2.83858
11
4.7499
21
-2.83858
0
LINE
8
BLACK
6
CONTINUOUS
10
4.7499
20
-2.83858
11
4.75
21
-2.83857
0
LINE
8
BLACK
6
CONTINUOUS
10
4.75
20
-2.83857
11
4.7501
21
-2.83858
0
LINE
8
BLACK
6
CONTINUOUS
10
4.7501
20
-2.83858
11
6.40354
21
-2.83858
0
LINE
8
BLACK
6
CONTINUOUS
10
6.40354
20
-2.83858
11
6.40399
21
-2.83858
0
LINE
8
BLACK
6
CONTINUOUS
10
6.40399
20
-2.83858
11
6.41898
21
-2.83701
0
LINE
8
BLACK
6
CONTINUOUS
10
6.41898
20
-2.83701
11
6.43329
21
-2.83258
0
LINE
8
BLACK
6
CONTINUOUS
10
6.43329
20
-2.83258
11
6.44647
21
-2.82545
0
LINE
8
BLACK
6
CONTINUOUS
10
6.44647
20
-2.82545
11
6.45801
21
-2.8159
0
LINE
8
BLACK
6
CONTINUOUS
10
6.45801
20
-2.8159
11
6.46748
21
-2.80429
0
LINE
8
BLACK
6
CONTINUOUS
10
6.46748
20
-2.80429
11
6.47451
21
-2.79106
0
LINE
8
BLACK
6
CONTINUOUS
10
6.47451
20
-2.79106
11
6.47884
21
-2.77672
0
LINE
8
BLACK
6
CONTINUOUS
10
6.47884
20
-2.77672
11
6.48032
21
-2.76171
0
LINE
8
BLACK
6
CONTINUOUS
10
6.48032
20
-2.76171
11
6.48031
21
-2.40749
0
LINE
8
BLACK
6
CONTINUOUS
10
6.48031
20
-2.40749
11
6.48031
21
-2.40704
0
LINE
8
BLACK
6
CONTINUOUS
10
6.48031
20
-2.40704
11
6.47874
21
-2.39205
0
LINE
8
BLACK
6
CONTINUOUS
10
6.47874
20
-2.39205
11
6.47431
21
-2.37773
0
LINE
8
BLACK
6
CONTINUOUS
10
6.47431
20
-2.37773
11
6.46718
21
-2.36456
0
LINE
8
BLACK
6
CONTINUOUS
10
6.46718
20
-2.36456
11
6.45763
21
-2.35301
0
LINE
8
BLACK
6
CONTINUOUS
10
6.45763
20
-2.35301
11
6.44602
21
-2.34354
0
LINE
8
BLACK
6
CONTINUOUS
10
6.44602
20
-2.34354
11
6.4328
21
-2.33651
0
LINE
8
BLACK
6
CONTINUOUS
10
6.4328
20
-2.33651
11
6.41845
21
-2.33218
0
LINE
8
BLACK
6
CONTINUOUS
10
6.41845
20
-2.33218
11
6.40345
21
-2.33071
0
LINE
8
BLACK
6
CONTINUOUS
10
6.40345
20
-2.33071
11
4.7499
21
-2.33071
0
LINE
8
BLACK
6
CONTINUOUS
10
4.7499
20
-2.33071
11
4.74981
21
-2.3307
0
LINE
8
BLACK
6
CONTINUOUS
10
4.74981
20
-2.3307
11
4.74981
21
-2.3307
0
LINE
8
BLACK
6
CONTINUOUS
10
4.74981
20
-2.3307
11
4.74216
21
-2.32995
0
LINE
8
BLACK
6
CONTINUOUS
10
4.74216
20
-2.32995
11
4.74216
21
-2.32995
0
LINE
8
BLACK
6
CONTINUOUS
10
4.74216
20
-2.32995
11
4.74216
21
-2.32995
0
LINE
8
BLACK
6
CONTINUOUS
10
4.74216
20
-2.32995
11
4.74213
21
-2.32995
0
LINE
8
BLACK
6
CONTINUOUS
10
4.74213
20
-2.32995
11
4.74196
21
-2.32991
0
LINE
8
BLACK
6
CONTINUOUS
10
4.74196
20
-2.32991
11
4.74178
21
-2.32987
0
LINE
8
BLACK
6
CONTINUOUS
10
4.74178
20
-2.32987
11
4.73443
21
-2.32765
0
LINE
8
BLACK
6
CONTINUOUS
10
4.73443
20
-2.32765
11
4.73443
21
-2.32765
0
LINE
8
BLACK
6
CONTINUOUS
10
4.73443
20
-2.32765
11
4.73443
21
-2.32765
0
LINE
8
BLACK
6
CONTINUOUS
10
4.73443
20
-2.32765
11
4.7344
21
-2.32765
0
LINE
8
BLACK
6
CONTINUOUS
10
4.7344
20
-2.32765
11
4.73424
21
-2.32758
0
LINE
8
BLACK
6
CONTINUOUS
10
4.73424
20
-2.32758
11
4.73407
21
-2.32751
0
LINE
8
BLACK
6
CONTINUOUS
10
4.73407
20
-2.32751
11
4.72729
21
-2.3239
0
LINE
8
BLACK
6
CONTINUOUS
10
4.72729
20
-2.3239
11
4.72729
21
-2.3239
0
LINE
8
BLACK
6
CONTINUOUS
10
4.72729
20
-2.3239
11
4.72726
21
-2.32389
0
LINE
8
BLACK
6
CONTINUOUS
10
4.72726
20
-2.32389
11
4.72712
21
-2.32379
0
LINE
8
BLACK
6
CONTINUOUS
10
4.72712
20
-2.32379
11
4.72697
21
-2.32369
0
LINE
8
BLACK
6
CONTINUOUS
10
4.72697
20
-2.32369
11
4.72101
21
-2.31883
0
LINE
8
BLACK
6
CONTINUOUS
10
4.72101
20
-2.31883
11
4.72101
21
-2.31883
0
LINE
8
BLACK
6
CONTINUOUS
10
4.72101
20
-2.31883
11
4.72101
21
-2.31883
0
LINE
8
BLACK
6
CONTINUOUS
10
4.72101
20
-2.31883
11
4.72099
21
-2.31881
0
LINE
8
BLACK
6
CONTINUOUS
10
4.72099
20
-2.31881
11
4.72087
21
-2.31869
0
LINE
8
BLACK
6
CONTINUOUS
10
4.72087
20
-2.31869
11
4.72074
21
-2.31856
0
LINE
8
BLACK
6
CONTINUOUS
10
4.72074
20
-2.31856
11
4.71584
21
-2.31264
0
LINE
8
BLACK
6
CONTINUOUS
10
4.71584
20
-2.31264
11
4.71583
21
-2.31262
0
LINE
8
BLACK
6
CONTINUOUS
10
4.71583
20
-2.31262
11
4.71573
21
-2.31247
0
LINE
8
BLACK
6
CONTINUOUS
10
4.71573
20
-2.31247
11
4.71563
21
-2.31232
0
LINE
8
BLACK
6
CONTINUOUS
10
4.71563
20
-2.31232
11
4.71197
21
-2.30556
0
LINE
8
BLACK
6
CONTINUOUS
10
4.71197
20
-2.30556
11
4.71197
21
-2.30556
0
LINE
8
BLACK
6
CONTINUOUS
10
4.71197
20
-2.30556
11
4.71197
21
-2.30556
0
LINE
8
BLACK
6
CONTINUOUS
10
4.71197
20
-2.30556
11
4.71196
21
-2.30554
0
LINE
8
BLACK
6
CONTINUOUS
10
4.71196
20
-2.30554
11
4.7119
21
-2.30537
0
LINE
8
BLACK
6
CONTINUOUS
10
4.7119
20
-2.30537
11
4.71183
21
-2.30521
0
LINE
8
BLACK
6
CONTINUOUS
10
4.71183
20
-2.30521
11
4.70955
21
-2.29787
0
LINE
8
BLACK
6
CONTINUOUS
10
4.70955
20
-2.29787
11
4.70955
21
-2.29784
0
LINE
8
BLACK
6
CONTINUOUS
10
4.70955
20
-2.29784
11
4.70951
21
-2.29767
0
LINE
8
BLACK
6
CONTINUOUS
10
4.70951
20
-2.29767
11
4.70948
21
-2.29749
0
LINE
8
BLACK
6
CONTINUOUS
10
4.70948
20
-2.29749
11
4.70867
21
-2.28985
0
LINE
8
BLACK
6
CONTINUOUS
10
4.70867
20
-2.28985
11
4.70867
21
-2.28982
0
LINE
8
BLACK
6
CONTINUOUS
10
4.70867
20
-2.28982
11
4.70867
21
-2.28974
0
LINE
8
BLACK
6
CONTINUOUS
10
4.70867
20
-2.28974
11
4.70866
21
-2.28965
0
LINE
8
BLACK
6
CONTINUOUS
10
4.70866
20
-2.28965
11
4.70866
21
-2.28947
0
LINE
8
BLACK
6
CONTINUOUS
10
4.70866
20
-2.28947
11
4.70866
21
-2.28947
0
LINE
8
BLACK
6
CONTINUOUS
10
4.70866
20
-2.28947
11
4.70866
21
-1.89557
0
LINE
8
BLACK
6
CONTINUOUS
10
4.70866
20
-1.89557
11
4.70867
21
-1.89548
0
LINE
8
BLACK
6
CONTINUOUS
10
4.70867
20
-1.89548
11
4.70867
21
-1.89548
0
LINE
8
BLACK
6
CONTINUOUS
10
4.70867
20
-1.89548
11
4.70942
21
-1.88782
0
LINE
8
BLACK
6
CONTINUOUS
10
4.70942
20
-1.88782
11
4.70942
21
-1.88782
0
LINE
8
BLACK
6
CONTINUOUS
10
4.70942
20
-1.88782
11
4.70942
21
-1.88782
0
LINE
8
BLACK
6
CONTINUOUS
10
4.70942
20
-1.88782
11
4.70942
21
-1.88779
0
LINE
8
BLACK
6
CONTINUOUS
10
4.70942
20
-1.88779
11
4.70946
21
-1.88762
0
LINE
8
BLACK
6
CONTINUOUS
10
4.70946
20
-1.88762
11
4.7095
21
-1.88744
0
LINE
8
BLACK
6
CONTINUOUS
10
4.7095
20
-1.88744
11
4.71172
21
-1.88008
0
LINE
8
BLACK
6
CONTINUOUS
10
4.71172
20
-1.88008
11
4.71173
21
-1.88005
0
LINE
8
BLACK
6
CONTINUOUS
10
4.71173
20
-1.88005
11
4.7118
21
-1.87989
0
LINE
8
BLACK
6
CONTINUOUS
10
4.7118
20
-1.87989
11
4.71187
21
-1.87972
0
LINE
8
BLACK
6
CONTINUOUS
10
4.71187
20
-1.87972
11
4.71548
21
-1.87293
0
LINE
8
BLACK
6
CONTINUOUS
10
4.71548
20
-1.87293
11
4.71548
21
-1.87293
0
LINE
8
BLACK
6
CONTINUOUS
10
4.71548
20
-1.87293
11
4.71548
21
-1.87293
0
LINE
8
BLACK
6
CONTINUOUS
10
4.71548
20
-1.87293
11
4.71549
21
-1.87291
0
LINE
8
BLACK
6
CONTINUOUS
10
4.71549
20
-1.87291
11
4.71559
21
-1.87276
0
LINE
8
BLACK
6
CONTINUOUS
10
4.71559
20
-1.87276
11
4.71569
21
-1.87261
0
LINE
8
BLACK
6
CONTINUOUS
10
4.71569
20
-1.87261
11
4.72055
21
-1.86665
0
LINE
8
BLACK
6
CONTINUOUS
10
4.72055
20
-1.86665
11
4.72055
21
-1.86665
0
LINE
8
BLACK
6
CONTINUOUS
10
4.72055
20
-1.86665
11
4.72055
21
-1.86665
0
LINE
8
BLACK
6
CONTINUOUS
10
4.72055
20
-1.86665
11
4.72057
21
-1.86663
0
LINE
8
BLACK
6
CONTINUOUS
10
4.72057
20
-1.86663
11
4.7207
21
-1.8665
0
LINE
8
BLACK
6
CONTINUOUS
10
4.7207
20
-1.8665
11
4.72082
21
-1.86638
0
LINE
8
BLACK
6
CONTINUOUS
10
4.72082
20
-1.86638
11
4.72675
21
-1.86147
0
LINE
8
BLACK
6
CONTINUOUS
10
4.72675
20
-1.86147
11
4.72675
21
-1.86147
0
LINE
8
BLACK
6
CONTINUOUS
10
4.72675
20
-1.86147
11
4.72675
21
-1.86147
0
LINE
8
BLACK
6
CONTINUOUS
10
4.72675
20
-1.86147
11
4.72677
21
-1.86146
0
LINE
8
BLACK
6
CONTINUOUS
10
4.72677
20
-1.86146
11
4.72692
21
-1.86136
0
LINE
8
BLACK
6
CONTINUOUS
10
4.72692
20
-1.86136
11
4.72707
21
-1.86126
0
LINE
8
BLACK
6
CONTINUOUS
10
4.72707
20
-1.86126
11
4.73384
21
-1.8576
0
LINE
8
BLACK
6
CONTINUOUS
10
4.73384
20
-1.8576
11
4.73384
21
-1.8576
0
LINE
8
BLACK
6
CONTINUOUS
10
4.73384
20
-1.8576
11
4.73384
21
-1.8576
0
LINE
8
BLACK
6
CONTINUOUS
10
4.73384
20
-1.8576
11
4.73386
21
-1.85759
0
LINE
8
BLACK
6
CONTINUOUS
10
4.73386
20
-1.85759
11
4.73403
21
-1.85752
0
LINE
8
BLACK
6
CONTINUOUS
10
4.73403
20
-1.85752
11
4.73419
21
-1.85745
0
LINE
8
BLACK
6
CONTINUOUS
10
4.73419
20
-1.85745
11
4.74154
21
-1.85517
0
LINE
8
BLACK
6
CONTINUOUS
10
4.74154
20
-1.85517
11
4.74154
21
-1.85517
0
LINE
8
BLACK
6
CONTINUOUS
10
4.74154
20
-1.85517
11
4.74157
21
-1.85517
0
LINE
8
BLACK
6
CONTINUOUS
10
4.74157
20
-1.85517
11
4.74174
21
-1.85513
0
LINE
8
BLACK
6
CONTINUOUS
10
4.74174
20
-1.85513
11
4.74192
21
-1.8551
0
LINE
8
BLACK
6
CONTINUOUS
10
4.74192
20
-1.8551
11
4.74957
21
-1.85429
0
LINE
8
BLACK
6
CONTINUOUS
10
4.74957
20
-1.85429
11
4.7496
21
-1.85429
0
LINE
8
BLACK
6
CONTINUOUS
10
4.7496
20
-1.85429
11
4.74968
21
-1.85429
0
LINE
8
BLACK
6
CONTINUOUS
10
4.74968
20
-1.85429
11
4.74977
21
-1.85428
0
LINE
8
BLACK
6
CONTINUOUS
10
4.74977
20
-1.85428
11
4.75004
21
-1.85428
0
LINE
8
BLACK
6
CONTINUOUS
10
4.75004
20
-1.85428
11
4.75007
21
-1.85428
0
LINE
8
BLACK
6
CONTINUOUS
10
4.75007
20
-1.85428
11
4.75045
21
-1.85432
0
LINE
8
BLACK
6
CONTINUOUS
10
4.75045
20
-1.85432
11
4.75048
21
-1.85433
0
LINE
8
BLACK
6
CONTINUOUS
10
4.75048
20
-1.85433
11
6.24597
21
-1.85433
0
LINE
8
BLACK
6
CONTINUOUS
10
6.24597
20
-1.85433
11
6.24606
21
-1.85432
0
LINE
8
BLACK
6
CONTINUOUS
10
6.24606
20
-1.85432
11
6.24616
21
-1.85433
0
LINE
8
BLACK
6
CONTINUOUS
10
6.24616
20
-1.85433
11
6.24645
21
-1.85436
0
LINE
8
BLACK
6
CONTINUOUS
10
6.24645
20
-1.85436
11
6.24682
21
-1.85447
0
LINE
8
BLACK
6
CONTINUOUS
10
6.24682
20
-1.85447
11
6.24716
21
-1.85465
0
LINE
8
BLACK
6
CONTINUOUS
10
6.24716
20
-1.85465
11
6.24746
21
-1.8549
0
LINE
8
BLACK
6
CONTINUOUS
10
6.24746
20
-1.8549
11
6.24771
21
-1.8552
0
LINE
8
BLACK
6
CONTINUOUS
10
6.24771
20
-1.8552
11
6.24789
21
-1.85554
0
LINE
8
BLACK
6
CONTINUOUS
10
6.24789
20
-1.85554
11
6.248
21
-1.85591
0
LINE
8
BLACK
6
CONTINUOUS
10
6.248
20
-1.85591
11
6.24804
21
-1.8563
0
LINE
8
BLACK
6
CONTINUOUS
10
6.24804
20
-1.8563
11
6.24803
21
-1.8564
0
LINE
8
BLACK
6
CONTINUOUS
10
6.24803
20
-1.8564
11
6.24803
21
-2.01377
0
LINE
8
BLACK
6
CONTINUOUS
10
6.24803
20
-2.01377
11
6.24803
21
-2.01422
0
LINE
8
BLACK
6
CONTINUOUS
10
6.24803
20
-2.01422
11
6.24961
21
-2.02921
0
LINE
8
BLACK
6
CONTINUOUS
10
6.24961
20
-2.02921
11
6.25404
21
-2.04353
0
LINE
8
BLACK
6
CONTINUOUS
10
6.25404
20
-2.04353
11
6.26116
21
-2.0567
0
LINE
8
BLACK
6
CONTINUOUS
10
6.26116
20
-2.0567
11
6.27071
21
-2.06825
0
LINE
8
BLACK
6
CONTINUOUS
10
6.27071
20
-2.06825
11
6.28232
21
-2.07772
0
LINE
8
BLACK
6
CONTINUOUS
10
6.28232
20
-2.07772
11
6.29555
21
-2.08475
0
LINE
8
BLACK
6
CONTINUOUS
10
6.29555
20
-2.08475
11
6.30989
21
-2.08908
0
LINE
8
BLACK
6
CONTINUOUS
10
6.30989
20
-2.08908
11
6.3249
21
-2.09055
0
LINE
8
BLACK
6
CONTINUOUS
10
6.3249
20
-2.09055
11
6.95391
21
-2.09055
0
LINE
8
BLACK
6
CONTINUOUS
10
6.95391
20
-2.09055
11
7.22885
21
-1.81561
0
LINE
8
BLACK
6
CONTINUOUS
10
7.22885
20
-1.81561
11
7.22892
21
-1.81553
0
LINE
8
BLACK
6
CONTINUOUS
10
7.22892
20
-1.81553
11
7.22899
21
-1.81547
0
LINE
8
BLACK
6
CONTINUOUS
10
7.22899
20
-1.81547
11
7.22922
21
-1.81528
0
LINE
8
BLACK
6
CONTINUOUS
10
7.22922
20
-1.81528
11
7.2294
21
-1.81519
0
LINE
8
BLACK
6
CONTINUOUS
10
7.2294
20
-1.81519
11
7.22956
21
-1.8151
0
LINE
8
BLACK
6
CONTINUOUS
10
7.22956
20
-1.8151
11
7.22993
21
-1.81499
0
LINE
8
BLACK
6
CONTINUOUS
10
7.22993
20
-1.81499
11
7.23022
21
-1.81496
0
LINE
8
BLACK
6
CONTINUOUS
10
7.23022
20
-1.81496
11
7.23022
21
-1.81496
0
LINE
8
BLACK
6
CONTINUOUS
10
7.23022
20
-1.81496
11
7.23031
21
-1.81495
0
LINE
8
BLACK
6
CONTINUOUS
10
7.23031
20
-1.81495
11
7.23041
21
-1.81496
0
LINE
8
BLACK
6
CONTINUOUS
10
7.23041
20
-1.81496
11
8.49006
21
-1.81496
0
LINE
8
BLACK
6
CONTINUOUS
10
8.49006
20
-1.81496
11
8.49016
21
-1.81495
0
LINE
8
BLACK
6
CONTINUOUS
10
8.49016
20
-1.81495
11
8.49025
21
-1.81496
0
LINE
8
BLACK
6
CONTINUOUS
10
8.49025
20
-1.81496
11
8.49054
21
-1.81499
0
LINE
8
BLACK
6
CONTINUOUS
10
8.49054
20
-1.81499
11
8.49091
21
-1.8151
0
LINE
8
BLACK
6
CONTINUOUS
10
8.49091
20
-1.8151
11
8.49126
21
-1.81528
0
LINE
8
BLACK
6
CONTINUOUS
10
8.49126
20
-1.81528
11
8.49156
21
-1.81553
0
LINE
8
BLACK
6
CONTINUOUS
10
8.49156
20
-1.81553
11
8.4918
21
-1.81583
0
LINE
8
BLACK
6
CONTINUOUS
10
8.4918
20
-1.81583
11
8.49198
21
-1.81617
0
LINE
8
BLACK
6
CONTINUOUS
10
8.49198
20
-1.81617
11
8.4921
21
-1.81654
0
LINE
8
BLACK
6
CONTINUOUS
10
8.4921
20
-1.81654
11
8.49214
21
-1.81693
0
LINE
8
BLACK
6
CONTINUOUS
10
8.49214
20
-1.81693
11
8.49213
21
-1.81703
0
LINE
8
BLACK
6
CONTINUOUS
10
8.49213
20
-1.81703
11
8.49213
21
-2.72047
0
LINE
8
BLACK
6
CONTINUOUS
10
8.49213
20
-2.72047
11
9.08061
21
-2.72047
0
LINE
8
BLACK
6
CONTINUOUS
10
9.08061
20
-2.72047
11
9.08071
21
-2.72046
0
LINE
8
BLACK
6
CONTINUOUS
10
9.08071
20
-2.72046
11
9.08081
21
-2.72047
0
LINE
8
BLACK
6
CONTINUOUS
10
9.08081
20
-2.72047
11
9.08109
21
-2.7205
0
LINE
8
BLACK
6
CONTINUOUS
10
9.08109
20
-2.7205
11
9.08147
21
-2.72061
0
LINE
8
BLACK
6
CONTINUOUS
10
9.08147
20
-2.72061
11
9.08181
21
-2.7208
0
LINE
8
BLACK
6
CONTINUOUS
10
9.08181
20
-2.7208
11
9.08211
21
-2.72104
0
LINE
8
BLACK
6
CONTINUOUS
10
9.08211
20
-2.72104
11
9.08235
21
-2.72134
0
LINE
8
BLACK
6
CONTINUOUS
10
9.08235
20
-2.72134
11
9.08254
21
-2.72168
0
LINE
8
BLACK
6
CONTINUOUS
10
9.08254
20
-2.72168
11
9.08265
21
-2.72206
0
LINE
8
BLACK
6
CONTINUOUS
10
9.08265
20
-2.72206
11
9.08269
21
-2.72244
0
LINE
8
BLACK
6
CONTINUOUS
10
9.08269
20
-2.72244
11
9.08268
21
-2.72254
0
LINE
8
BLACK
6
CONTINUOUS
10
9.08268
20
-2.72254
11
9.08268
21
-4.69085
0
LINE
8
BLACK
6
CONTINUOUS
10
9.08268
20
-4.69085
11
9.08269
21
-4.69094
0
LINE
8
BLACK
6
CONTINUOUS
10
9.08269
20
-4.69094
11
9.08265
21
-4.69133
0
LINE
8
BLACK
6
CONTINUOUS
10
9.08265
20
-4.69133
11
9.08254
21
-4.6917
0
LINE
8
BLACK
6
CONTINUOUS
10
9.08254
20
-4.6917
11
9.08235
21
-4.69204
0
LINE
8
BLACK
6
CONTINUOUS
10
9.08235
20
-4.69204
11
9.08211
21
-4.69234
0
LINE
8
BLACK
6
CONTINUOUS
10
9.08211
20
-4.69234
11
9.08181
21
-4.69259
0
LINE
8
BLACK
6
CONTINUOUS
10
9.08181
20
-4.69259
11
9.08147
21
-4.69277
0
LINE
8
BLACK
6
CONTINUOUS
10
9.08147
20
-4.69277
11
9.08109
21
-4.69288
0
LINE
8
BLACK
6
CONTINUOUS
10
9.08109
20
-4.69288
11
9.08081
21
-4.69291
0
LINE
8
BLACK
6
CONTINUOUS
10
9.08081
20
-4.69291
11
9.08071
21
-4.69292
0
LINE
8
BLACK
6
CONTINUOUS
10
9.08071
20
-4.69292
11
9.08061
21
-4.69291
0
LINE
8
BLACK
6
CONTINUOUS
10
9.08061
20
-4.69291
11
6.52362
21
-4.69291
0
LINE
8
BLACK
6
CONTINUOUS
10
6.52362
20
-4.69291
11
6.52362
21
-5.17353
0
LINE
8
BLACK
6
CONTINUOUS
10
6.52362
20
-5.17353
11
6.52363
21
-5.17362
0
LINE
8
BLACK
6
CONTINUOUS
10
4.74965
20
-1.85824
11
4.74252
21
-1.85899
0
LINE
8
BLACK
6
CONTINUOUS
10
4.74252
20
-1.85899
11
4.73554
21
-1.86115
0
LINE
8
BLACK
6
CONTINUOUS
10
4.73554
20
-1.86115
11
4.72911
21
-1.86463
0
LINE
8
BLACK
6
CONTINUOUS
10
4.72911
20
-1.86463
11
4.72348
21
-1.86929
0
LINE
8
BLACK
6
CONTINUOUS
10
4.72348
20
-1.86929
11
4.71886
21
-1.87495
0
LINE
8
BLACK
6
CONTINUOUS
10
4.71886
20
-1.87495
11
4.71543
21
-1.8814
0
LINE
8
BLACK
6
CONTINUOUS
10
4.71543
20
-1.8814
11
4.71332
21
-1.8884
0
LINE
8
BLACK
6
CONTINUOUS
10
4.71332
20
-1.8884
11
4.7126
21
-1.89577
0
LINE
8
BLACK
6
CONTINUOUS
10
4.7126
20
-1.89577
11
4.7126
21
-2.28936
0
LINE
8
BLACK
6
CONTINUOUS
10
4.7126
20
-2.28936
11
4.7126
21
-2.28954
0
LINE
8
BLACK
6
CONTINUOUS
10
4.7126
20
-2.28954
11
4.71337
21
-2.29689
0
LINE
8
BLACK
6
CONTINUOUS
10
4.71337
20
-2.29689
11
4.71553
21
-2.30386
0
LINE
8
BLACK
6
CONTINUOUS
10
4.71553
20
-2.30386
11
4.719
21
-2.31028
0
LINE
8
BLACK
6
CONTINUOUS
10
4.719
20
-2.31028
11
4.72365
21
-2.3159
0
LINE
8
BLACK
6
CONTINUOUS
10
4.72365
20
-2.3159
11
4.72931
21
-2.32051
0
LINE
8
BLACK
6
CONTINUOUS
10
4.72931
20
-2.32051
11
4.73575
21
-2.32394
0
LINE
8
BLACK
6
CONTINUOUS
10
4.73575
20
-2.32394
11
4.74274
21
-2.32605
0
LINE
8
BLACK
6
CONTINUOUS
10
4.74274
20
-2.32605
11
4.7501
21
-2.32677
0
LINE
8
BLACK
6
CONTINUOUS
10
4.7501
20
-2.32677
11
6.40364
21
-2.32677
0
LINE
8
BLACK
6
CONTINUOUS
10
6.40364
20
-2.32677
11
6.40374
21
-2.32678
0
LINE
8
BLACK
6
CONTINUOUS
10
6.40374
20
-2.32678
11
6.40374
21
-2.32678
0
LINE
8
BLACK
6
CONTINUOUS
10
6.40374
20
-2.32678
11
6.41903
21
-2.32828
0
LINE
8
BLACK
6
CONTINUOUS
10
6.41903
20
-2.32828
11
6.41903
21
-2.32828
0
LINE
8
BLACK
6
CONTINUOUS
10
6.41903
20
-2.32828
11
6.41903
21
-2.32828
0
LINE
8
BLACK
6
CONTINUOUS
10
6.41903
20
-2.32828
11
6.41906
21
-2.32828
0
LINE
8
BLACK
6
CONTINUOUS
10
6.41906
20
-2.32828
11
6.41923
21
-2.32832
0
LINE
8
BLACK
6
CONTINUOUS
10
6.41923
20
-2.32832
11
6.41941
21
-2.32836
0
LINE
8
BLACK
6
CONTINUOUS
10
6.41941
20
-2.32836
11
6.43412
21
-2.3328
0
LINE
8
BLACK
6
CONTINUOUS
10
6.43412
20
-2.3328
11
6.43412
21
-2.3328
0
LINE
8
BLACK
6
CONTINUOUS
10
6.43412
20
-2.3328
11
6.43414
21
-2.33281
0
LINE
8
BLACK
6
CONTINUOUS
10
6.43414
20
-2.33281
11
6.43431
21
-2.33288
0
LINE
8
BLACK
6
CONTINUOUS
10
6.43431
20
-2.33288
11
6.43447
21
-2.33294
0
LINE
8
BLACK
6
CONTINUOUS
10
6.43447
20
-2.33294
11
6.44804
21
-2.34016
0
LINE
8
BLACK
6
CONTINUOUS
10
6.44804
20
-2.34016
11
6.44804
21
-2.34016
0
LINE
8
BLACK
6
CONTINUOUS
10
6.44804
20
-2.34016
11
6.44804
21
-2.34016
0
LINE
8
BLACK
6
CONTINUOUS
10
6.44804
20
-2.34016
11
6.44807
21
-2.34017
0
LINE
8
BLACK
6
CONTINUOUS
10
6.44807
20
-2.34017
11
6.44821
21
-2.34027
0
LINE
8
BLACK
6
CONTINUOUS
10
6.44821
20
-2.34027
11
6.44836
21
-2.34037
0
LINE
8
BLACK
6
CONTINUOUS
10
6.44836
20
-2.34037
11
6.46027
21
-2.35008
0
LINE
8
BLACK
6
CONTINUOUS
10
6.46027
20
-2.35008
11
6.46027
21
-2.35008
0
LINE
8
BLACK
6
CONTINUOUS
10
6.46027
20
-2.35008
11
6.46027
21
-2.35008
0
LINE
8
BLACK
6
CONTINUOUS
10
6.46027
20
-2.35008
11
6.46029
21
-2.3501
0
LINE
8
BLACK
6
CONTINUOUS
10
6.46029
20
-2.3501
11
6.46042
21
-2.35023
0
LINE
8
BLACK
6
CONTINUOUS
10
6.46042
20
-2.35023
11
6.46054
21
-2.35035
0
LINE
8
BLACK
6
CONTINUOUS
10
6.46054
20
-2.35035
11
6.47034
21
-2.36219
0
LINE
8
BLACK
6
CONTINUOUS
10
6.47034
20
-2.36219
11
6.47034
21
-2.36219
0
LINE
8
BLACK
6
CONTINUOUS
10
6.47034
20
-2.36219
11
6.47034
21
-2.3622
0
LINE
8
BLACK
6
CONTINUOUS
10
6.47034
20
-2.3622
11
6.47036
21
-2.36222
0
LINE
8
BLACK
6
CONTINUOUS
10
6.47036
20
-2.36222
11
6.47045
21
-2.36236
0
LINE
8
BLACK
6
CONTINUOUS
10
6.47045
20
-2.36236
11
6.47055
21
-2.36251
0
LINE
8
BLACK
6
CONTINUOUS
10
6.47055
20
-2.36251
11
6.47786
21
-2.37603
0
LINE
8
BLACK
6
CONTINUOUS
10
6.47786
20
-2.37603
11
6.47786
21
-2.37603
0
LINE
8
BLACK
6
CONTINUOUS
10
6.47786
20
-2.37603
11
6.47786
21
-2.37603
0
LINE
8
BLACK
6
CONTINUOUS
10
6.47786
20
-2.37603
11
6.47788
21
-2.37606
0
LINE
8
BLACK
6
CONTINUOUS
10
6.47788
20
-2.37606
11
6.47794
21
-2.37622
0
LINE
8
BLACK
6
CONTINUOUS
10
6.47794
20
-2.37622
11
6.47801
21
-2.37639
0
LINE
8
BLACK
6
CONTINUOUS
10
6.47801
20
-2.37639
11
6.48256
21
-2.39107
0
LINE
8
BLACK
6
CONTINUOUS
10
6.48256
20
-2.39107
11
6.48256
21
-2.39109
0
LINE
8
BLACK
6
CONTINUOUS
10
6.48256
20
-2.39109
11
6.4826
21
-2.39127
0
LINE
8
BLACK
6
CONTINUOUS
10
6.4826
20
-2.39127
11
6.48263
21
-2.39144
0
LINE
8
BLACK
6
CONTINUOUS
10
6.48263
20
-2.39144
11
6.48424
21
-2.40672
0
LINE
8
BLACK
6
CONTINUOUS
10
6.48424
20
-2.40672
11
6.48424
21
-2.40675
0
LINE
8
BLACK
6
CONTINUOUS
10
6.48424
20
-2.40675
11
6.48424
21
-2.40684
0
LINE
8
BLACK
6
CONTINUOUS
10
6.48424
20
-2.40684
11
6.48425
21
-2.40692
0
LINE
8
BLACK
6
CONTINUOUS
10
6.48425
20
-2.40692
11
6.48425
21
-2.40738
0
LINE
8
BLACK
6
CONTINUOUS
10
6.48425
20
-2.40738
11
6.48425
21
-2.40738
0
LINE
8
BLACK
6
CONTINUOUS
10
6.48425
20
-2.40738
11
6.48425
21
-2.76191
0
LINE
8
BLACK
6
CONTINUOUS
10
6.48425
20
-2.76191
11
6.48424
21
-2.762
0
LINE
8
BLACK
6
CONTINUOUS
10
6.48424
20
-2.762
11
6.48424
21
-2.762
0
LINE
8
BLACK
6
CONTINUOUS
10
6.48424
20
-2.762
11
6.48274
21
-2.7773
0
LINE
8
BLACK
6
CONTINUOUS
10
6.48274
20
-2.7773
11
6.48274
21
-2.7773
0
LINE
8
BLACK
6
CONTINUOUS
10
6.48274
20
-2.7773
11
6.48274
21
-2.7773
0
LINE
8
BLACK
6
CONTINUOUS
10
6.48274
20
-2.7773
11
6.48274
21
-2.77732
0
LINE
8
BLACK
6
CONTINUOUS
10
6.48274
20
-2.77732
11
6.4827
21
-2.7775
0
LINE
8
BLACK
6
CONTINUOUS
10
6.4827
20
-2.7775
11
6.48267
21
-2.77767
0
LINE
8
BLACK
6
CONTINUOUS
10
6.48267
20
-2.77767
11
6.47823
21
-2.79239
0
LINE
8
BLACK
6
CONTINUOUS
10
6.47823
20
-2.79239
11
6.47822
21
-2.79241
0
LINE
8
BLACK
6
CONTINUOUS
10
6.47822
20
-2.79241
11
6.47815
21
-2.79257
0
LINE
8
BLACK
6
CONTINUOUS
10
6.47815
20
-2.79257
11
6.47808
21
-2.79274
0
LINE
8
BLACK
6
CONTINUOUS
10
6.47808
20
-2.79274
11
6.47087
21
-2.80631
0
LINE
8
BLACK
6
CONTINUOUS
10
6.47087
20
-2.80631
11
6.47087
21
-2.80631
0
LINE
8
BLACK
6
CONTINUOUS
10
6.47087
20
-2.80631
11
6.47087
21
-2.80631
0
LINE
8
BLACK
6
CONTINUOUS
10
6.47087
20
-2.80631
11
6.47085
21
-2.80633
0
LINE
8
BLACK
6
CONTINUOUS
10
6.47085
20
-2.80633
11
6.47075
21
-2.80648
0
LINE
8
BLACK
6
CONTINUOUS
10
6.47075
20
-2.80648
11
6.47065
21
-2.80663
0
LINE
8
BLACK
6
CONTINUOUS
10
6.47065
20
-2.80663
11
6.46094
21
-2.81854
0
LINE
8
BLACK
6
CONTINUOUS
10
6.46094
20
-2.81854
11
6.46094
21
-2.81854
0
LINE
8
BLACK
6
CONTINUOUS
10
6.46094
20
-2.81854
11
6.46094
21
-2.81854
0
LINE
8
BLACK
6
CONTINUOUS
10
6.46094
20
-2.81854
11
6.46092
21
-2.81856
0
LINE
8
BLACK
6
CONTINUOUS
10
6.46092
20
-2.81856
11
6.4608
21
-2.81868
0
LINE
8
BLACK
6
CONTINUOUS
10
6.4608
20
-2.81868
11
6.46067
21
-2.81881
0
LINE
8
BLACK
6
CONTINUOUS
10
6.46067
20
-2.81881
11
6.44883
21
-2.82861
0
LINE
8
BLACK
6
CONTINUOUS
10
6.44883
20
-2.82861
11
6.44883
21
-2.82861
0
LINE
8
BLACK
6
CONTINUOUS
10
6.44883
20
-2.82861
11
6.44883
21
-2.82861
0
LINE
8
BLACK
6
CONTINUOUS
10
6.44883
20
-2.82861
11
6.44881
21
-2.82862
0
LINE
8
BLACK
6
CONTINUOUS
10
6.44881
20
-2.82862
11
6.44866
21
-2.82872
0
LINE
8
BLACK
6
CONTINUOUS
10
6.44866
20
-2.82872
11
6.44851
21
-2.82882
0
LINE
8
BLACK
6
CONTINUOUS
10
6.44851
20
-2.82882
11
6.43499
21
-2.83613
0
LINE
8
BLACK
6
CONTINUOUS
10
6.43499
20
-2.83613
11
6.43499
21
-2.83613
0
LINE
8
BLACK
6
CONTINUOUS
10
6.43499
20
-2.83613
11
6.43499
21
-2.83613
0
LINE
8
BLACK
6
CONTINUOUS
10
6.43499
20
-2.83613
11
6.43497
21
-2.83614
0
LINE
8
BLACK
6
CONTINUOUS
10
6.43497
20
-2.83614
11
6.4348
21
-2.83621
0
LINE
8
BLACK
6
CONTINUOUS
10
6.4348
20
-2.83621
11
6.43464
21
-2.83628
0
LINE
8
BLACK
6
CONTINUOUS
10
6.43464
20
-2.83628
11
6.41996
21
-2.84082
0
LINE
8
BLACK
6
CONTINUOUS
10
6.41996
20
-2.84082
11
6.41993
21
-2.84083
0
LINE
8
BLACK
6
CONTINUOUS
10
6.41993
20
-2.84083
11
6.41976
21
-2.84086
0
LINE
8
BLACK
6
CONTINUOUS
10
6.41976
20
-2.84086
11
6.41958
21
-2.8409
0
LINE
8
BLACK
6
CONTINUOUS
10
6.41958
20
-2.8409
11
6.4043
21
-2.84251
0
LINE
8
BLACK
6
CONTINUOUS
10
6.4043
20
-2.84251
11
6.40427
21
-2.84251
0
LINE
8
BLACK
6
CONTINUOUS
10
6.40427
20
-2.84251
11
6.40419
21
-2.84251
0
LINE
8
BLACK
6
CONTINUOUS
10
6.40419
20
-2.84251
11
6.4041
21
-2.84252
0
LINE
8
BLACK
6
CONTINUOUS
10
6.4041
20
-2.84252
11
6.40364
21
-2.84252
0
LINE
8
BLACK
6
CONTINUOUS
10
6.40364
20
-2.84252
11
6.40364
21
-2.84252
0
LINE
8
BLACK
6
CONTINUOUS
10
6.40364
20
-2.84252
11
4.75082
21
-2.84252
0
LINE
8
BLACK
6
CONTINUOUS
10
4.75082
20
-2.84252
11
4.55709
21
-3.03625
0
LINE
8
BLACK
6
CONTINUOUS
10
4.55709
20
-3.03625
11
4.55709
21
-4.68898
0
LINE
8
BLACK
6
CONTINUOUS
10
4.55709
20
-4.68898
11
4.7125
21
-4.68898
0
LINE
8
BLACK
6
CONTINUOUS
10
4.7125
20
-4.68898
11
4.7126
21
-4.68897
0
LINE
8
BLACK
6
CONTINUOUS
10
4.7126
20
-4.68897
11
4.71269
21
-4.68898
0
LINE
8
BLACK
6
CONTINUOUS
10
4.71269
20
-4.68898
11
4.71298
21
-4.689
0
LINE
8
BLACK
6
CONTINUOUS
10
4.71298
20
-4.689
11
4.71336
21
-4.68912
0
LINE
8
BLACK
6
CONTINUOUS
10
4.71336
20
-4.68912
11
4.7137
21
-4.6893
0
LINE
8
BLACK
6
CONTINUOUS
10
4.7137
20
-4.6893
11
4.714
21
-4.68955
0
LINE
8
BLACK
6
CONTINUOUS
10
4.714
20
-4.68955
11
4.71424
21
-4.68985
0
LINE
8
BLACK
6
CONTINUOUS
10
4.71424
20
-4.68985
11
4.71443
21
-4.69019
0
LINE
8
BLACK
6
CONTINUOUS
10
4.71443
20
-4.69019
11
4.71454
21
-4.69056
0
LINE
8
BLACK
6
CONTINUOUS
10
4.71454
20
-4.69056
11
4.71458
21
-4.69094
0
LINE
8
BLACK
6
CONTINUOUS
10
4.71458
20
-4.69094
11
4.71457
21
-4.69104
0
LINE
8
BLACK
6
CONTINUOUS
10
4.71457
20
-4.69104
11
4.71457
21
-5.01378
0
LINE
8
BLACK
6
CONTINUOUS
10
4.71457
20
-5.01378
11
5.02559
21
-5.01378
0
LINE
8
BLACK
6
CONTINUOUS
10
5.02559
20
-5.01378
11
5.02559
21
-4.7627
0
LINE
8
BLACK
6
CONTINUOUS
10
5.02559
20
-4.7627
11
5.0256
21
-4.7626
0
LINE
8
BLACK
6
CONTINUOUS
10
5.0256
20
-4.7626
11
5.02697
21
-4.74865
0
LINE
8
BLACK
6
CONTINUOUS
10
5.02697
20
-4.74865
11
5.02697
21
-4.74865
0
LINE
8
BLACK
6
CONTINUOUS
10
5.02697
20
-4.74865
11
5.02697
21
-4.74865
0
LINE
8
BLACK
6
CONTINUOUS
10
5.02697
20
-4.74865
11
5.02697
21
-4.74862
0
LINE
8
BLACK
6
CONTINUOUS
10
5.02697
20
-4.74862
11
5.02701
21
-4.74845
0
LINE
8
BLACK
6
CONTINUOUS
10
5.02701
20
-4.74845
11
5.02704
21
-4.74827
0
LINE
8
BLACK
6
CONTINUOUS
10
5.02704
20
-4.74827
11
5.0311
21
-4.73485
0
LINE
8
BLACK
6
CONTINUOUS
10
5.0311
20
-4.73485
11
5.0311
21
-4.73482
0
LINE
8
BLACK
6
CONTINUOUS
10
5.0311
20
-4.73482
11
5.03117
21
-4.73466
0
LINE
8
BLACK
6
CONTINUOUS
10
5.03117
20
-4.73466
11
5.03124
21
-4.73449
0
LINE
8
BLACK
6
CONTINUOUS
10
5.03124
20
-4.73449
11
5.03783
21
-4.72211
0
LINE
8
BLACK
6
CONTINUOUS
10
5.03783
20
-4.72211
11
5.03783
21
-4.72211
0
LINE
8
BLACK
6
CONTINUOUS
10
5.03783
20
-4.72211
11
5.03783
21
-4.72211
0
LINE
8
BLACK
6
CONTINUOUS
10
5.03783
20
-4.72211
11
5.03784
21
-4.72209
0
LINE
8
BLACK
6
CONTINUOUS
10
5.03784
20
-4.72209
11
5.03794
21
-4.72194
0
LINE
8
BLACK
6
CONTINUOUS
10
5.03794
20
-4.72194
11
5.03804
21
-4.72179
0
LINE
8
BLACK
6
CONTINUOUS
10
5.03804
20
-4.72179
11
5.0469
21
-4.71092
0
LINE
8
BLACK
6
CONTINUOUS
10
5.0469
20
-4.71092
11
5.04692
21
-4.7109
0
LINE
8
BLACK
6
CONTINUOUS
10
5.04692
20
-4.7109
11
5.04705
21
-4.71078
0
LINE
8
BLACK
6
CONTINUOUS
10
5.04705
20
-4.71078
11
5.04717
21
-4.71065
0
LINE
8
BLACK
6
CONTINUOUS
10
5.04717
20
-4.71065
11
5.05798
21
-4.70171
0
LINE
8
BLACK
6
CONTINUOUS
10
5.05798
20
-4.70171
11
5.05798
21
-4.70171
0
LINE
8
BLACK
6
CONTINUOUS
10
5.05798
20
-4.70171
11
5.05798
21
-4.70171
0
LINE
8
BLACK
6
CONTINUOUS
10
5.05798
20
-4.70171
11
5.058
21
-4.70169
0
LINE
8
BLACK
6
CONTINUOUS
10
5.058
20
-4.70169
11
5.05815
21
-4.7016
0
LINE
8
BLACK
6
CONTINUOUS
10
5.05815
20
-4.7016
11
5.05829
21
-4.7015
0
LINE
8
BLACK
6
CONTINUOUS
10
5.05829
20
-4.7015
11
5.07063
21
-4.69483
0
LINE
8
BLACK
6
CONTINUOUS
10
5.07063
20
-4.69483
11
5.07063
21
-4.69483
0
LINE
8
BLACK
6
CONTINUOUS
10
5.07063
20
-4.69483
11
5.07063
21
-4.69483
0
LINE
8
BLACK
6
CONTINUOUS
10
5.07063
20
-4.69483
11
5.07065
21
-4.69481
0
LINE
8
BLACK
6
CONTINUOUS
10
5.07065
20
-4.69481
11
5.07082
21
-4.69475
0
LINE
8
BLACK
6
CONTINUOUS
10
5.07082
20
-4.69475
11
5.07098
21
-4.69468
0
LINE
8
BLACK
6
CONTINUOUS
10
5.07098
20
-4.69468
11
5.08438
21
-4.69053
0
LINE
8
BLACK
6
CONTINUOUS
10
5.08438
20
-4.69053
11
5.08438
21
-4.69053
0
LINE
8
BLACK
6
CONTINUOUS
10
5.08438
20
-4.69053
11
5.08441
21
-4.69052
0
LINE
8
BLACK
6
CONTINUOUS
10
5.08441
20
-4.69052
11
5.08458
21
-4.69049
0
LINE
8
BLACK
6
CONTINUOUS
10
5.08458
20
-4.69049
11
5.08476
21
-4.69045
0
LINE
8
BLACK
6
CONTINUOUS
10
5.08476
20
-4.69045
11
5.0987
21
-4.68899
0
LINE
8
BLACK
6
CONTINUOUS
10
5.0987
20
-4.68899
11
5.09873
21
-4.68899
0
LINE
8
BLACK
6
CONTINUOUS
10
5.09873
20
-4.68899
11
5.09891
21
-4.68899
0
LINE
8
BLACK
6
CONTINUOUS
10
5.09891
20
-4.68899
11
5.09909
21
-4.68899
0
LINE
8
BLACK
6
CONTINUOUS
10
5.09909
20
-4.68899
11
5.11305
21
-4.69026
0
LINE
8
BLACK
6
CONTINUOUS
10
5.11305
20
-4.69026
11
5.11305
21
-4.69026
0
LINE
8
BLACK
6
CONTINUOUS
10
5.11305
20
-4.69026
11
5.11305
21
-4.69026
0
LINE
8
BLACK
6
CONTINUOUS
10
5.11305
20
-4.69026
11
5.11308
21
-4.69026
0
LINE
8
BLACK
6
CONTINUOUS
10
5.11308
20
-4.69026
11
5.11325
21
-4.6903
0
LINE
8
BLACK
6
CONTINUOUS
10
5.11325
20
-4.6903
11
5.11343
21
-4.69033
0
LINE
8
BLACK
6
CONTINUOUS
10
5.11343
20
-4.69033
11
5.12688
21
-4.69429
0
LINE
8
BLACK
6
CONTINUOUS
10
5.12688
20
-4.69429
11
5.12691
21
-4.6943
0
LINE
8
BLACK
6
CONTINUOUS
10
5.12691
20
-4.6943
11
5.12707
21
-4.69437
0
LINE
8
BLACK
6
CONTINUOUS
10
5.12707
20
-4.69437
11
5.12724
21
-4.69443
0
LINE
8
BLACK
6
CONTINUOUS
10
5.12724
20
-4.69443
11
5.13966
21
-4.70093
0
LINE
8
BLACK
6
CONTINUOUS
10
5.13966
20
-4.70093
11
5.13966
21
-4.70093
0
LINE
8
BLACK
6
CONTINUOUS
10
5.13966
20
-4.70093
11
5.13966
21
-4.70093
0
LINE
8
BLACK
6
CONTINUOUS
10
5.13966
20
-4.70093
11
5.13969
21
-4.70094
0
LINE
8
BLACK
6
CONTINUOUS
10
5.13969
20
-4.70094
11
5.13983
21
-4.70104
0
LINE
8
BLACK
6
CONTINUOUS
10
5.13983
20
-4.70104
11
5.13999
21
-4.70114
0
LINE
8
BLACK
6
CONTINUOUS
10
5.13999
20
-4.70114
11
5.15091
21
-4.70993
0
LINE
8
BLACK
6
CONTINUOUS
10
5.15091
20
-4.70993
11
5.15094
21
-4.70994
0
LINE
8
BLACK
6
CONTINUOUS
10
5.15094
20
-4.70994
11
5.15106
21
-4.71007
0
LINE
8
BLACK
6
CONTINUOUS
10
5.15106
20
-4.71007
11
5.15119
21
-4.71019
0
LINE
8
BLACK
6
CONTINUOUS
10
5.15119
20
-4.71019
11
5.1602
21
-4.72094
0
LINE
8
BLACK
6
CONTINUOUS
10
5.1602
20
-4.72094
11
5.16022
21
-4.72096
0
LINE
8
BLACK
6
CONTINUOUS
10
5.16022
20
-4.72096
11
5.16032
21
-4.72111
0
LINE
8
BLACK
6
CONTINUOUS
10
5.16032
20
-4.72111
11
5.16042
21
-4.72125
0
LINE
8
BLACK
6
CONTINUOUS
10
5.16042
20
-4.72125
11
5.16717
21
-4.73354
0
LINE
8
BLACK
6
CONTINUOUS
10
5.16717
20
-4.73354
11
5.16717
21
-4.73354
0
LINE
8
BLACK
6
CONTINUOUS
10
5.16717
20
-4.73354
11
5.16717
21
-4.73354
0
LINE
8
BLACK
6
CONTINUOUS
10
5.16717
20
-4.73354
11
5.16719
21
-4.73357
0
LINE
8
BLACK
6
CONTINUOUS
10
5.16719
20
-4.73357
11
5.16725
21
-4.73373
0
LINE
8
BLACK
6
CONTINUOUS
10
5.16725
20
-4.73373
11
5.16733
21
-4.7339
0
LINE
8
BLACK
6
CONTINUOUS
10
5.16733
20
-4.7339
11
5.17157
21
-4.74726
0
LINE
8
BLACK
6
CONTINUOUS
10
5.17157
20
-4.74726
11
5.17157
21
-4.74726
0
LINE
8
BLACK
6
CONTINUOUS
10
5.17157
20
-4.74726
11
5.17157
21
-4.74726
0
LINE
8
BLACK
6
CONTINUOUS
10
5.17157
20
-4.74726
11
5.17157
21
-4.74729
0
LINE
8
BLACK
6
CONTINUOUS
10
5.17157
20
-4.74729
11
5.17161
21
-4.74746
0
LINE
8
BLACK
6
CONTINUOUS
10
5.17161
20
-4.74746
11
5.17165
21
-4.74764
0
LINE
8
BLACK
6
CONTINUOUS
10
5.17165
20
-4.74764
11
5.17321
21
-4.76157
0
LINE
8
BLACK
6
CONTINUOUS
10
5.17321
20
-4.76157
11
5.17321
21
-4.7616
0
LINE
8
BLACK
6
CONTINUOUS
10
5.17321
20
-4.7616
11
5.17321
21
-4.76169
0
LINE
8
BLACK
6
CONTINUOUS
10
5.17321
20
-4.76169
11
5.17322
21
-4.76178
0
LINE
8
BLACK
6
CONTINUOUS
10
5.17322
20
-4.76178
11
5.17323
21
-4.76269
0
LINE
8
BLACK
6
CONTINUOUS
10
5.17323
20
-4.76269
11
5.17323
21
-4.7627
0
LINE
8
BLACK
6
CONTINUOUS
10
5.17323
20
-4.7627
11
5.17323
21
-5.17281
0
LINE
8
BLACK
6
CONTINUOUS
10
5.17323
20
-5.17281
11
5.19176
21
-5.19134
0
LINE
8
BLACK
6
CONTINUOUS
10
5.19176
20
-5.19134
11
5.5917
21
-5.19134
0
LINE
8
BLACK
6
CONTINUOUS
10
5.5917
20
-5.19134
11
5.61024
21
-5.17281
0
LINE
8
BLACK
6
CONTINUOUS
10
5.61024
20
-5.17281
11
5.61024
21
-4.8999
0
LINE
8
BLACK
6
CONTINUOUS
10
5.61024
20
-4.8999
11
5.61025
21
-4.89981
0
LINE
8
BLACK
6
CONTINUOUS
10
5.61025
20
-4.89981
11
5.61096
21
-4.89254
0
LINE
8
BLACK
6
CONTINUOUS
10
5.61096
20
-4.89254
11
5.61096
21
-4.89254
0
LINE
8
BLACK
6
CONTINUOUS
10
5.61096
20
-4.89254
11
5.61096
21
-4.89254
0
LINE
8
BLACK
6
CONTINUOUS
10
5.61096
20
-4.89254
11
5.61096
21
-4.89252
0
LINE
8
BLACK
6
CONTINUOUS
10
5.61096
20
-4.89252
11
5.611
21
-4.89234
0
LINE
8
BLACK
6
CONTINUOUS
10
5.611
20
-4.89234
11
5.61103
21
-4.89217
0
LINE
8
BLACK
6
CONTINUOUS
10
5.61103
20
-4.89217
11
5.61314
21
-4.88518
0
LINE
8
BLACK
6
CONTINUOUS
10
5.61314
20
-4.88518
11
5.61315
21
-4.88515
0
LINE
8
BLACK
6
CONTINUOUS
10
5.61315
20
-4.88515
11
5.61322
21
-4.88499
0
LINE
8
BLACK
6
CONTINUOUS
10
5.61322
20
-4.88499
11
5.61329
21
-4.88482
0
LINE
8
BLACK
6
CONTINUOUS
10
5.61329
20
-4.88482
11
5.61672
21
-4.87838
0
LINE
8
BLACK
6
CONTINUOUS
10
5.61672
20
-4.87838
11
5.61672
21
-4.87838
0
LINE
8
BLACK
6
CONTINUOUS
10
5.61672
20
-4.87838
11
5.61672
21
-4.87838
0
LINE
8
BLACK
6
CONTINUOUS
10
5.61672
20
-4.87838
11
5.61673
21
-4.87835
0
LINE
8
BLACK
6
CONTINUOUS
10
5.61673
20
-4.87835
11
5.61683
21
-4.87821
0
LINE
8
BLACK
6
CONTINUOUS
10
5.61683
20
-4.87821
11
5.61693
21
-4.87806
0
LINE
8
BLACK
6
CONTINUOUS
10
5.61693
20
-4.87806
11
5.62154
21
-4.8724
0
LINE
8
BLACK
6
CONTINUOUS
10
5.62154
20
-4.8724
11
5.62154
21
-4.8724
0
LINE
8
BLACK
6
CONTINUOUS
10
5.62154
20
-4.8724
11
5.62154
21
-4.8724
0
LINE
8
BLACK
6
CONTINUOUS
10
5.62154
20
-4.8724
11
5.62156
21
-4.87238
0
LINE
8
BLACK
6
CONTINUOUS
10
5.62156
20
-4.87238
11
5.62169
21
-4.87226
0
LINE
8
BLACK
6
CONTINUOUS
10
5.62169
20
-4.87226
11
5.62181
21
-4.87213
0
LINE
8
BLACK
6
CONTINUOUS
10
5.62181
20
-4.87213
11
5.62744
21
-4.86748
0
LINE
8
BLACK
6
CONTINUOUS
10
5.62744
20
-4.86748
11
5.62744
21
-4.86748
0
LINE
8
BLACK
6
CONTINUOUS
10
5.62744
20
-4.86748
11
5.62744
21
-4.86748
0
LINE
8
BLACK
6
CONTINUOUS
10
5.62744
20
-4.86748
11
5.62746
21
-4.86746
0
LINE
8
BLACK
6
CONTINUOUS
10
5.62746
20
-4.86746
11
5.62761
21
-4.86736
0
LINE
8
BLACK
6
CONTINUOUS
10
5.62761
20
-4.86736
11
5.62776
21
-4.86726
0
LINE
8
BLACK
6
CONTINUOUS
10
5.62776
20
-4.86726
11
5.63418
21
-4.86379
0
LINE
8
BLACK
6
CONTINUOUS
10
5.63418
20
-4.86379
11
5.63418
21
-4.86379
0
LINE
8
BLACK
6
CONTINUOUS
10
5.63418
20
-4.86379
11
5.63418
21
-4.86379
0
LINE
8
BLACK
6
CONTINUOUS
10
5.63418
20
-4.86379
11
5.6342
21
-4.86378
0
LINE
8
BLACK
6
CONTINUOUS
10
5.6342
20
-4.86378
11
5.63437
21
-4.86371
0
LINE
8
BLACK
6
CONTINUOUS
10
5.63437
20
-4.86371
11
5.63453
21
-4.86364
0
LINE
8
BLACK
6
CONTINUOUS
10
5.63453
20
-4.86364
11
5.6415
21
-4.86148
0
LINE
8
BLACK
6
CONTINUOUS
10
5.6415
20
-4.86148
11
5.6415
21
-4.86148
0
LINE
8
BLACK
6
CONTINUOUS
10
5.6415
20
-4.86148
11
5.64153
21
-4.86147
0
LINE
8
BLACK
6
CONTINUOUS
10
5.64153
20
-4.86147
11
5.6417
21
-4.86144
0
LINE
8
BLACK
6
CONTINUOUS
10
5.6417
20
-4.86144
11
5.64188
21
-4.8614
0
LINE
8
BLACK
6
CONTINUOUS
10
5.64188
20
-4.8614
11
5.64914
21
-4.86064
0
LINE
8
BLACK
6
CONTINUOUS
10
5.64914
20
-4.86064
11
5.64914
21
-4.86064
0
LINE
8
BLACK
6
CONTINUOUS
10
5.64914
20
-4.86064
11
5.64917
21
-4.86064
0
LINE
8
BLACK
6
CONTINUOUS
10
5.64917
20
-4.86064
11
5.64935
21
-4.86064
0
LINE
8
BLACK
6
CONTINUOUS
10
5.64935
20
-4.86064
11
5.64952
21
-4.86064
0
LINE
8
BLACK
6
CONTINUOUS
10
5.64952
20
-4.86064
11
5.65679
21
-4.8613
0
LINE
8
BLACK
6
CONTINUOUS
10
5.65679
20
-4.8613
11
5.65679
21
-4.8613
0
LINE
8
BLACK
6
CONTINUOUS
10
5.65679
20
-4.8613
11
5.65679
21
-4.8613
0
LINE
8
BLACK
6
CONTINUOUS
10
5.65679
20
-4.8613
11
5.65682
21
-4.8613
0
LINE
8
BLACK
6
CONTINUOUS
10
5.65682
20
-4.8613
11
5.65699
21
-4.86134
0
LINE
8
BLACK
6
CONTINUOUS
10
5.65699
20
-4.86134
11
5.65717
21
-4.86137
0
LINE
8
BLACK
6
CONTINUOUS
10
5.65717
20
-4.86137
11
5.66417
21
-4.86343
0
LINE
8
BLACK
6
CONTINUOUS
10
5.66417
20
-4.86343
11
5.6642
21
-4.86344
0
LINE
8
BLACK
6
CONTINUOUS
10
5.6642
20
-4.86344
11
5.66436
21
-4.86351
0
LINE
8
BLACK
6
CONTINUOUS
10
5.66436
20
-4.86351
11
5.66453
21
-4.86358
0
LINE
8
BLACK
6
CONTINUOUS
10
5.66453
20
-4.86358
11
5.671
21
-4.86696
0
LINE
8
BLACK
6
CONTINUOUS
10
5.671
20
-4.86696
11
5.671
21
-4.86696
0
LINE
8
BLACK
6
CONTINUOUS
10
5.671
20
-4.86696
11
5.671
21
-4.86696
0
LINE
8
BLACK
6
CONTINUOUS
10
5.671
20
-4.86696
11
5.67102
21
-4.86697
0
LINE
8
BLACK
6
CONTINUOUS
10
5.67102
20
-4.86697
11
5.67117
21
-4.86707
0
LINE
8
BLACK
6
CONTINUOUS
10
5.67117
20
-4.86707
11
5.67132
21
-4.86717
0
LINE
8
BLACK
6
CONTINUOUS
10
5.67132
20
-4.86717
11
5.67701
21
-4.87174
0
LINE
8
BLACK
6
CONTINUOUS
10
5.67701
20
-4.87174
11
5.67703
21
-4.87176
0
LINE
8
BLACK
6
CONTINUOUS
10
5.67703
20
-4.87176
11
5.67716
21
-4.87189
0
LINE
8
BLACK
6
CONTINUOUS
10
5.67716
20
-4.87189
11
5.67728
21
-4.87201
0
LINE
8
BLACK
6
CONTINUOUS
10
5.67728
20
-4.87201
11
5.68197
21
-4.8776
0
LINE
8
BLACK
6
CONTINUOUS
10
5.68197
20
-4.8776
11
5.68199
21
-4.87763
0
LINE
8
BLACK
6
CONTINUOUS
10
5.68199
20
-4.87763
11
5.68209
21
-4.87777
0
LINE
8
BLACK
6
CONTINUOUS
10
5.68209
20
-4.87777
11
5.68219
21
-4.87792
0
LINE
8
BLACK
6
CONTINUOUS
10
5.68219
20
-4.87792
11
5.68571
21
-4.88432
0
LINE
8
BLACK
6
CONTINUOUS
10
5.68571
20
-4.88432
11
5.68571
21
-4.88432
0
LINE
8
BLACK
6
CONTINUOUS
10
5.68571
20
-4.88432
11
5.68571
21
-4.88432
0
LINE
8
BLACK
6
CONTINUOUS
10
5.68571
20
-4.88432
11
5.68572
21
-4.88434
0
LINE
8
BLACK
6
CONTINUOUS
10
5.68572
20
-4.88434
11
5.68579
21
-4.8845
0
LINE
8
BLACK
6
CONTINUOUS
10
5.68579
20
-4.8845
11
5.68586
21
-4.88467
0
LINE
8
BLACK
6
CONTINUOUS
10
5.68586
20
-4.88467
11
5.68807
21
-4.89163
0
LINE
8
BLACK
6
CONTINUOUS
10
5.68807
20
-4.89163
11
5.68808
21
-4.89165
0
LINE
8
BLACK
6
CONTINUOUS
10
5.68808
20
-4.89165
11
5.68811
21
-4.89183
0
LINE
8
BLACK
6
CONTINUOUS
10
5.68811
20
-4.89183
11
5.68815
21
-4.892
0
LINE
8
BLACK
6
CONTINUOUS
10
5.68815
20
-4.892
11
5.68896
21
-4.89926
0
LINE
8
BLACK
6
CONTINUOUS
10
5.68896
20
-4.89926
11
5.68896
21
-4.89929
0
LINE
8
BLACK
6
CONTINUOUS
10
5.68896
20
-4.89929
11
5.68896
21
-4.89937
0
LINE
8
BLACK
6
CONTINUOUS
10
5.68896
20
-4.89937
11
5.68897
21
-4.89946
0
LINE
8
BLACK
6
CONTINUOUS
10
5.68897
20
-4.89946
11
5.68898
21
-4.8999
0
LINE
8
BLACK
6
CONTINUOUS
10
5.68898
20
-4.8999
11
5.68898
21
-4.8999
0
LINE
8
BLACK
6
CONTINUOUS
10
5.68898
20
-4.8999
11
5.68898
21
-5.17281
0
LINE
8
BLACK
6
CONTINUOUS
10
5.68898
20
-5.17281
11
5.70751
21
-5.19134
0
LINE
8
BLACK
6
CONTINUOUS
10
5.70751
20
-5.19134
11
6.50115
21
-5.19134
0
LINE
8
BLACK
6
CONTINUOUS
10
6.50115
20
-5.19134
11
6.51969
21
-5.17281
0
LINE
8
BLACK
6
CONTINUOUS
10
6.51969
20
-5.17281
11
6.51969
21
-4.8625
0
LINE
8
BLACK
6
CONTINUOUS
10
6.51969
20
-4.8625
11
6.51969
21
-4.8625
0
LINE
8
BLACK
6
CONTINUOUS
10
6.51969
20
-4.8625
11
6.51969
21
-4.69104
0
LINE
8
BLACK
6
CONTINUOUS
10
6.51969
20
-4.69104
11
6.51968
21
-4.69094
0
LINE
8
BLACK
6
CONTINUOUS
10
6.51968
20
-4.69094
11
6.51971
21
-4.69056
0
LINE
8
BLACK
6
CONTINUOUS
10
6.51971
20
-4.69056
11
6.51983
21
-4.69019
0
LINE
8
BLACK
6
CONTINUOUS
10
6.51983
20
-4.69019
11
6.52001
21
-4.68985
0
LINE
8
BLACK
6
CONTINUOUS
10
6.52001
20
-4.68985
11
6.52025
21
-4.68955
0
LINE
8
BLACK
6
CONTINUOUS
10
6.52025
20
-4.68955
11
6.52055
21
-4.6893
0
LINE
8
BLACK
6
CONTINUOUS
10
6.52055
20
-4.6893
11
6.5209
21
-4.68912
0
LINE
8
BLACK
6
CONTINUOUS
10
6.5209
20
-4.68912
11
6.52127
21
-4.689
0
LINE
8
BLACK
6
CONTINUOUS
10
6.52127
20
-4.689
11
6.52156
21
-4.68898
0
LINE
8
BLACK
6
CONTINUOUS
10
6.52156
20
-4.68898
11
6.52165
21
-4.68897
0
LINE
8
BLACK
6
CONTINUOUS
10
6.52165
20
-4.68897
11
6.52175
21
-4.68898
0
LINE
8
BLACK
6
CONTINUOUS
10
6.52175
20
-4.68898
11
9.07874
21
-4.68898
0
LINE
8
BLACK
6
CONTINUOUS
10
9.07874
20
-4.68898
11
9.07874
21
-2.72441
0
LINE
8
BLACK
6
CONTINUOUS
10
9.07874
20
-2.72441
11
8.49025
21
-2.72441
0
LINE
8
BLACK
6
CONTINUOUS
10
8.49025
20
-2.72441
11
8.49016
21
-2.72442
0
LINE
8
BLACK
6
CONTINUOUS
10
8.49016
20
-2.72442
11
8.48977
21
-2.72438
0
LINE
8
BLACK
6
CONTINUOUS
10
8.48977
20
-2.72438
11
8.4894
21
-2.72427
0
LINE
8
BLACK
6
CONTINUOUS
10
8.4894
20
-2.72427
11
8.48906
21
-2.72409
0
LINE
8
BLACK
6
CONTINUOUS
10
8.48906
20
-2.72409
11
8.48876
21
-2.72384
0
LINE
8
BLACK
6
CONTINUOUS
10
8.48876
20
-2.72384
11
8.48851
21
-2.72354
0
LINE
8
BLACK
6
CONTINUOUS
10
8.48851
20
-2.72354
11
8.48833
21
-2.7232
0
LINE
8
BLACK
6
CONTINUOUS
10
8.48833
20
-2.7232
11
8.48822
21
-2.72283
0
LINE
8
BLACK
6
CONTINUOUS
10
8.48822
20
-2.72283
11
8.48818
21
-2.72244
0
LINE
8
BLACK
6
CONTINUOUS
10
8.48818
20
-2.72244
11
8.48819
21
-2.72234
0
LINE
8
BLACK
6
CONTINUOUS
10
8.48819
20
-2.72234
11
8.48819
21
-1.8189
0
LINE
8
BLACK
6
CONTINUOUS
10
8.48819
20
-1.8189
11
7.23113
21
-1.8189
0
LINE
8
BLACK
6
CONTINUOUS
10
7.23113
20
-1.8189
11
6.95618
21
-2.09384
0
LINE
8
BLACK
6
CONTINUOUS
10
6.95618
20
-2.09384
11
6.95612
21
-2.09392
0
LINE
8
BLACK
6
CONTINUOUS
10
6.95612
20
-2.09392
11
6.95582
21
-2.09416
0
LINE
8
BLACK
6
CONTINUOUS
10
6.95582
20
-2.09416
11
6.95548
21
-2.09435
0
LINE
8
BLACK
6
CONTINUOUS
10
6.95548
20
-2.09435
11
6.95511
21
-2.09446
0
LINE
8
BLACK
6
CONTINUOUS
10
6.95511
20
-2.09446
11
6.95482
21
-2.09449
0
LINE
8
BLACK
6
CONTINUOUS
10
6.95482
20
-2.09449
11
6.95482
21
-2.09449
0
LINE
8
BLACK
6
CONTINUOUS
10
6.95482
20
-2.09449
11
6.95472
21
-2.0945
0
LINE
8
BLACK
6
CONTINUOUS
10
6.95472
20
-2.0945
11
6.95463
21
-2.09449
0
LINE
8
BLACK
6
CONTINUOUS
10
6.95463
20
-2.09449
11
6.32471
21
-2.09449
0
LINE
8
BLACK
6
CONTINUOUS
10
6.32471
20
-2.09449
11
6.32461
21
-2.09448
0
LINE
8
BLACK
6
CONTINUOUS
10
6.32461
20
-2.09448
11
6.32461
21
-2.09448
0
LINE
8
BLACK
6
CONTINUOUS
10
6.32461
20
-2.09448
11
6.30932
21
-2.09298
0
LINE
8
BLACK
6
CONTINUOUS
10
6.30932
20
-2.09298
11
6.30932
21
-2.09298
0
LINE
8
BLACK
6
CONTINUOUS
10
6.30932
20
-2.09298
11
6.30932
21
-2.09298
0
LINE
8
BLACK
6
CONTINUOUS
10
6.30932
20
-2.09298
11
6.30929
21
-2.09298
0
LINE
8
BLACK
6
CONTINUOUS
10
6.30929
20
-2.09298
11
6.30912
21
-2.09294
0
LINE
8
BLACK
6
CONTINUOUS
10
6.30912
20
-2.09294
11
6.30894
21
-2.0929
0
LINE
8
BLACK
6
CONTINUOUS
10
6.30894
20
-2.0929
11
6.29423
21
-2.08846
0
LINE
8
BLACK
6
CONTINUOUS
10
6.29423
20
-2.08846
11
6.2942
21
-2.08845
0
LINE
8
BLACK
6
CONTINUOUS
10
6.2942
20
-2.08845
11
6.29404
21
-2.08838
0
LINE
8
BLACK
6
CONTINUOUS
10
6.29404
20
-2.08838
11
6.29387
21
-2.08832
0
LINE
8
BLACK
6
CONTINUOUS
10
6.29387
20
-2.08832
11
6.28031
21
-2.0811
0
LINE
8
BLACK
6
CONTINUOUS
10
6.28031
20
-2.0811
11
6.2803
21
-2.0811
0
LINE
8
BLACK
6
CONTINUOUS
10
6.2803
20
-2.0811
11
6.2803
21
-2.0811
0
LINE
8
BLACK
6
CONTINUOUS
10
6.2803
20
-2.0811
11
6.28028
21
-2.08109
0
LINE
8
BLACK
6
CONTINUOUS
10
6.28028
20
-2.08109
11
6.28013
21
-2.08099
0
LINE
8
BLACK
6
CONTINUOUS
10
6.28013
20
-2.08099
11
6.27998
21
-2.08089
0
LINE
8
BLACK
6
CONTINUOUS
10
6.27998
20
-2.08089
11
6.26808
21
-2.07118
0
LINE
8
BLACK
6
CONTINUOUS
10
6.26808
20
-2.07118
11
6.26808
21
-2.07118
0
LINE
8
BLACK
6
CONTINUOUS
10
6.26808
20
-2.07118
11
6.26808
21
-2.07118
0
LINE
8
BLACK
6
CONTINUOUS
10
6.26808
20
-2.07118
11
6.26805
21
-2.07116
0
LINE
8
BLACK
6
CONTINUOUS
10
6.26805
20
-2.07116
11
6.26793
21
-2.07103
0
LINE
8
BLACK
6
CONTINUOUS
10
6.26793
20
-2.07103
11
6.2678
21
-2.07091
0
LINE
8
BLACK
6
CONTINUOUS
10
6.2678
20
-2.07091
11
6.25801
21
-2.05907
0
LINE
8
BLACK
6
CONTINUOUS
10
6.25801
20
-2.05907
11
6.25801
21
-2.05907
0
LINE
8
BLACK
6
CONTINUOUS
10
6.25801
20
-2.05907
11
6.25801
21
-2.05907
0
LINE
8
BLACK
6
CONTINUOUS
10
6.25801
20
-2.05907
11
6.25799
21
-2.05904
0
LINE
8
BLACK
6
CONTINUOUS
10
6.25799
20
-2.05904
11
6.25789
21
-2.0589
0
LINE
8
BLACK
6
CONTINUOUS
10
6.25789
20
-2.0589
11
6.25779
21
-2.05875
0
LINE
8
BLACK
6
CONTINUOUS
10
6.25779
20
-2.05875
11
6.25048
21
-2.04523
0
LINE
8
BLACK
6
CONTINUOUS
10
6.25048
20
-2.04523
11
6.25048
21
-2.04523
0
LINE
8
BLACK
6
CONTINUOUS
10
6.25048
20
-2.04523
11
6.25048
21
-2.04523
0
LINE
8
BLACK
6
CONTINUOUS
10
6.25048
20
-2.04523
11
6.25047
21
-2.0452
0
LINE
8
BLACK
6
CONTINUOUS
10
6.25047
20
-2.0452
11
6.2504
21
-2.04504
0
LINE
8
BLACK
6
CONTINUOUS
10
6.2504
20
-2.04504
11
6.25034
21
-2.04487
0
LINE
8
BLACK
6
CONTINUOUS
10
6.25034
20
-2.04487
11
6.24579
21
-2.03019
0
LINE
8
BLACK
6
CONTINUOUS
10
6.24579
20
-2.03019
11
6.24578
21
-2.03017
0
LINE
8
BLACK
6
CONTINUOUS
10
6.24578
20
-2.03017
11
6.24575
21
-2.02999
0
LINE
8
BLACK
6
CONTINUOUS
10
6.24575
20
-2.02999
11
6.24571
21
-2.02982
0
LINE
8
BLACK
6
CONTINUOUS
10
6.24571
20
-2.02982
11
6.24411
21
-2.01453
0
LINE
8
BLACK
6
CONTINUOUS
10
6.24411
20
-2.01453
11
6.2441
21
-2.01451
0
LINE
8
BLACK
6
CONTINUOUS
10
6.2441
20
-2.01451
11
6.24411
21
-2.01442
0
LINE
8
BLACK
6
CONTINUOUS
10
6.24411
20
-2.01442
11
6.2441
21
-2.01434
0
LINE
8
BLACK
6
CONTINUOUS
10
6.2441
20
-2.01434
11
6.24409
21
-2.01388
0
LINE
8
BLACK
6
CONTINUOUS
10
6.24409
20
-2.01388
11
6.24409
21
-2.01388
0
LINE
8
BLACK
6
CONTINUOUS
10
6.24409
20
-2.01388
11
6.24409
21
-1.85827
0
LINE
8
BLACK
6
CONTINUOUS
10
6.24409
20
-1.85827
11
4.7499
21
-1.85827
0
LINE
8
BLACK
6
CONTINUOUS
10
4.7499
20
-1.85827
11
4.74965
21
-1.85824
  0
ENDSEC
  0
EOF
