<?xml version="1.0" encoding="UTF-8" standalone="no"?>
<!DOCTYPE svg PUBLIC "-//W3C//DTD SVG 1.1//EN"
 "http://www.w3.org/Graphics/SVG/1.1/DTD/svg11.dtd">
<!-- Generated by graphviz version 2.50.0 (0)
 -->
<!-- Title: graph_name Pages: 1 -->
<svg width="927pt" height="931pt"
 viewBox="14.40 14.40 912.40 916.40" xmlns="http://www.w3.org/2000/svg" xmlns:xlink="http://www.w3.org/1999/xlink">
<g id="graph0" class="graph" transform="scale(1 1) rotate(0) translate(18.4 912.4)">
<title>graph_name</title>
<polygon fill="white" stroke="transparent" points="-4,4 -4,-898 894,-898 894,4 -4,4"/>
<text text-anchor="middle" x="445" y="-875.6" font-family="Times,serif" font-size="18.00">ECP5&#45;PCIe flowchart</text>
<g id="clust1" class="cluster">
<title>cluster1</title>
<polygon fill="white" stroke="black" points="18,-774 18,-858 872,-858 872,-774 18,-774"/>
<text text-anchor="middle" x="445" y="-839.6" font-family="Times,serif" font-size="18.00">Legend</text>
</g>
<g id="clust2" class="cluster">
<title>cluster2</title>
<polygon fill="white" stroke="black" points="8,-8 8,-750 882,-750 882,-8 8,-8"/>
<text text-anchor="middle" x="445" y="-731.6" font-family="Times,serif" font-size="18.00">LatticeECP5PCIePhy</text>
</g>
<g id="clust3" class="cluster">
<title>cluster3</title>
<polygon fill="white" stroke="black" points="18,-18 18,-534 872,-534 872,-18 18,-18"/>
<text text-anchor="middle" x="445" y="-515.6" font-family="Times,serif" font-size="18.00">PCIePhy &#160;&#160;&#160;&#160;&#160;&#160;&#160;&#160;&#160;&#160;&#160;&#160;&#160;&#160;&#160;&#160;&#160;&#160;&#160;&#160;&#160;&#160;&#160;&#160;&#160;</text>
</g>
<!-- Phy -->
<g id="node1" class="node">
<title>Phy</title>
<polygon fill="#e0ffff" stroke="black" points="862,-820 632,-820 632,-784 862,-784 862,-820"/>
<text text-anchor="middle" x="747" y="-798.2" font-family="Migu 1M" font-size="16.00">Phy</text>
</g>
<!-- DLLP -->
<g id="node2" class="node">
<title>DLLP</title>
<polygon fill="#ffe0ff" stroke="black" points="560,-820 330,-820 330,-784 560,-784 560,-820"/>
<text text-anchor="middle" x="445" y="-798.2" font-family="Migu 1M" font-size="16.00">DLLP</text>
</g>
<!-- LatticeECP5PCIeSERDESx4 -->
<g id="node4" class="node">
<title>LatticeECP5PCIeSERDESx4</title>
<polygon fill="#e0ffff" stroke="black" points="560,-712 330,-712 330,-676 560,-676 560,-712"/>
<text text-anchor="middle" x="445" y="-690.2" font-family="Migu 1M" font-size="16.00">LatticeECP5PCIeSERDESx4</text>
</g>
<!-- DLLP&#45;&gt;LatticeECP5PCIeSERDESx4 -->
<!-- TLP -->
<g id="node3" class="node">
<title>TLP</title>
<polygon fill="#ffffe0" stroke="black" points="258,-820 28,-820 28,-784 258,-784 258,-820"/>
<text text-anchor="middle" x="143" y="-798.2" font-family="Migu 1M" font-size="16.00">TLP</text>
</g>
<!-- PCIeSERDESAligner -->
<g id="node5" class="node">
<title>PCIeSERDESAligner</title>
<polygon fill="#e0ffff" stroke="black" points="560,-604 330,-604 330,-568 560,-568 560,-604"/>
<text text-anchor="middle" x="445" y="-582.2" font-family="Migu 1M" font-size="16.00">PCIeSERDESAligner</text>
</g>
<!-- LatticeECP5PCIeSERDESx4&#45;&gt;PCIeSERDESAligner -->
<g id="edge2" class="edge">
<title>LatticeECP5PCIeSERDESx4&#45;&gt;PCIeSERDESAligner</title>
<path fill="none" stroke="black" d="M445,-665.93C445,-650.19 445,-630.39 445,-614.57"/>
<polygon fill="black" stroke="black" points="441.5,-665.97 445,-675.97 448.5,-665.97 441.5,-665.97"/>
<polygon fill="black" stroke="black" points="448.5,-614.34 445,-604.34 441.5,-614.34 448.5,-614.34"/>
</g>
<!-- PCIeScrambler -->
<g id="node6" class="node">
<title>PCIeScrambler</title>
<polygon fill="#e0ffff" stroke="black" points="560,-496 330,-496 330,-460 560,-460 560,-496"/>
<text text-anchor="middle" x="445" y="-474.2" font-family="Migu 1M" font-size="16.00">PCIeScrambler</text>
</g>
<!-- PCIeSERDESAligner&#45;&gt;PCIeScrambler -->
<g id="edge3" class="edge">
<title>PCIeSERDESAligner&#45;&gt;PCIeScrambler</title>
<path fill="none" stroke="black" d="M445,-557.93C445,-542.19 445,-522.39 445,-506.57"/>
<polygon fill="black" stroke="black" points="441.5,-557.97 445,-567.97 448.5,-557.97 441.5,-557.97"/>
<polygon fill="black" stroke="black" points="448.5,-506.34 445,-496.34 441.5,-506.34 448.5,-506.34"/>
</g>
<!-- PCIePhyRX -->
<g id="node7" class="node">
<title>PCIePhyRX</title>
<polygon fill="#e0ffff" stroke="black" points="258,-388 28,-388 28,-352 258,-352 258,-388"/>
<text text-anchor="middle" x="143" y="-366.2" font-family="Migu 1M" font-size="16.00">PCIePhyRX</text>
</g>
<!-- PCIeSERDESAligner&#45;&gt;PCIePhyRX -->
<g id="edge4" class="edge">
<title>PCIeSERDESAligner&#45;&gt;PCIePhyRX</title>
<path fill="none" stroke="black" d="M560.5,-563.53C574.39,-556.31 586.87,-546.72 596,-534 615.18,-507.28 616.89,-485.4 596,-460 575.12,-434.61 394.96,-405.21 268.24,-387.37"/>
<polygon fill="black" stroke="black" points="558.72,-560.5 551.18,-567.95 561.72,-566.83 558.72,-560.5"/>
<polygon fill="black" stroke="black" points="268.46,-383.87 258.07,-385.95 267.49,-390.8 268.46,-383.87"/>
</g>
<!-- PCIeScrambler&#45;&gt;PCIePhyRX -->
<g id="edge5" class="edge">
<title>PCIeScrambler&#45;&gt;PCIePhyRX</title>
<path fill="none" stroke="black" d="M396.48,-459.97C343.28,-441.3 257.96,-411.35 201.2,-391.43"/>
<polygon fill="black" stroke="black" points="202.25,-388.09 191.65,-388.08 199.93,-394.69 202.25,-388.09"/>
</g>
<!-- PCIeLTSSM -->
<g id="node9" class="node">
<title>PCIeLTSSM</title>
<polygon fill="#e0ffff" stroke="black" points="560,-388 330,-388 330,-352 560,-352 560,-388"/>
<text text-anchor="middle" x="445" y="-366.2" font-family="Migu 1M" font-size="16.00">PCIeLTSSM</text>
</g>
<!-- PCIeScrambler&#45;&gt;PCIeLTSSM -->
<g id="edge7" class="edge">
<title>PCIeScrambler&#45;&gt;PCIeLTSSM</title>
<path fill="none" stroke="black" stroke-dasharray="5,2" d="M445,-449.93C445,-434.19 445,-414.39 445,-398.57"/>
<polygon fill="black" stroke="black" points="441.5,-449.97 445,-459.97 448.5,-449.97 441.5,-449.97"/>
<polygon fill="black" stroke="black" points="448.5,-398.34 445,-388.34 441.5,-398.34 448.5,-398.34"/>
</g>
<!-- PCIePhyRX&#45;&gt;PCIeLTSSM -->
<g id="edge8" class="edge">
<title>PCIePhyRX&#45;&gt;PCIeLTSSM</title>
<path fill="none" stroke="black" stroke-dasharray="5,2" d="M258.02,-370C278.63,-370 299.24,-370 319.85,-370"/>
<polygon fill="black" stroke="black" points="319.96,-373.5 329.96,-370 319.96,-366.5 319.96,-373.5"/>
</g>
<!-- PCIeDLLPReceiver -->
<g id="node11" class="node">
<title>PCIeDLLPReceiver</title>
<polygon fill="#ffe0ff" stroke="black" points="258,-280 28,-280 28,-244 258,-244 258,-280"/>
<text text-anchor="middle" x="143" y="-258.2" font-family="Migu 1M" font-size="16.00">PCIeDLLPReceiver</text>
</g>
<!-- PCIePhyRX&#45;&gt;PCIeDLLPReceiver -->
<g id="edge11" class="edge">
<title>PCIePhyRX&#45;&gt;PCIeDLLPReceiver</title>
<path fill="none" stroke="black" stroke-width="2" d="M143,-351.97C143,-335.38 143,-309.88 143,-290.43"/>
<polygon fill="black" stroke="black" stroke-width="2" points="146.5,-290.34 143,-280.34 139.5,-290.34 146.5,-290.34"/>
</g>
<!-- PCIePhyTX -->
<g id="node8" class="node">
<title>PCIePhyTX</title>
<polygon fill="#e0ffff" stroke="black" points="862,-388 632,-388 632,-352 862,-352 862,-388"/>
<text text-anchor="middle" x="747" y="-366.2" font-family="Migu 1M" font-size="16.00">PCIePhyTX</text>
</g>
<!-- PCIePhyTX&#45;&gt;PCIeScrambler -->
<g id="edge6" class="edge">
<title>PCIePhyTX&#45;&gt;PCIeScrambler</title>
<path fill="none" stroke="black" d="M698.35,-388.08C645.1,-406.77 559.77,-436.71 503.06,-456.62"/>
<polygon fill="black" stroke="black" points="501.8,-453.35 493.52,-459.97 504.12,-459.96 501.8,-453.35"/>
</g>
<!-- PCIeLTSSM&#45;&gt;PCIePhyTX -->
<g id="edge9" class="edge">
<title>PCIeLTSSM&#45;&gt;PCIePhyTX</title>
<path fill="none" stroke="black" stroke-dasharray="5,2" d="M560.02,-370C580.63,-370 601.24,-370 621.85,-370"/>
<polygon fill="black" stroke="black" points="621.96,-373.5 631.96,-370 621.96,-366.5 621.96,-373.5"/>
</g>
<!-- PCIeDLLPTransmitter -->
<g id="node10" class="node">
<title>PCIeDLLPTransmitter</title>
<polygon fill="#ffe0ff" stroke="black" points="862,-280 632,-280 632,-244 862,-244 862,-280"/>
<text text-anchor="middle" x="747" y="-258.2" font-family="Migu 1M" font-size="16.00">PCIeDLLPTransmitter</text>
</g>
<!-- PCIeDLLPTransmitter&#45;&gt;PCIePhyTX -->
<g id="edge10" class="edge">
<title>PCIeDLLPTransmitter&#45;&gt;PCIePhyTX</title>
<path fill="none" stroke="black" stroke-width="2" d="M747,-280.34C747,-297.04 747,-322.55 747,-341.93"/>
<polygon fill="black" stroke="black" stroke-width="2" points="743.5,-341.97 747,-351.97 750.5,-341.97 743.5,-341.97"/>
</g>
<!-- PCIeDLL -->
<g id="node12" class="node">
<title>PCIeDLL</title>
<polygon fill="#ffe0ff" stroke="black" points="560,-280 330,-280 330,-244 560,-244 560,-280"/>
<text text-anchor="middle" x="445" y="-258.2" font-family="Migu 1M" font-size="16.00">PCIeDLL</text>
</g>
<!-- PCIeDLLPReceiver&#45;&gt;PCIeDLL -->
<g id="edge12" class="edge">
<title>PCIeDLLPReceiver&#45;&gt;PCIeDLL</title>
<path fill="none" stroke="black" stroke-dasharray="5,2" d="M258.02,-262C278.63,-262 299.24,-262 319.85,-262"/>
<polygon fill="black" stroke="black" points="319.96,-265.5 329.96,-262 319.96,-258.5 319.96,-265.5"/>
</g>
<!-- PCIeDLLTLPReceiver -->
<g id="node14" class="node">
<title>PCIeDLLTLPReceiver</title>
<polygon fill="#ffe0ff" stroke="black" points="409,-172 179,-172 179,-136 409,-136 409,-172"/>
<text text-anchor="middle" x="294" y="-150.2" font-family="Migu 1M" font-size="16.00">PCIeDLLTLPReceiver</text>
</g>
<!-- PCIeDLLPReceiver&#45;&gt;PCIeDLLTLPReceiver -->
<g id="edge15" class="edge">
<title>PCIeDLLPReceiver&#45;&gt;PCIeDLLTLPReceiver</title>
<path fill="none" stroke="black" stroke-width="2" d="M167.26,-243.97C192.65,-226.15 232.66,-198.06 260.93,-178.21"/>
<polygon fill="black" stroke="black" stroke-width="2" points="263.12,-180.95 269.3,-172.34 259.1,-175.22 263.12,-180.95"/>
</g>
<!-- PCIeDLL&#45;&gt;PCIeDLLPTransmitter -->
<g id="edge13" class="edge">
<title>PCIeDLL&#45;&gt;PCIeDLLPTransmitter</title>
<path fill="none" stroke="black" stroke-dasharray="5,2" d="M560.02,-262C580.63,-262 601.24,-262 621.85,-262"/>
<polygon fill="black" stroke="black" points="621.96,-265.5 631.96,-262 621.96,-258.5 621.96,-265.5"/>
</g>
<!-- PCIeDLLTLPTransmitter -->
<g id="node13" class="node">
<title>PCIeDLLTLPTransmitter</title>
<polygon fill="#ffe0ff" stroke="black" points="786,-172 556,-172 556,-136 786,-136 786,-172"/>
<text text-anchor="middle" x="671" y="-150.2" font-family="Migu 1M" font-size="16.00">PCIeDLLTLPTransmitter</text>
</g>
<!-- PCIeDLLTLPTransmitter&#45;&gt;PCIeDLLPTransmitter -->
<g id="edge14" class="edge">
<title>PCIeDLLTLPTransmitter&#45;&gt;PCIeDLLPTransmitter</title>
<path fill="none" stroke="black" stroke-width="2" d="M683.43,-172.34C695.8,-189.58 714.89,-216.22 728.93,-235.79"/>
<polygon fill="black" stroke="black" stroke-width="2" points="726.12,-237.88 734.79,-243.97 731.81,-233.8 726.12,-237.88"/>
</g>
<!-- PCIeVirtualTLPGenerator -->
<g id="node15" class="node">
<title>PCIeVirtualTLPGenerator</title>
<polygon fill="#ffffe0" stroke="black" points="786,-64 556,-64 556,-28 786,-28 786,-64"/>
<text text-anchor="middle" x="671" y="-42.2" font-family="Migu 1M" font-size="16.00">PCIeVirtualTLPGenerator</text>
</g>
<!-- PCIeDLLTLPTransmitter&#45;&gt;PCIeVirtualTLPGenerator -->
<g id="edge17" class="edge">
<title>PCIeDLLTLPTransmitter&#45;&gt;PCIeVirtualTLPGenerator</title>
<path fill="none" stroke="black" stroke-width="2" d="M671,-125.93C671,-106.55 671,-81.04 671,-64.34"/>
<polygon fill="black" stroke="black" stroke-width="2" points="667.5,-125.97 671,-135.97 674.5,-125.97 667.5,-125.97"/>
</g>
<!-- PCIeDLLTLPReceiver&#45;&gt;PCIeDLLTLPTransmitter -->
<g id="edge16" class="edge">
<title>PCIeDLLTLPReceiver&#45;&gt;PCIeDLLTLPTransmitter</title>
<path fill="none" stroke="black" stroke-dasharray="5,2" d="M419.27,-154C461.45,-154 503.64,-154 545.82,-154"/>
<polygon fill="black" stroke="black" points="419.24,-150.5 409.24,-154 419.24,-157.5 419.24,-150.5"/>
<polygon fill="black" stroke="black" points="545.97,-157.5 555.97,-154 545.97,-150.5 545.97,-157.5"/>
</g>
</g>
</svg>
