<?xml version="1.0" encoding="UTF-8" standalone="no"?>
<!DOCTYPE svg PUBLIC "-//W3C//DTD SVG 1.1//EN"
 "http://www.w3.org/Graphics/SVG/1.1/DTD/svg11.dtd">
<!-- Generated by graphviz version 3.0.0 (0)
 -->
<!-- Title: graph_name Pages: 1 -->
<svg width="5884pt" height="1245pt"
 viewBox="14.40 14.40 5869.98 1230.40" xmlns="http://www.w3.org/2000/svg" xmlns:xlink="http://www.w3.org/1999/xlink">
<g id="graph0" class="graph" transform="scale(1 1) rotate(0) translate(18.4 1226.4)">
<title>graph_name</title>
<polygon fill="white" stroke="transparent" points="-4,4 -4,-1212 5851.58,-1212 5851.58,4 -4,4"/>
<text text-anchor="middle" x="2923.79" y="-1189.6" font-family="Times,serif" font-size="18.00">PCIe 2 upstream LTSSM state diagram</text>
<g id="clust1" class="cluster">
<title>cluster1</title>
<polygon fill="white" stroke="black" points="1731.58,-8 1731.58,-272 1981.58,-272 1981.58,-8 1731.58,-8"/>
<text text-anchor="middle" x="1856.58" y="-253.6" font-family="Times,serif" font-size="18.00">Detect</text>
</g>
<g id="clust2" class="cluster">
<title>cluster2</title>
<polygon fill="white" stroke="black" points="71.58,-368 71.58,-632 695.58,-632 695.58,-368 71.58,-368"/>
<text text-anchor="middle" x="383.58" y="-613.6" font-family="Times,serif" font-size="18.00">Polling</text>
</g>
<g id="clust3" class="cluster">
<title>cluster3</title>
<polygon fill="white" stroke="black" points="1109.58,-188 1109.58,-1172 1359.58,-1172 1359.58,-188 1109.58,-188"/>
<text text-anchor="middle" x="1234.58" y="-1153.6" font-family="Times,serif" font-size="18.00">Configuration</text>
</g>
<g id="clust4" class="cluster">
<title>cluster4</title>
<polygon fill="white" stroke="black" points="3803.58,-368 3803.58,-812 4427.58,-812 4427.58,-368 3803.58,-368"/>
<text text-anchor="middle" x="4115.58" y="-793.6" font-family="Times,serif" font-size="18.00">Recovery</text>
</g>
<g id="clust5" class="cluster">
<title>cluster5</title>
<polygon fill="white" stroke="black" points="3181.58,-188 3181.58,-272 3431.58,-272 3431.58,-188 3181.58,-188"/>
<text text-anchor="middle" x="3306.58" y="-253.6" font-family="Times,serif" font-size="18.00">L0</text>
</g>
<g id="clust6" class="cluster">
<title>cluster6</title>
<polygon fill="white" stroke="black" points="4467.58,-908 4467.58,-992 4717.58,-992 4717.58,-908 4467.58,-908"/>
<text text-anchor="middle" x="4592.58" y="-973.6" font-family="Times,serif" font-size="18.00">Disabled</text>
</g>
<g id="clust7" class="cluster">
<title>cluster7</title>
<polygon fill="white" stroke="black" points="4841.58,-908 4841.58,-992 5839.58,-992 5839.58,-908 4841.58,-908"/>
<text text-anchor="middle" x="5340.58" y="-973.6" font-family="Times,serif" font-size="18.00">Loopback</text>
</g>
<!-- Detect.Quiet -->
<g id="node1" class="node">
<title>Detect.Quiet</title>
<polygon fill="#ffffff" stroke="black" points="1971.58,-234 1741.58,-234 1741.58,-198 1971.58,-198 1971.58,-234"/>
<text text-anchor="middle" x="1856.58" y="-212.2" font-family="Migu 1M" font-size="16.00">Detect.Quiet</text>
</g>
<!-- Detect.Active -->
<g id="node2" class="node">
<title>Detect.Active</title>
<polygon fill="#ffffff" stroke="black" points="1971.58,-54 1741.58,-54 1741.58,-18 1971.58,-18 1971.58,-54"/>
<text text-anchor="middle" x="1856.58" y="-32.2" font-family="Migu 1M" font-size="16.00">Detect.Active</text>
</g>
<!-- Detect.Quiet&#45;&gt;Detect.Active -->
<g id="edge1" class="edge">
<title>Detect.Quiet&#45;&gt;Detect.Active</title>
<path fill="none" stroke="black" d="M1823.15,-197.93C1797.86,-166.57 1795.89,-99.6 1817.26,-62.71"/>
<polygon fill="black" stroke="black" points="1820.45,-64.25 1823.2,-54.02 1814.67,-60.3 1820.45,-64.25"/>
<text text-anchor="middle" x="1753.08" y="-129.67" font-family="Migu 1M" font-size="14.00">12 ms Timeout</text>
</g>
<!-- Detect.Active&#45;&gt;Detect.Quiet -->
<g id="edge2" class="edge">
<title>Detect.Active&#45;&gt;Detect.Quiet</title>
<path fill="none" stroke="black" d="M1889.97,-54.02C1915.29,-85.34 1917.28,-152.3 1895.94,-189.23"/>
<polygon fill="black" stroke="black" points="1892.75,-187.7 1890.01,-197.93 1898.54,-191.64 1892.75,-187.7"/>
<text text-anchor="middle" x="1980.08" y="-129.85" font-family="Migu 1M" font-size="14.00">No receiver detected</text>
</g>
<!-- Polling.Active -->
<g id="node3" class="node">
<title>Polling.Active</title>
<polygon fill="#ffffff" stroke="black" points="685.58,-594 455.58,-594 455.58,-558 685.58,-558 685.58,-594"/>
<text text-anchor="middle" x="570.58" y="-572.2" font-family="Migu 1M" font-size="16.00">Polling.Active</text>
</g>
<!-- Detect.Active&#45;&gt;Polling.Active -->
<g id="edge3" class="edge">
<title>Detect.Active&#45;&gt;Polling.Active</title>
<path fill="none" stroke="black" d="M1741.49,-39.23C1372.98,-49.01 233.2,-100.74 9.58,-368 -3.54,-383.68 -2.72,-397.67 9.58,-414 61.96,-483.52 296.7,-532.24 445.44,-556.77"/>
<polygon fill="black" stroke="black" points="445.12,-560.26 455.56,-558.42 446.25,-553.35 445.12,-560.26"/>
<text text-anchor="middle" x="928.52" y="-82.1" font-family="Migu 1M" font-size="14.00">Receivers on all unconfigured lanes detected</text>
</g>
<!-- Polling.Compliance -->
<g id="node4" class="node">
<title>Polling.Compliance</title>
<polygon fill="#ffffff" stroke="black" points="311.58,-414 81.58,-414 81.58,-378 311.58,-378 311.58,-414"/>
<text text-anchor="middle" x="196.58" y="-392.2" font-family="Migu 1M" font-size="16.00">Polling.Compliance</text>
</g>
<!-- Polling.Active&#45;&gt;Polling.Compliance -->
<g id="edge4" class="edge">
<title>Polling.Active&#45;&gt;Polling.Compliance</title>
<path fill="none" stroke="black" d="M534.72,-557.93C466.17,-525.31 316.67,-454.15 241.55,-418.4"/>
<polygon fill="black" stroke="black" points="242.87,-415.15 232.34,-414.02 239.86,-421.47 242.87,-415.15"/>
<text text-anchor="middle" x="303.46" y="-489.74" font-family="Migu 1M" font-size="14.00">Enter compliance bit = 1</text>
</g>
<!-- Polling.Configuration -->
<g id="node5" class="node">
<title>Polling.Configuration</title>
<polygon fill="#ffffff" stroke="black" points="685.58,-414 455.58,-414 455.58,-378 685.58,-378 685.58,-414"/>
<text text-anchor="middle" x="570.58" y="-392.2" font-family="Migu 1M" font-size="16.00">Polling.Configuration</text>
</g>
<!-- Polling.Active&#45;&gt;Polling.Configuration -->
<g id="edge5" class="edge">
<title>Polling.Active&#45;&gt;Polling.Configuration</title>
<path fill="none" stroke="black" d="M570.58,-557.93C570.58,-526.97 570.58,-461.3 570.58,-424.13"/>
<polygon fill="black" stroke="black" points="574.08,-424.02 570.58,-414.02 567.08,-424.02 574.08,-424.02"/>
<text text-anchor="middle" x="390.08" y="-474.54" font-family="Migu 1M" font-size="14.00">1024 TS1 TX</text>
<text text-anchor="middle" x="390.08" y="-459.54" font-family="Migu 1M" font-size="14.00">&amp; ((TS1 PAD &amp; (Compliance Receive bit | Loopback bit))</text>
<text text-anchor="middle" x="390.08" y="-444.54" font-family="Migu 1M" font-size="14.00">| TS2 PAD)</text>
</g>
<!-- Polling.Configuration&#45;&gt;Detect.Quiet -->
<g id="edge6" class="edge">
<title>Polling.Configuration&#45;&gt;Detect.Quiet</title>
<path fill="none" stroke="black" d="M685.84,-379.05C926.64,-345.72 1481.37,-268.93 1730.92,-234.39"/>
<polygon fill="black" stroke="black" points="1731.7,-237.82 1741.12,-232.98 1730.74,-230.89 1731.7,-237.82"/>
<text text-anchor="middle" x="1163.8" y="-309.84" font-family="Migu 1M" font-size="14.00">48 ms Timeout</text>
</g>
<!-- Configuration.Linkwidth.Start -->
<g id="node7" class="node">
<title>Configuration.Linkwidth.Start</title>
<polygon fill="#ffffff" stroke="black" points="1349.58,-1134 1119.58,-1134 1119.58,-1098 1349.58,-1098 1349.58,-1134"/>
<text text-anchor="middle" x="1234.58" y="-1112.2" font-family="Migu 1M" font-size="16.00">Configuration.Linkwidth.Start</text>
</g>
<!-- Polling.Configuration&#45;&gt;Configuration.Linkwidth.Start -->
<g id="edge7" class="edge">
<title>Polling.Configuration&#45;&gt;Configuration.Linkwidth.Start</title>
<path fill="none" stroke="black" d="M594.24,-414.04C631.59,-441.62 705.34,-498.97 757.58,-558 911.34,-731.72 882.95,-828.56 1047.58,-992 1090.69,-1034.8 1150.88,-1071.19 1191.22,-1093.04"/>
<polygon fill="black" stroke="black" points="1189.8,-1096.25 1200.26,-1097.88 1193.1,-1090.08 1189.8,-1096.25"/>
<text text-anchor="middle" x="726.61" y="-763.55" font-family="Migu 1M" font-size="14.00">8 TS2 PAD RX &amp; 16 TS2 PAD TX after 1 TS2 PAD RX</text>
</g>
<!-- Polling.Speed -->
<g id="node6" class="node">
<title>Polling.Speed</title>
<polygon fill="#ffffff" stroke="black" points="311.58,-594 81.58,-594 81.58,-558 311.58,-558 311.58,-594"/>
<text text-anchor="middle" x="196.58" y="-572.2" font-family="Migu 1M" font-size="16.00">Polling.Speed</text>
</g>
<!-- Configuration.Linkwidth.Start&#45;&gt;Detect.Quiet -->
<g id="edge11" class="edge">
<title>Configuration.Linkwidth.Start&#45;&gt;Detect.Quiet</title>
<path fill="none" stroke="black" d="M1349.84,-1105.44C1650.69,-1077.34 2436.58,-982.36 2436.58,-757 2436.58,-757 2436.58,-757 2436.58,-575 2436.58,-360.8 2146.59,-270.52 1976.71,-236.02"/>
<polygon fill="black" stroke="black" points="1977.19,-232.55 1966.7,-234.02 1975.82,-239.41 1977.19,-232.55"/>
<text text-anchor="middle" x="1669.57" y="-1063.9" font-family="Migu 1M" font-size="14.00">24 ms Timeout</text>
</g>
<!-- Configuration.Linkwidth.Accept -->
<g id="node8" class="node">
<title>Configuration.Linkwidth.Accept</title>
<polygon fill="#ffffff" stroke="black" points="1349.58,-954 1119.58,-954 1119.58,-918 1349.58,-918 1349.58,-954"/>
<text text-anchor="middle" x="1234.58" y="-932.2" font-family="Migu 1M" font-size="16.00">Configuration.Linkwidth.Accept</text>
</g>
<!-- Configuration.Linkwidth.Start&#45;&gt;Configuration.Linkwidth.Accept -->
<g id="edge10" class="edge">
<title>Configuration.Linkwidth.Start&#45;&gt;Configuration.Linkwidth.Accept</title>
<path fill="none" stroke="black" d="M1234.58,-1097.93C1234.58,-1066.97 1234.58,-1001.3 1234.58,-964.13"/>
<polygon fill="black" stroke="black" points="1238.08,-964.02 1234.58,-954.02 1231.08,-964.02 1238.08,-964.02"/>
<text text-anchor="middle" x="1147.08" y="-1029.54" font-family="Migu 1M" font-size="14.00">Consecutive TS1 Link, PAD</text>
</g>
<!-- Disabled -->
<g id="node18" class="node">
<title>Disabled</title>
<polygon fill="#ffffff" stroke="black" points="4707.58,-954 4477.58,-954 4477.58,-918 4707.58,-918 4707.58,-954"/>
<text text-anchor="middle" x="4592.58" y="-932.2" font-family="Migu 1M" font-size="16.00">Disabled</text>
</g>
<!-- Configuration.Linkwidth.Start&#45;&gt;Disabled -->
<g id="edge8" class="edge">
<title>Configuration.Linkwidth.Start&#45;&gt;Disabled</title>
<path fill="none" stroke="black" d="M1349.93,-1113.6C1842.19,-1107.16 3769.25,-1076.91 4369.58,-992 4423.36,-984.39 4483.04,-969.31 4527.11,-956.86"/>
<polygon fill="black" stroke="black" points="4528.18,-960.2 4536.84,-954.09 4526.26,-953.47 4528.18,-960.2"/>
<text text-anchor="middle" x="2911.26" y="-1082.04" font-family="Migu 1M" font-size="14.00">If directed</text>
</g>
<!-- Loopback.Entry -->
<g id="node19" class="node">
<title>Loopback.Entry</title>
<polygon fill="#ffffff" stroke="black" points="5829.58,-954 5599.58,-954 5599.58,-918 5829.58,-918 5829.58,-954"/>
<text text-anchor="middle" x="5714.58" y="-932.2" font-family="Migu 1M" font-size="16.00">Loopback.Entry</text>
</g>
<!-- Configuration.Linkwidth.Start&#45;&gt;Loopback.Entry -->
<g id="edge9" class="edge">
<title>Configuration.Linkwidth.Start&#45;&gt;Loopback.Entry</title>
<path fill="none" stroke="black" d="M1349.74,-1113.47C1990.74,-1104.72 5105.13,-1059.03 5527.58,-992 5572.84,-984.82 5622.53,-969.85 5659.31,-957.34"/>
<polygon fill="black" stroke="black" points="5660.54,-960.62 5668.85,-954.05 5658.26,-954 5660.54,-960.62"/>
<text text-anchor="middle" x="3400.14" y="-1078.39" font-family="Migu 1M" font-size="14.00">If directed | 2x TS1 with loopback bit</text>
</g>
<!-- Configuration.Linkwidth.Accept&#45;&gt;Detect.Quiet -->
<g id="edge13" class="edge">
<title>Configuration.Linkwidth.Accept&#45;&gt;Detect.Quiet</title>
<path fill="none" stroke="black" d="M1264.86,-917.98C1303.1,-895.86 1370.11,-854.93 1421.58,-812 1609.4,-655.35 1680.65,-626.57 1801.58,-414 1833.19,-358.45 1847.54,-283.62 1853.28,-244.09"/>
<polygon fill="black" stroke="black" points="1856.75,-244.53 1854.64,-234.15 1849.81,-243.58 1856.75,-244.53"/>
<text text-anchor="middle" x="1470.12" y="-649.86" font-family="Migu 1M" font-size="14.00">2 ms Timeout | TS1 PAD | No link configurable</text>
</g>
<!-- Configuration.Lanenum.Wait -->
<g id="node10" class="node">
<title>Configuration.Lanenum.Wait</title>
<polygon fill="#ffffff" stroke="black" points="1349.58,-774 1119.58,-774 1119.58,-738 1349.58,-738 1349.58,-774"/>
<text text-anchor="middle" x="1234.58" y="-752.2" font-family="Migu 1M" font-size="16.00">Configuration.Lanenum.Wait</text>
</g>
<!-- Configuration.Linkwidth.Accept&#45;&gt;Configuration.Lanenum.Wait -->
<g id="edge12" class="edge">
<title>Configuration.Linkwidth.Accept&#45;&gt;Configuration.Lanenum.Wait</title>
<path fill="none" stroke="black" d="M1234.58,-917.93C1234.58,-886.97 1234.58,-821.3 1234.58,-784.13"/>
<polygon fill="black" stroke="black" points="1238.08,-784.02 1234.58,-774.02 1231.08,-784.02 1238.08,-784.02"/>
<text text-anchor="middle" x="1144.58" y="-849.54" font-family="Migu 1M" font-size="14.00">Consecutive TS1 Link, Lane</text>
</g>
<!-- Configuration.Lanenum.Accept -->
<g id="node9" class="node">
<title>Configuration.Lanenum.Accept</title>
<polygon fill="#ffffff" stroke="black" points="1349.58,-594 1119.58,-594 1119.58,-558 1349.58,-558 1349.58,-594"/>
<text text-anchor="middle" x="1234.58" y="-572.2" font-family="Migu 1M" font-size="16.00">Configuration.Lanenum.Accept</text>
</g>
<!-- Configuration.Lanenum.Accept&#45;&gt;Detect.Quiet -->
<g id="edge18" class="edge">
<title>Configuration.Lanenum.Accept&#45;&gt;Detect.Quiet</title>
<path fill="none" stroke="black" d="M1264.17,-557.97C1366.18,-499.26 1703.32,-305.21 1818,-239.21"/>
<polygon fill="black" stroke="black" points="1819.9,-242.15 1826.82,-234.13 1816.41,-236.09 1819.9,-242.15"/>
<text text-anchor="middle" x="1465.47" y="-399.86" font-family="Migu 1M" font-size="14.00">2 ms Timeout | TS1 PAD</text>
</g>
<!-- Configuration.Lanenum.Accept&#45;&gt;Configuration.Lanenum.Wait -->
<g id="edge17" class="edge">
<title>Configuration.Lanenum.Accept&#45;&gt;Configuration.Lanenum.Wait</title>
<path fill="none" stroke="black" d="M1267.97,-594.02C1293.29,-625.34 1295.28,-692.3 1273.94,-729.23"/>
<polygon fill="black" stroke="black" points="1270.75,-727.7 1268.01,-737.93 1276.54,-731.64 1270.75,-727.7"/>
<text text-anchor="middle" x="1174.08" y="-669.85" font-family="Migu 1M" font-size="14.00">Consecutive TS2, Link match, Lane</text>
</g>
<!-- Configuration.Complete -->
<g id="node11" class="node">
<title>Configuration.Complete</title>
<polygon fill="#ffffff" stroke="black" points="1349.58,-414 1119.58,-414 1119.58,-378 1349.58,-378 1349.58,-414"/>
<text text-anchor="middle" x="1234.58" y="-392.2" font-family="Migu 1M" font-size="16.00">Configuration.Complete</text>
</g>
<!-- Configuration.Lanenum.Accept&#45;&gt;Configuration.Complete -->
<g id="edge16" class="edge">
<title>Configuration.Lanenum.Accept&#45;&gt;Configuration.Complete</title>
<path fill="none" stroke="black" d="M1234.58,-557.93C1234.58,-526.97 1234.58,-461.3 1234.58,-424.13"/>
<polygon fill="black" stroke="black" points="1238.08,-424.02 1234.58,-414.02 1231.08,-424.02 1238.08,-424.02"/>
<text text-anchor="middle" x="1097.58" y="-489.54" font-family="Migu 1M" font-size="14.00">Consecutive TS2, Link match, Lane match</text>
</g>
<!-- Configuration.Lanenum.Wait&#45;&gt;Detect.Quiet -->
<g id="edge15" class="edge">
<title>Configuration.Lanenum.Wait&#45;&gt;Detect.Quiet</title>
<path fill="none" stroke="black" d="M1263.37,-737.93C1300.88,-715.26 1368.03,-673.27 1421.58,-632 1593.19,-499.77 1772.49,-309.15 1834.19,-241.75"/>
<polygon fill="black" stroke="black" points="1836.97,-243.9 1841.12,-234.15 1831.8,-239.18 1836.97,-243.9"/>
<text text-anchor="middle" x="1490.51" y="-509.78" font-family="Migu 1M" font-size="14.00">2 ms Timeout | TS1 PAD</text>
</g>
<!-- Configuration.Lanenum.Wait&#45;&gt;Configuration.Lanenum.Accept -->
<g id="edge14" class="edge">
<title>Configuration.Lanenum.Wait&#45;&gt;Configuration.Lanenum.Accept</title>
<path fill="none" stroke="black" d="M1201.15,-737.93C1175.86,-706.57 1173.89,-639.6 1195.26,-602.71"/>
<polygon fill="black" stroke="black" points="1198.45,-604.25 1201.2,-594.02 1192.67,-600.3 1198.45,-604.25"/>
<text text-anchor="middle" x="998.58" y="-654.67" font-family="Migu 1M" font-size="14.00">Consecutive TS1 Link, Lane changed | Consecutive TS2</text>
</g>
<!-- Configuration.Complete&#45;&gt;Detect.Quiet -->
<g id="edge20" class="edge">
<title>Configuration.Complete&#45;&gt;Detect.Quiet</title>
<path fill="none" stroke="black" d="M1294.22,-377.93C1409.98,-344.81 1664.5,-271.97 1787.43,-236.79"/>
<polygon fill="black" stroke="black" points="1788.47,-240.13 1797.12,-234.02 1786.55,-233.4 1788.47,-240.13"/>
<text text-anchor="middle" x="1500.3" y="-309.74" font-family="Migu 1M" font-size="14.00">2 ms Timeout</text>
</g>
<!-- Configuration.Idle -->
<g id="node12" class="node">
<title>Configuration.Idle</title>
<polygon fill="#ffffff" stroke="black" points="1349.58,-234 1119.58,-234 1119.58,-198 1349.58,-198 1349.58,-234"/>
<text text-anchor="middle" x="1234.58" y="-212.2" font-family="Migu 1M" font-size="16.00">Configuration.Idle</text>
</g>
<!-- Configuration.Complete&#45;&gt;Configuration.Idle -->
<g id="edge19" class="edge">
<title>Configuration.Complete&#45;&gt;Configuration.Idle</title>
<path fill="none" stroke="black" d="M1234.58,-377.93C1234.58,-346.97 1234.58,-281.3 1234.58,-244.13"/>
<polygon fill="black" stroke="black" points="1238.08,-244.02 1234.58,-234.02 1231.08,-244.02 1238.08,-244.02"/>
<text text-anchor="middle" x="994.08" y="-294.54" font-family="Migu 1M" font-size="14.00">TX TS2, RX TS2, Link match, Lane match, DRI match, 16x TX TS2 after that</text>
</g>
<!-- Configuration.Idle&#45;&gt;Detect.Quiet -->
<g id="edge23" class="edge">
<title>Configuration.Idle&#45;&gt;Detect.Quiet</title>
<path fill="none" stroke="black" d="M1349.69,-216C1476.77,-216 1603.84,-216 1730.92,-216"/>
<polygon fill="black" stroke="black" points="1731.25,-219.5 1741.25,-216 1731.25,-212.5 1731.25,-219.5"/>
<text text-anchor="middle" x="1500.02" y="-219.8" font-family="Migu 1M" font-size="14.00">2 ms Timeout</text>
</g>
<!-- Recovery.RcvrLock -->
<g id="node13" class="node">
<title>Recovery.RcvrLock</title>
<polygon fill="#ffffff" stroke="black" points="4043.58,-774 3813.58,-774 3813.58,-738 4043.58,-738 4043.58,-774"/>
<text text-anchor="middle" x="3928.58" y="-752.2" font-family="Migu 1M" font-size="16.00">Recovery.RcvrLock</text>
</g>
<!-- Configuration.Idle&#45;&gt;Recovery.RcvrLock -->
<g id="edge22" class="edge">
<title>Configuration.Idle&#45;&gt;Recovery.RcvrLock</title>
<path fill="none" stroke="black" d="M1319.97,-234.05C1720.54,-314.05 3411.62,-651.76 3833.12,-735.93"/>
<polygon fill="black" stroke="black" points="3832.64,-739.41 3843.13,-737.94 3834.01,-732.54 3832.64,-739.41"/>
<text text-anchor="middle" x="2355.28" y="-489.84" font-family="Migu 1M" font-size="14.00">2 ms Timeout, idle_to_rlock_transitioned = 0b (nonexistent in PCIe 3)</text>
</g>
<!-- L0 -->
<g id="node17" class="node">
<title>L0</title>
<polygon fill="#ffffff" stroke="black" points="3421.58,-234 3191.58,-234 3191.58,-198 3421.58,-198 3421.58,-234"/>
<text text-anchor="middle" x="3306.58" y="-212.2" font-family="Migu 1M" font-size="16.00">L0</text>
</g>
<!-- Configuration.Idle&#45;&gt;L0 -->
<g id="edge21" class="edge">
<title>Configuration.Idle&#45;&gt;L0</title>
<path fill="none" stroke="black" d="M1304.22,-234.05C1405.41,-259.26 1599.37,-303.74 1767.58,-320 2302.54,-371.7 2944.59,-278.42 3197.03,-235.7"/>
<polygon fill="black" stroke="black" points="3197.67,-239.15 3206.94,-234.02 3196.5,-232.25 3197.67,-239.15"/>
<text text-anchor="middle" x="2153.04" y="-336.66" font-family="Migu 1M" font-size="14.00">8x RX Idle, 16x TX Idle after that</text>
</g>
<!-- Recovery.RcvrLock&#45;&gt;Detect.Quiet -->
<g id="edge29" class="edge">
<title>Recovery.RcvrLock&#45;&gt;Detect.Quiet</title>
<path fill="none" stroke="black" d="M3888.73,-737.8C3747.73,-677.63 3258.21,-474.41 2835.58,-368 2533.86,-292.03 2169.64,-248.02 1981.95,-228.74"/>
<polygon fill="black" stroke="black" points="1982.08,-225.24 1971.77,-227.7 1981.37,-232.2 1982.08,-225.24"/>
<text text-anchor="middle" x="2684.58" y="-371.8" font-family="Migu 1M" font-size="14.00">24 ms Timeout &amp; No other condition matches</text>
</g>
<!-- Recovery.RcvrLock&#45;&gt;Configuration.Linkwidth.Start -->
<g id="edge28" class="edge">
<title>Recovery.RcvrLock&#45;&gt;Configuration.Linkwidth.Start</title>
<path fill="none" stroke="black" d="M3841.95,-774.04C3624.63,-816.29 3038.47,-927.1 2545.58,-992 2111.77,-1049.13 1593.79,-1089.59 1360.01,-1106.37"/>
<polygon fill="black" stroke="black" points="1359.5,-1102.9 1349.77,-1107.1 1360,-1109.88 1359.5,-1102.9"/>
<text text-anchor="middle" x="2086.08" y="-1010.8" font-family="Migu 1M" font-size="14.00">24 ms Timeout &amp; TS Link match, Lane match &amp; changed_speed_recovery = 0b </text>
<text text-anchor="middle" x="2086.08" y="-995.8" font-family="Migu 1M" font-size="14.00">&amp; ((directed_speed_change = 0b &amp; RX TS speed_change = 0b) | (Current rate = 2.5 GT/s and that is highest advertised rate on TX and RX TS))</text>
</g>
<!-- Recovery.Speed -->
<g id="node14" class="node">
<title>Recovery.Speed</title>
<polygon fill="#ffffff" stroke="black" points="4043.58,-414 3813.58,-414 3813.58,-378 4043.58,-378 4043.58,-414"/>
<text text-anchor="middle" x="3928.58" y="-392.2" font-family="Migu 1M" font-size="16.00">Recovery.Speed</text>
</g>
<!-- Recovery.RcvrLock&#45;&gt;Recovery.Speed -->
<g id="edge26" class="edge">
<title>Recovery.RcvrLock&#45;&gt;Recovery.Speed</title>
<path fill="none" stroke="black" d="M3879.14,-737.97C3803.85,-679.79 3801.17,-488.7 3871.07,-421.02"/>
<polygon fill="black" stroke="black" points="3873.75,-423.33 3879,-414.13 3869.16,-418.05 3873.75,-423.33"/>
<text text-anchor="middle" x="3582.08" y="-580.16" font-family="Migu 1M" font-size="14.00">24 ms Timeout &amp; changed_speed_recovery = 0, current speed &gt; 2.5 GT/s</text>
</g>
<!-- Recovery.RcvrLock&#45;&gt;Recovery.Speed -->
<g id="edge27" class="edge">
<title>Recovery.RcvrLock&#45;&gt;Recovery.Speed</title>
<path fill="none" stroke="black" d="M3928.58,-737.73C3928.58,-680.19 3928.58,-494.66 3928.58,-424.35"/>
<polygon fill="black" stroke="black" points="3932.08,-424.09 3928.58,-414.09 3925.08,-424.09 3932.08,-424.09"/>
<text text-anchor="middle" x="3775.08" y="-564.75" font-family="Migu 1M" font-size="14.00">24 ms Timeout &amp; changed_speed_recovery = 1</text>
</g>
<!-- Recovery.RcvrCfg -->
<g id="node15" class="node">
<title>Recovery.RcvrCfg</title>
<polygon fill="#ffffff" stroke="black" points="4230.58,-594 4000.58,-594 4000.58,-558 4230.58,-558 4230.58,-594"/>
<text text-anchor="middle" x="4115.58" y="-572.2" font-family="Migu 1M" font-size="16.00">Recovery.RcvrCfg</text>
</g>
<!-- Recovery.RcvrLock&#45;&gt;Recovery.RcvrCfg -->
<g id="edge24" class="edge">
<title>Recovery.RcvrLock&#45;&gt;Recovery.RcvrCfg</title>
<path fill="none" stroke="black" d="M3913.08,-737.93C3921,-705.5 3993.83,-635.02 4055.34,-599.06"/>
<polygon fill="black" stroke="black" points="4057.32,-601.96 4064.32,-594.02 4053.89,-595.86 4057.32,-601.96"/>
<text text-anchor="middle" x="3732.7" y="-659.52" font-family="Migu 1M" font-size="14.00">8x TS RX, Link match, Lane match, speed_change = directed_speed_change</text>
</g>
<!-- Recovery.RcvrLock&#45;&gt;Recovery.RcvrCfg -->
<g id="edge25" class="edge">
<title>Recovery.RcvrLock&#45;&gt;Recovery.RcvrCfg</title>
<path fill="none" stroke="black" d="M3979.94,-737.93C4037.7,-706.83 4109.28,-640.73 4127.45,-603.65"/>
<polygon fill="black" stroke="black" points="4130.83,-604.61 4131.1,-594.02 4124.28,-602.13 4130.83,-604.61"/>
<text text-anchor="middle" x="3837.06" y="-691.82" font-family="Migu 1M" font-size="14.00">24 ms Timeout &amp; 8x TS RX, Link match, Lane match, speed_change = 1</text>
<text text-anchor="middle" x="3837.06" y="-676.82" font-family="Migu 1M" font-size="14.00">&amp; Data rate &gt; 2.5 GT/s | 5 GT/s DRI in TX TS1 &amp; in 8x RX TS2</text>
</g>
<!-- Recovery.Speed&#45;&gt;Detect.Quiet -->
<g id="edge31" class="edge">
<title>Recovery.Speed&#45;&gt;Detect.Quiet</title>
<path fill="none" stroke="black" d="M3813.51,-380.2C3778.85,-375.97 3740.7,-371.56 3705.58,-368 3057.85,-302.36 2280.2,-246.24 1981.66,-225.52"/>
<polygon fill="black" stroke="black" points="1981.89,-222.03 1971.67,-224.83 1981.41,-229.01 1981.89,-222.03"/>
<text text-anchor="middle" x="2843.65" y="-298.29" font-family="Migu 1M" font-size="14.00">48 ms Timeout</text>
</g>
<!-- Recovery.Speed&#45;&gt;Recovery.RcvrLock -->
<g id="edge30" class="edge">
<title>Recovery.Speed&#45;&gt;Recovery.RcvrLock</title>
<path fill="none" stroke="black" d="M3978.16,-414.13C4053.36,-472.48 4055.96,-663.56 3985.97,-731.1"/>
<polygon fill="black" stroke="black" points="3983.3,-728.78 3978.03,-737.97 3987.88,-734.07 3983.3,-728.78"/>
<text text-anchor="middle" x="3985.58" y="-579.67" font-family="Migu 1M" font-size="14.00">Conditions met</text>
</g>
<!-- Recovery.RcvrCfg&#45;&gt;Detect.Quiet -->
<g id="edge37" class="edge">
<title>Recovery.RcvrCfg&#45;&gt;Detect.Quiet</title>
<path fill="none" stroke="black" d="M4044.85,-557.98C3882.99,-519.52 3472.8,-424.85 3125.58,-368 2708.66,-299.74 2209.87,-249.48 1981.67,-228.21"/>
<polygon fill="black" stroke="black" points="1981.95,-224.72 1971.67,-227.28 1981.31,-231.69 1981.95,-224.72"/>
<text text-anchor="middle" x="2965.12" y="-354.32" font-family="Migu 1M" font-size="14.00">48 ms Timeout</text>
</g>
<!-- Recovery.RcvrCfg&#45;&gt;Configuration.Linkwidth.Start -->
<g id="edge34" class="edge">
<title>Recovery.RcvrCfg&#45;&gt;Configuration.Linkwidth.Start</title>
<path fill="none" stroke="black" d="M4122.19,-594.03C4137.48,-636.6 4170.01,-748.76 4115.58,-812 3933.07,-1024.06 1891.07,-1096.4 1360.13,-1111.69"/>
<polygon fill="black" stroke="black" points="1359.66,-1108.2 1349.77,-1111.99 1359.86,-1115.2 1359.66,-1108.2"/>
<text text-anchor="middle" x="2407.53" y="-1039.43" font-family="Migu 1M" font-size="14.00">8x TS1, Link or Lane not match, 16x TS2 sent after 1x RX and (speed_change = 0b | data rate = 2.5 GT/s, no 5 GT/s set in RX TS1 or in TX TS2)</text>
</g>
<!-- Recovery.RcvrCfg&#45;&gt;Recovery.Speed -->
<g id="edge32" class="edge">
<title>Recovery.RcvrCfg&#45;&gt;Recovery.Speed</title>
<path fill="none" stroke="black" d="M4030.79,-557.93C3947.96,-526.83 3874.23,-460.73 3876.86,-423.65"/>
<polygon fill="black" stroke="black" points="3880.23,-424.6 3879.68,-414.02 3873.51,-422.63 3880.23,-424.6"/>
<text text-anchor="middle" x="3615.77" y="-526.83" font-family="Migu 1M" font-size="14.00">8x TS RX, speed_change = 1</text>
<text text-anchor="middle" x="3615.77" y="-511.83" font-family="Migu 1M" font-size="14.00">&amp; Data rate &gt; 2.5 GT/s | 5 GT/s DRI in TX TS1 &amp; in 8x RX TS2</text>
<text text-anchor="middle" x="3615.77" y="-496.83" font-family="Migu 1M" font-size="14.00">&amp; 32 TS2 with speed_change = 1 after RX 1 TS2 with speed_change = 1, no intervening EIEOS</text>
</g>
<!-- Recovery.RcvrCfg&#45;&gt;Recovery.Speed -->
<g id="edge35" class="edge">
<title>Recovery.RcvrCfg&#45;&gt;Recovery.Speed</title>
<path fill="none" stroke="black" d="M4097.65,-557.93C4064.28,-526.17 3992.56,-457.89 3954.13,-421.32"/>
<polygon fill="black" stroke="black" points="3956.12,-418.38 3946.46,-414.02 3951.29,-423.45 3956.12,-418.38"/>
<text text-anchor="middle" x="4283.61" y="-489.82" font-family="Migu 1M" font-size="14.00">changed_speed_recovery = 1b &amp; EIOS or electrical idle &amp; no TS2 since this state</text>
</g>
<!-- Recovery.RcvrCfg&#45;&gt;Recovery.Speed -->
<g id="edge36" class="edge">
<title>Recovery.RcvrCfg&#45;&gt;Recovery.Speed</title>
<path fill="none" stroke="black" d="M4164.51,-557.93C4182.98,-525.11 4109.36,-453.28 4022.75,-417.75"/>
<polygon fill="black" stroke="black" points="4023.82,-414.41 4013.24,-414.02 4021.27,-420.93 4023.82,-414.41"/>
<text text-anchor="middle" x="3800.05" y="-468.6" font-family="Migu 1M" font-size="14.00">changed_speed_recovery = 0b &amp; &gt; 2.5 GT/s &amp; &#160;EIOS or electrical idle &amp; no TS2 since this state</text>
</g>
<!-- Recovery.Idle -->
<g id="node16" class="node">
<title>Recovery.Idle</title>
<polygon fill="#ffffff" stroke="black" points="4417.58,-414 4187.58,-414 4187.58,-378 4417.58,-378 4417.58,-414"/>
<text text-anchor="middle" x="4302.58" y="-392.2" font-family="Migu 1M" font-size="16.00">Recovery.Idle</text>
</g>
<!-- Recovery.RcvrCfg&#45;&gt;Recovery.Idle -->
<g id="edge33" class="edge">
<title>Recovery.RcvrCfg&#45;&gt;Recovery.Idle</title>
<path fill="none" stroke="black" d="M4133.51,-557.93C4166.88,-526.17 4238.61,-457.89 4277.04,-421.32"/>
<polygon fill="black" stroke="black" points="4279.88,-423.45 4284.71,-414.02 4275.05,-418.38 4279.88,-423.45"/>
<text text-anchor="middle" x="4549.56" y="-474.82" font-family="Migu 1M" font-size="14.00">8x TS RX, Link match, Lane match, identical DRI</text>
<text text-anchor="middle" x="4549.56" y="-459.82" font-family="Migu 1M" font-size="14.00">&amp; ((speed_change = 0b in RX | (current DR = 2.5 GT/s and (no 5 GT/s set in 8x RX TS2 ^ ... in 8x TX TS2)))</text>
<text text-anchor="middle" x="4549.56" y="-444.82" font-family="Migu 1M" font-size="14.00">| 16 TS2 sent after RX one TS2, no intervening EIEOS)</text>
</g>
<!-- Recovery.Idle&#45;&gt;Recovery.RcvrLock -->
<g id="edge39" class="edge">
<title>Recovery.Idle&#45;&gt;Recovery.RcvrLock</title>
<path fill="none" stroke="black" d="M4308.73,-414.11C4322.55,-455.92 4351.26,-564.74 4302.58,-632 4246.3,-709.76 4139.21,-739.22 4054,-749.97"/>
<polygon fill="black" stroke="black" points="4053.51,-746.51 4043.99,-751.16 4054.33,-753.46 4053.51,-746.51"/>
<text text-anchor="middle" x="4406.5" y="-689.36" font-family="Migu 1M" font-size="14.00">2 ms Timeout &amp; idle_to_rlock_transitioned &lt; max</text>
</g>
<!-- Recovery.Idle&#45;&gt;L0 -->
<g id="edge38" class="edge">
<title>Recovery.Idle&#45;&gt;L0</title>
<path fill="none" stroke="black" d="M4207.08,-377.93C4019.96,-344.49 3606.38,-270.58 3411.75,-235.79"/>
<polygon fill="black" stroke="black" points="3412.26,-232.33 3401.8,-234.02 3411.02,-239.22 3412.26,-232.33"/>
<text text-anchor="middle" x="3699.26" y="-309.74" font-family="Migu 1M" font-size="14.00">8x RX IDL &amp; 16 TX IDL after that</text>
</g>
<!-- Detect -->
<g id="node22" class="node">
<title>Detect</title>
<polygon fill="#ffffff" stroke="black" points="4417.58,-234 4187.58,-234 4187.58,-198 4417.58,-198 4417.58,-234"/>
<text text-anchor="middle" x="4302.58" y="-212.2" font-family="Migu 1M" font-size="16.00">Detect</text>
</g>
<!-- Recovery.Idle&#45;&gt;Detect -->
<g id="edge40" class="edge">
<title>Recovery.Idle&#45;&gt;Detect</title>
<path fill="none" stroke="black" d="M4302.58,-377.93C4302.58,-346.97 4302.58,-281.3 4302.58,-244.13"/>
<polygon fill="black" stroke="black" points="4306.08,-244.02 4302.58,-234.02 4299.08,-244.02 4306.08,-244.02"/>
<text text-anchor="middle" x="4186.58" y="-309.54" font-family="Migu 1M" font-size="14.00">2 ms Timeout &amp; no other condition</text>
</g>
<!-- L0&#45;&gt;Recovery.RcvrLock -->
<g id="edge41" class="edge">
<title>L0&#45;&gt;Recovery.RcvrLock</title>
<path fill="none" stroke="black" d="M3326.5,-234.23C3417.64,-313.06 3795.06,-639.51 3900.89,-731.04"/>
<polygon fill="black" stroke="black" points="3898.74,-733.81 3908.59,-737.71 3903.32,-728.52 3898.74,-733.81"/>
<text text-anchor="middle" x="3415.6" y="-474.81" font-family="Migu 1M" font-size="14.00">(directed_speed_change &amp; DL_Active) | TS received | directed</text>
</g>
<!-- Loopback.Active -->
<g id="node20" class="node">
<title>Loopback.Active</title>
<polygon fill="#ffffff" stroke="black" points="5455.58,-954 5225.58,-954 5225.58,-918 5455.58,-918 5455.58,-954"/>
<text text-anchor="middle" x="5340.58" y="-932.2" font-family="Migu 1M" font-size="16.00">Loopback.Active</text>
</g>
<!-- Loopback.Exit -->
<g id="node21" class="node">
<title>Loopback.Exit</title>
<polygon fill="#ffffff" stroke="black" points="5081.58,-954 4851.58,-954 4851.58,-918 5081.58,-918 5081.58,-954"/>
<text text-anchor="middle" x="4966.58" y="-932.2" font-family="Migu 1M" font-size="16.00">Loopback.Exit</text>
</g>
</g>
</svg>
